AnivaSerif.glyphspackage
{
glyphname = exclam;
layers = (
{
layerId = m004;
shapes = (
{
ref = period;
},
{
closed = 1;
nodes = (
(83,175,o),
(137,175,o),
(138,225,cs),
(148,667,l),
(72,667,l),
(82,225,ls)
);
}
);
width = 220;
},
{
hints = (
{
horizontal = 1;
place = (-5,120);
type = Stem;
},
{
place = (82.5,87);
type = Stem;
},
{
place = (67,120);
type = Stem;
}
);
layerId = m005;
shapes = (
{
ref = period;
},
{
closed = 1;
nodes = (
(71,175,o),
(149,175,o),
(150,225,cs),
(160,667,l),
(60,667,l),
(70,225,ls)
);
}
);
width = 220;
},
{
layerId = m006;
shapes = (
{
ref = period;
},
{
closed = 1;
nodes = (
(53,200,o),
(197,200,o),
(200,250,cs),
(225,667,l),
(25,667,l),
(50,250,ls)
);
}
);
width = 250;
},
{
layerId = m007;
shapes = (
{
ref = period;
},
{
closed = 1;
nodes = (
(83,175,o),
(137,175,o),
(138,225,cs),
(148,667,l),
(72,667,l),
(82,225,ls)
);
}
);
width = 220;
},
{
hints = (
{
horizontal = 1;
place = (-5,120);
type = Stem;
},
{
place = (82.5,87);
type = Stem;
},
{
place = (67,120);
type = Stem;
}
);
layerId = m008;
shapes = (
{
ref = period;
},
{
closed = 1;
nodes = (
(71,175,o),
(149,175,o),
(150,225,cs),
(160,667,l),
(60,667,l),
(70,225,ls)
);
}
);
width = 220;
},
{
layerId = m009;
shapes = (
{
ref = period;
},
{
closed = 1;
nodes = (
(53,200,o),
(197,200,o),
(200,250,cs),
(225,667,l),
(25,667,l),
(50,250,ls)
);
}
);
width = 250;
}
);
note = exclam;
unicode = 33;
}
{
glyphname = dollar;
layers = (
{
layerId = m004;
shapes = (
{
closed = 1;
nodes = (
(238,-70,l),
(238,737,l),
(188,737,l),
(188,-70,l)
);
},
{
ref = S;
}
);
width = 440;
},
{
hints = (
{
horizontal = 1;
place = (-10,77);
type = Stem;
},
{
horizontal = 1;
place = (538,142);
type = Stem;
},
{
place = (35,90);
type = Stem;
},
{
place = (183,50);
type = Stem;
},
{
place = (305,109);
type = Stem;
},
{
horizontal = 1;
place = (-85,152);
type = Stem;
}
);
layerId = m005;
shapes = (
{
closed = 1;
nodes = (
(243,-70,l),
(243,737,l),
(183,737,l),
(183,-70,l)
);
},
{
ref = S;
}
);
width = 456;
},
{
layerId = m006;
shapes = (
{
closed = 1;
nodes = (
(293,-70,l),
(293,737,l),
(203,737,l),
(203,-70,l)
);
},
{
ref = S;
}
);
width = 520;
},
{
associatedMasterId = m004;
attr = {
axisRules = (
{
min = 500;
},
{
}
);
};
layerId = "B34D2F73-3C47-4B54-B6C0-1EB4AD43E025";
name = "13. Jan. 24, 13:57";
shapes = (
{
closed = 1;
nodes = (
(238,659,l),
(238,737,l),
(188,737,l),
(188,659,l)
);
},
{
ref = S;
},
{
closed = 1;
nodes = (
(188,2,l),
(188,-70,l),
(238,-70,l),
(238,2,l)
);
}
);
width = 440;
},
{
associatedMasterId = m005;
attr = {
axisRules = (
{
min = 500;
},
{
}
);
};
hints = (
{
horizontal = 1;
place = (-10,77);
type = Stem;
},
{
horizontal = 1;
place = (538,142);
type = Stem;
},
{
place = (35,90);
type = Stem;
},
{
place = (183,50);
type = Stem;
},
{
place = (305,109);
type = Stem;
},
{
horizontal = 1;
place = (-85,152);
type = Stem;
}
);
layerId = "557EE530-0CBB-424E-A9B3-D753BCA21EE9";
name = "13. Jan. 24, 13:58";
shapes = (
{
closed = 1;
nodes = (
(243,647,l),
(243,737,l),
(183,737,l),
(183,647,l)
);
},
{
ref = S;
},
{
closed = 1;
nodes = (
(183,21,l),
(183,-70,l),
(243,-70,l),
(243,21,l)
);
}
);
width = 456;
},
{
associatedMasterId = m006;
attr = {
axisRules = (
{
min = 500;
},
{
}
);
};
layerId = "6332984C-E030-4FCF-9E11-66CE17FB7428";
name = "13. Jan. 24, 13:58";
shapes = (
{
closed = 1;
nodes = (
(293,627,l),
(293,737,l),
(203,737,l),
(203,627,l)
);
},
{
ref = S;
},
{
closed = 1;
nodes = (
(203,38,l),
(203,-70,l),
(293,-70,l),
(293,38,l)
);
}
);
width = 520;
},
{
layerId = m007;
shapes = (
{
closed = 1;
nodes = (
(238,-70,l),
(238,737,l),
(188,737,l),
(188,-70,l)
);
},
{
ref = S;
}
);
width = 440;
},
{
associatedMasterId = m007;
attr = {
axisRules = (
{
min = 500;
},
{
}
);
};
layerId = "7BF0DF16-5E76-4501-BAA6-65CBECFB9C4B";
name = "13. Jan. 24, 13:57";
shapes = (
{
closed = 1;
nodes = (
(238,659,l),
(238,737,l),
(188,737,l),
(188,659,l)
);
},
{
ref = S;
},
{
closed = 1;
nodes = (
(188,2,l),
(188,-70,l),
(238,-70,l),
(238,2,l)
);
}
);
width = 440;
},
{
hints = (
{
horizontal = 1;
place = (-10,77);
type = Stem;
},
{
horizontal = 1;
place = (538,142);
type = Stem;
},
{
place = (35,90);
type = Stem;
},
{
place = (183,50);
type = Stem;
},
{
place = (305,109);
type = Stem;
},
{
horizontal = 1;
place = (-85,152);
type = Stem;
}
);
layerId = m008;
shapes = (
{
closed = 1;
nodes = (
(243,-70,l),
(243,737,l),
(183,737,l),
(183,-70,l)
);
},
{
ref = S;
}
);
width = 456;
},
{
associatedMasterId = m008;
attr = {
axisRules = (
{
min = 500;
},
{
}
);
};
hints = (
{
horizontal = 1;
place = (-10,77);
type = Stem;
},
{
horizontal = 1;
place = (538,142);
type = Stem;
},
{
place = (35,90);
type = Stem;
},
{
place = (183,50);
type = Stem;
},
{
place = (305,109);
type = Stem;
},
{
horizontal = 1;
place = (-85,152);
type = Stem;
}
);
layerId = "F9F2A47B-9E59-4AF4-9A4D-0B3408B88D53";
name = "13. Jan. 24, 13:58";
shapes = (
{
closed = 1;
nodes = (
(243,647,l),
(243,737,l),
(183,737,l),
(183,647,l)
);
},
{
ref = S;
},
{
closed = 1;
nodes = (
(183,21,l),
(183,-70,l),
(243,-70,l),
(243,21,l)
);
}
);
width = 456;
},
{
layerId = m009;
shapes = (
{
closed = 1;
nodes = (
(293,-70,l),
(293,737,l),
(203,737,l),
(203,-70,l)
);
},
{
ref = S;
}
);
width = 520;
},
{
associatedMasterId = m009;
attr = {
axisRules = (
{
min = 500;
},
{
}
);
};
layerId = "DEB975DE-9A18-4CCF-9F60-2F4BEC9E567A";
name = "13. Jan. 24, 13:58";
shapes = (
{
closed = 1;
nodes = (
(293,627,l),
(293,737,l),
(203,737,l),
(203,627,l)
);
},
{
ref = S;
},
{
closed = 1;
nodes = (
(203,38,l),
(203,-70,l),
(293,-70,l),
(293,38,l)
);
}
);
width = 520;
}
);
note = dollar;
unicode = 36;
}
{
glyphname = asterisk;
layers = (
{
layerId = m004;
shapes = (
{
closed = 1;
nodes = (
(228,325,o),
(273,325,o),
(273,350,c),
(263,467,o),
(263,583,o),
(273,700,c),
(273,725,o),
(228,725,o),
(228,700,c),
(238,583,o),
(238,467,o),
(228,350,c)
);
},
{
closed = 1;
nodes = (
(66,444,o),
(89,406,o),
(110,418,c),
(207,485,o),
(307,543,o),
(413,593,c),
(435,606,o),
(412,644,o),
(391,632,c),
(294,565,o),
(194,507,o),
(88,457,c)
);
},
{
closed = 1;
nodes = (
(89,644,o),
(66,606,o),
(88,593,c),
(194,543,o),
(294,485,o),
(391,418,c),
(412,406,o),
(435,444,o),
(413,457,c),
(307,507,o),
(207,565,o),
(110,632,c)
);
}
);
width = 500;
},
{
hints = (
{
horizontal = 1;
place = (350,400);
type = Stem;
},
{
place = (239,65);
type = Stem;
}
);
layerId = m005;
shapes = (
{
closed = 1;
nodes = (
(212,325,o),
(288,325,o),
(285,350,cs),
(270,467,o),
(270,583,o),
(285,700,cs),
(288,725,o),
(212,725,o),
(215,700,cs),
(230,583,o),
(230,467,o),
(215,350,cs)
);
},
{
closed = 1;
nodes = (
(58,458,o),
(96,392,o),
(116,407,cs),
(210,479,o),
(310,537,o),
(419,582,cs),
(442,592,o),
(404,658,o),
(384,643,cs),
(290,571,o),
(190,513,o),
(81,468,cs)
);
},
{
closed = 1;
nodes = (
(96,658,o),
(58,592,o),
(81,582,cs),
(190,537,o),
(290,479,o),
(384,407,cs),
(404,392,o),
(442,458,o),
(419,468,cs),
(310,513,o),
(210,571,o),
(116,643,cs)
);
}
);
width = 500;
},
{
layerId = m006;
shapes = (
{
closed = 1;
nodes = (
(193,301,o),
(308,301,o),
(298,350,cs),
(273,467,o),
(273,583,o),
(298,700,cs),
(308,749,o),
(193,749,o),
(203,700,cs),
(228,583,o),
(228,467,o),
(203,350,cs)
);
},
{
closed = 1;
nodes = (
(28,463,o),
(85,363,o),
(123,396,cs),
(212,477,o),
(312,535,o),
(426,571,cs),
(473,587,o),
(416,687,o),
(378,654,cs),
(289,573,o),
(189,515,o),
(75,479,cs)
);
},
{
closed = 1;
nodes = (
(85,687,o),
(28,587,o),
(75,571,cs),
(189,535,o),
(289,477,o),
(378,396,cs),
(416,363,o),
(473,463,o),
(426,479,cs),
(312,515,o),
(212,573,o),
(123,654,cs)
);
}
);
width = 500;
},
{
layerId = m007;
shapes = (
{
closed = 1;
nodes = (
(238,325,o),
(263,325,o),
(263,350,c),
(263,467,o),
(263,583,o),
(263,700,c),
(263,725,o),
(238,725,o),
(238,700,c),
(238,583,o),
(238,467,o),
(238,350,c)
);
},
{
closed = 1;
nodes = (
(417,414,o),
(430,436,o),
(408,448,c),
(307,507,o),
(207,565,o),
(105,623,c),
(84,636,o),
(71,614,o),
(93,602,c),
(194,543,o),
(294,485,o),
(396,427,c)
);
},
{
closed = 1;
nodes = (
(430,614,o),
(417,636,o),
(396,623,c),
(294,565,o),
(194,507,o),
(93,448,c),
(71,436,o),
(84,414,o),
(105,427,c),
(207,485,o),
(307,543,o),
(408,602,c)
);
}
);
width = 500;
},
{
hints = (
{
horizontal = 1;
place = (350,400);
type = Stem;
},
{
place = (239,65);
type = Stem;
}
);
layerId = m008;
shapes = (
{
closed = 1;
nodes = (
(222,325,o),
(278,325,o),
(275,350,cs),
(260,467,o),
(260,583,o),
(275,700,cs),
(278,725,o),
(222,725,o),
(225,700,cs),
(240,583,o),
(240,467,o),
(225,350,cs)
);
},
{
closed = 1;
nodes = (
(409,401,o),
(437,449,o),
(414,459,cs),
(305,505,o),
(205,563,o),
(111,634,cs),
(91,649,o),
(63,601,o),
(86,591,cs),
(195,545,o),
(295,487,o),
(389,416,cs)
);
},
{
closed = 1;
nodes = (
(437,601,o),
(409,649,o),
(389,634,cs),
(295,563,o),
(195,505,o),
(86,459,cs),
(63,449,o),
(91,401,o),
(111,416,cs),
(205,487,o),
(305,545,o),
(414,591,cs)
);
}
);
width = 500;
},
{
layerId = m009;
shapes = (
{
closed = 1;
nodes = (
(203,301,o),
(298,301,o),
(288,350,cs),
(263,467,o),
(263,583,o),
(288,700,cs),
(298,749,o),
(203,749,o),
(213,700,cs),
(238,583,o),
(238,467,o),
(213,350,cs)
);
},
{
closed = 1;
nodes = (
(421,372,o),
(468,454,o),
(421,470,cs),
(307,507,o),
(207,565,o),
(118,645,cs),
(80,678,o),
(33,596,o),
(80,580,cs),
(194,543,o),
(294,485,o),
(383,405,cs)
);
},
{
closed = 1;
nodes = (
(468,596,o),
(421,678,o),
(383,645,cs),
(294,565,o),
(194,507,o),
(80,470,cs),
(33,454,o),
(80,372,o),
(118,405,cs),
(207,485,o),
(307,543,o),
(421,580,cs)
);
}
);
width = 500;
}
);
note = asterisk;
unicode = 42;
}
{
glyphname = plus;
layers = (
{
layerId = m004;
shapes = (
{
closed = 1;
nodes = (
(275,275,l),
(100,275,l),
(100,225,l),
(275,225,l),
(275,50,l),
(325,50,l),
(325,225,l),
(500,225,l),
(500,275,l),
(325,275,l),
(325,450,l),
(275,450,l)
);
}
);
width = 600;
},
{
hints = (
{
horizontal = 1;
place = (218,65);
type = Stem;
},
{
place = (248,65);
type = Stem;
}
);
layerId = m005;
shapes = (
{
closed = 1;
nodes = (
(270,280,l),
(100,280,l),
(100,220,l),
(270,220,l),
(270,50,l),
(330,50,l),
(330,220,l),
(500,220,l),
(500,280,l),
(330,280,l),
(330,450,l),
(270,450,l)
);
}
);
width = 600;
},
{
layerId = m006;
shapes = (
{
closed = 1;
nodes = (
(256,296,l),
(100,296,l),
(100,206,l),
(256,206,l),
(256,50,l),
(346,50,l),
(346,206,l),
(500,206,l),
(500,296,l),
(346,296,l),
(346,450,l),
(256,450,l)
);
}
);
width = 600;
},
{
layerId = m007;
shapes = (
{
closed = 1;
nodes = (
(281,269,l),
(100,269,l),
(100,231,l),
(281,231,l),
(281,50,l),
(319,50,l),
(319,231,l),
(500,231,l),
(500,269,l),
(319,269,l),
(319,450,l),
(281,450,l)
);
}
);
width = 600;
},
{
hints = (
{
horizontal = 1;
place = (218,65);
type = Stem;
},
{
place = (248,65);
type = Stem;
}
);
layerId = m008;
shapes = (
{
closed = 1;
nodes = (
(278,272,l),
(100,272,l),
(100,228,l),
(278,228,l),
(278,50,l),
(322,50,l),
(322,228,l),
(500,228,l),
(500,272,l),
(322,272,l),
(322,450,l),
(278,450,l)
);
}
);
width = 560;
},
{
layerId = m009;
shapes = (
{
closed = 1;
nodes = (
(271,281,l),
(100,281,l),
(100,221,l),
(271,221,l),
(271,50,l),
(331,50,l),
(331,221,l),
(500,221,l),
(500,281,l),
(331,281,l),
(331,450,l),
(271,450,l)
);
}
);
width = 600;
}
);
note = plus;
unicode = 43;
}
{
glyphname = hyphen;
kernRight = hyphen;
layers = (
{
layerId = m004;
shapes = (
{
closed = 1;
nodes = (
(361,280,l),
(61,280,l),
(61,230,l),
(361,230,l)
);
}
);
width = 420;
},
{
hints = (
{
horizontal = 1;
place = (-75,64);
type = Stem;
},
{
place = (80,400);
type = Stem;
}
);
layerId = m005;
shapes = (
{
closed = 1;
nodes = (
(350,285,l),
(50,285,l),
(50,225,l),
(350,225,l)
);
}
);
width = 400;
},
{
layerId = m006;
shapes = (
{
closed = 1;
nodes = (
(315,300,l),
(15,300,l),
(15,210,l),
(315,210,l)
);
}
);
width = 330;
},
{
layerId = m007;
shapes = (
{
closed = 1;
nodes = (
(361,274,l),
(61,274,l),
(61,236,l),
(361,236,l)
);
}
);
width = 421;
},
{
hints = (
{
horizontal = 1;
place = (-75,64);
type = Stem;
},
{
place = (80,400);
type = Stem;
}
);
layerId = m008;
shapes = (
{
closed = 1;
nodes = (
(350,277,l),
(50,277,l),
(50,233,l),
(350,233,l)
);
}
);
width = 400;
},
{
layerId = m009;
shapes = (
{
closed = 1;
nodes = (
(340,285,l),
(40,285,l),
(40,225,l),
(340,225,l)
);
}
);
width = 380;
}
);
metricLeft = "=period";
metricRight = "=period";
note = underscore;
unicode = 45;
}
{
glyphname = period;
kernLeft = period;
layers = (
{
layerId = m004;
shapes = (
{
closed = 1;
nodes = (
(137,-10,o),
(161,11,o),
(161,39,cs),
(161,67,o),
(137,90,o),
(110,90,cs),
(82,90,o),
(61,67,o),
(61,39,cs),
(61,11,o),
(82,-10,o),
(110,-10,cs)
);
}
);
width = 220;
},
{
hints = (
{
horizontal = 1;
place = (-5,120);
type = Stem;
},
{
place = (45,121);
type = Stem;
}
);
layerId = m005;
shapes = (
{
closed = 1;
nodes = (
(143,-10,o),
(170,16,o),
(170,50,cs),
(170,83,o),
(143,110,o),
(110,110,cs),
(76,110,o),
(50,83,o),
(50,50,cs),
(50,16,o),
(76,-10,o),
(110,-10,cs)
);
}
);
width = 220;
},
{
layerId = m006;
shapes = (
{
closed = 1;
nodes = (
(187,-10,o),
(235,34,o),
(235,90,cs),
(235,146,o),
(187,190,o),
(125,190,cs),
(63,190,o),
(15,146,o),
(15,90,cs),
(15,34,o),
(63,-10,o),
(125,-10,cs)
);
}
);
width = 250;
},
{
layerId = m007;
shapes = (
{
closed = 1;
nodes = (
(137,-10,o),
(161,11,o),
(161,39,cs),
(161,67,o),
(137,90,o),
(110,90,cs),
(82,90,o),
(61,67,o),
(61,39,cs),
(61,11,o),
(82,-10,o),
(110,-10,cs)
);
}
);
width = 221;
},
{
layerId = m008;
shapes = (
{
closed = 1;
nodes = (
(143,-10,o),
(170,16,o),
(170,50,cs),
(170,83,o),
(143,110,o),
(110,110,cs),
(76,110,o),
(50,83,o),
(50,50,cs),
(50,16,o),
(76,-10,o),
(110,-10,cs)
);
}
);
width = 220;
},
{
layerId = m009;
shapes = (
{
closed = 1;
nodes = (
(173,-10,o),
(210,24,o),
(210,67,cs),
(210,111,o),
(173,145,o),
(125,145,cs),
(77,145,o),
(40,111,o),
(40,67,cs),
(40,24,o),
(77,-10,o),
(125,-10,cs)
);
}
);
width = 250;
}
);
note = period;
unicode = 46;
}
{
glyphname = zero;
layers = (
{
layerId = m004;
shapes = (
{
closed = 1;
nodes = (
(488,300,cs),
(488,479,o),
(407,610,o),
(260,610,cs),
(113,610,o),
(33,479,o),
(33,300,cs),
(33,109,o),
(106,-10,o),
(260,-10,cs),
(414,-10,o),
(488,109,o)
);
},
{
closed = 1;
nodes = (
(108,300,cs),
(108,457,o),
(155,560,o),
(260,560,cs),
(365,560,o),
(413,457,o),
(413,300,cs),
(413,143,o),
(365,40,o),
(260,40,cs),
(155,40,o),
(108,143,o)
);
}
);
width = 521;
},
{
hints = (
{
horizontal = 1;
place = (15,105);
type = Stem;
},
{
horizontal = 1;
place = (622,105);
type = Stem;
},
{
place = (60,135);
type = Stem;
},
{
place = (450,135);
type = Stem;
}
);
layerId = m005;
shapes = (
{
closed = 1;
nodes = (
(550,300,cs),
(550,480,o),
(464,610,o),
(310,610,cs),
(156,610,o),
(70,480,o),
(70,300,cs),
(70,110,o),
(147,-10,o),
(310,-10,cs),
(473,-10,o),
(550,110,o)
);
},
{
closed = 1;
nodes = (
(170,300,cs),
(170,446,o),
(215,550,o),
(310,550,cs),
(405,550,o),
(450,446,o),
(450,300,cs),
(450,154,o),
(405,50,o),
(310,50,cs),
(215,50,o),
(170,154,o)
);
}
);
width = 620;
},
{
layerId = m006;
shapes = (
{
closed = 1;
nodes = (
(610,300,cs),
(610,504,o),
(507,610,o),
(310,610,cs),
(113,610,o),
(10,504,o),
(10,300,cs),
(10,96,o),
(113,-10,o),
(310,-10,cs),
(507,-10,o),
(610,96,o)
);
},
{
closed = 1;
nodes = (
(220,300,cs),
(220,450,o),
(246,520,o),
(310,520,cs),
(374,520,o),
(400,450,o),
(400,300,cs),
(400,150,o),
(374,90,o),
(310,90,cs),
(246,90,o),
(220,150,o)
);
}
);
width = 620;
},
{
layerId = m007;
shapes = (
{
closed = 1;
nodes = (
(488,300,cs),
(488,479,o),
(407,610,o),
(260,610,cs),
(113,610,o),
(33,479,o),
(33,300,cs),
(33,109,o),
(106,-10,o),
(260,-10,cs),
(414,-10,o),
(488,109,o)
);
},
{
closed = 1;
nodes = (
(108,300,cs),
(108,469,o),
(155,572,o),
(260,572,cs),
(365,572,o),
(413,469,o),
(413,300,cs),
(413,131,o),
(365,28,o),
(260,28,cs),
(155,28,o),
(108,131,o)
);
}
);
width = 521;
},
{
hints = (
{
horizontal = 1;
place = (15,105);
type = Stem;
},
{
horizontal = 1;
place = (622,105);
type = Stem;
},
{
place = (60,135);
type = Stem;
},
{
place = (450,135);
type = Stem;
}
);
layerId = m008;
shapes = (
{
closed = 1;
nodes = (
(550,300,cs),
(550,480,o),
(464,610,o),
(310,610,cs),
(156,610,o),
(70,480,o),
(70,300,cs),
(70,110,o),
(147,-10,o),
(310,-10,cs),
(473,-10,o),
(550,110,o)
);
},
{
closed = 1;
nodes = (
(170,300,cs),
(170,462,o),
(215,566,o),
(310,566,cs),
(405,566,o),
(450,462,o),
(450,300,cs),
(450,138,o),
(405,34,o),
(310,34,cs),
(215,34,o),
(170,138,o)
);
}
);
width = 620;
},
{
layerId = m009;
shapes = (
{
closed = 1;
nodes = (
(610,300,cs),
(610,504,o),
(507,610,o),
(310,610,cs),
(113,610,o),
(10,504,o),
(10,300,cs),
(10,96,o),
(113,-10,o),
(310,-10,cs),
(507,-10,o),
(610,96,o)
);
},
{
closed = 1;
nodes = (
(220,300,cs),
(220,480,o),
(246,550,o),
(310,550,cs),
(374,550,o),
(400,480,o),
(400,300,cs),
(400,120,o),
(374,60,o),
(310,60,cs),
(246,60,o),
(220,120,o)
);
}
);
width = 620;
}
);
note = O;
unicode = 48;
}
{
glyphname = one;
layers = (
{
layerId = m004;
shapes = (
{
closed = 1;
nodes = (
(158,0,l),
(233,0,l),
(233,590,ls),
(233,612,o),
(230,614,o),
(223,610,c),
(157,560,o),
(92,530,o),
(22,522,c),
(32,477,ls),
(45,421,o),
(121,498,o),
(157,512,c)
);
},
{
pos = (158,0);
ref = _serif.H;
},
{
pos = (233,0);
ref = _serif.H;
scale = (-1,1);
}
);
width = 345;
},
{
hints = (
{
horizontal = 1;
place = (25,95);
type = Stem;
},
{
place = (202,132);
type = Stem;
}
);
layerId = m005;
shapes = (
{
closed = 1;
nodes = (
(150,0,l),
(250,0,l),
(250,590,ls),
(250,608,o),
(236,621,o),
(221,610,cs),
(146,554,o),
(83,526,o),
(15,521,c),
(25,477,ls),
(36,428,o),
(113,487,o),
(150,506,c)
);
},
{
pos = (150,0);
ref = _serif.H;
},
{
pos = (250,0);
ref = _serif.H;
scale = (-1,1);
}
);
width = 349;
},
{
layerId = m006;
shapes = (
{
closed = 1;
nodes = (
(135,0,l),
(335,0,l),
(335,566,ls),
(335,601,o),
(311,627,o),
(279,610,cs),
(176,557,o),
(90,530,o),
(0,528,c),
(10,453,ls),
(20,379,o),
(88,448,o),
(135,470,c)
);
},
{
pos = (135,0);
ref = _serif.H;
},
{
pos = (335,0);
ref = _serif.H;
scale = (-1,1);
}
);
width = 404;
},
{
layerId = m007;
shapes = (
{
closed = 1;
nodes = (
(158,0,l),
(233,0,l),
(233,590,ls),
(233,612,o),
(230,614,o),
(223,610,c),
(157,560,o),
(92,530,o),
(22,522,c),
(32,489,ls),
(49,434,o),
(121,510,o),
(157,524,c)
);
},
{
pos = (158,0);
ref = _serif.H;
},
{
pos = (233,0);
ref = _serif.H;
scale = (-1,1);
}
);
width = 345;
},
{
hints = (
{
horizontal = 1;
place = (25,95);
type = Stem;
},
{
place = (202,132);
type = Stem;
}
);
layerId = m008;
shapes = (
{
closed = 1;
nodes = (
(150,0,l),
(250,0,l),
(250,590,ls),
(250,608,o),
(236,621,o),
(221,610,cs),
(146,554,o),
(83,526,o),
(15,521,c),
(25,493,ls),
(42,445,o),
(113,503,o),
(150,522,c)
);
},
{
pos = (150,0);
ref = _serif.H;
},
{
pos = (250,0);
ref = _serif.H;
scale = (-1,1);
}
);
width = 349;
},
{
layerId = m009;
shapes = (
{
closed = 1;
nodes = (
(135,0,l),
(335,0,l),
(335,566,ls),
(335,601,o),
(311,627,o),
(279,610,cs),
(176,557,o),
(90,530,o),
(0,528,c),
(10,483,ls),
(26,410,o),
(88,478,o),
(135,500,c)
);
},
{
pos = (135,0);
ref = _serif.H;
},
{
pos = (335,0);
ref = _serif.H;
scale = (-1,1);
}
);
width = 404;
}
);
metricLeft = "=H/2";
metricRight = "=H";
note = one;
unicode = 49;
}
{
glyphname = two;
layers = (
{
layerId = m004;
shapes = (
{
closed = 1;
nodes = (
(445,0,l),
(445,50,l),
(96,50,l),
(96,123,o),
(145,184,o),
(221,220,cs),
(292,254,o),
(446,309,o),
(446,430,cs),
(446,545,o),
(372,610,o),
(226,610,cs),
(170,610,o),
(100,599,o),
(25,560,c),
(24,535,o),
(35,487,o),
(44,487,cs),
(59,487,o),
(116,560,o),
(226,560,cs),
(289,560,o),
(371,538,o),
(371,430,cs),
(371,353,o),
(275,326,o),
(189,282,cs),
(107,241,o),
(21,153,o),
(21,0,c)
);
},
{
angle = 180;
pos = (446,500);
ref = _serif.Z;
}
);
width = 483;
},
{
hints = (
{
horizontal = 1;
place = (25,95);
type = Stem;
},
{
horizontal = 1;
place = (560,100);
type = Stem;
},
{
place = (39,143);
type = Stem;
},
{
place = (367,147);
type = Stem;
}
);
layerId = m005;
shapes = (
{
closed = 1;
nodes = (
(464,0,l),
(464,60,l),
(115,60,l),
(115,125,o),
(165,188,o),
(233,220,cs),
(308,256,o),
(465,314,o),
(465,430,cs),
(465,546,o),
(382,610,o),
(233,610,cs),
(160,610,o),
(83,591,o),
(19,557,c),
(19,532,o),
(26,487,o),
(51,487,cs),
(76,487,o),
(133,550,o),
(233,550,cs),
(294,550,o),
(365,526,o),
(365,430,cs),
(365,349,o),
(275,325,o),
(190,282,cs),
(101,237,o),
(15,150,o),
(15,0,c)
);
},
{
angle = 180;
pos = (464,667);
ref = _serif.Z;
}
);
width = 494;
},
{
layerId = m006;
shapes = (
{
closed = 1;
nodes = (
(549,0,l),
(549,90,l),
(200,90,l),
(200,198,o),
(249,203,o),
(289,219,cs),
(372,252,o),
(550,301,o),
(550,430,cs),
(550,559,o),
(449,630,o),
(268,630,cs),
(202,630,o),
(91,608,o),
(4,558,c),
(4,528,o),
(6,424,o),
(71,424,cs),
(137,424,o),
(168,540,o),
(268,540,cs),
(324,540,o),
(350,500,o),
(350,445,cs),
(350,376,o),
(287,357,o),
(202,317,cs),
(65,252,o),
(0,200,o),
(0,0,c)
);
},
{
angle = 180;
pos = (549,667);
ref = _serif.Z;
}
);
width = 564;
},
{
layerId = m007;
shapes = (
{
closed = 1;
nodes = (
(445,0,l),
(445,38,l),
(96,38,l),
(96,123,o),
(145,184,o),
(221,220,cs),
(292,254,o),
(446,309,o),
(446,430,cs),
(446,545,o),
(372,610,o),
(226,610,cs),
(170,610,o),
(100,599,o),
(25,560,c),
(24,535,o),
(35,487,o),
(44,487,cs),
(59,487,o),
(116,572,o),
(226,572,cs),
(289,572,o),
(371,550,o),
(371,442,cs),
(371,353,o),
(275,326,o),
(189,282,cs),
(107,241,o),
(21,153,o),
(21,0,c)
);
},
{
angle = 180;
pos = (446,667);
ref = _serif.Z;
}
);
width = 483;
},
{
hints = (
{
horizontal = 1;
place = (25,95);
type = Stem;
},
{
horizontal = 1;
place = (560,100);
type = Stem;
},
{
place = (39,143);
type = Stem;
},
{
place = (367,147);
type = Stem;
}
);
layerId = m008;
shapes = (
{
closed = 1;
nodes = (
(464,0,l),
(464,44,l),
(115,44,l),
(115,125,o),
(165,188,o),
(233,220,cs),
(308,256,o),
(465,314,o),
(465,430,cs),
(465,546,o),
(382,610,o),
(233,610,cs),
(160,610,o),
(83,591,o),
(19,557,c),
(19,532,o),
(26,487,o),
(51,487,cs),
(76,487,o),
(133,566,o),
(233,566,cs),
(294,566,o),
(365,542,o),
(365,446,cs),
(365,349,o),
(275,325,o),
(190,282,cs),
(101,237,o),
(15,150,o),
(15,0,c)
);
},
{
angle = 180;
pos = (465,667);
ref = _serif.Z;
}
);
width = 495;
},
{
layerId = m009;
shapes = (
{
closed = 1;
nodes = (
(549,0,l),
(549,60,l),
(200,60,l),
(200,168,o),
(249,203,o),
(289,219,cs),
(372,252,o),
(550,301,o),
(550,430,cs),
(550,559,o),
(449,630,o),
(268,630,cs),
(202,630,o),
(91,608,o),
(4,558,c),
(4,528,o),
(6,424,o),
(71,424,cs),
(137,424,o),
(168,570,o),
(268,570,cs),
(324,570,o),
(350,530,o),
(350,460,cs),
(350,376,o),
(287,357,o),
(202,317,cs),
(65,252,o),
(0,200,o),
(0,0,c)
);
},
{
angle = 180;
pos = (549,667);
ref = _serif.Z;
}
);
width = 564;
}
);
metricLeft = "=H/2";
metricRight = "=Z";
note = two;
unicode = 50;
}
{
glyphname = three;
layers = (
{
layerId = m004;
shapes = (
{
closed = 1;
nodes = (
(345,-77,o),
(430,13,o),
(430,146,cs),
(430,278,o),
(349,367,o),
(202,334,c),
(385,539,ls),
(403,558,o),
(409,600,o),
(368,600,cs),
(44,600,l),
(44,550,l),
(325,550,l),
(138,335,ls),
(125,320,o),
(105,302,o),
(105,285,cs),
(105,265,l),
(130,271,o),
(163,277,o),
(190,279,cs),
(292,286,o),
(355,254,o),
(355,146,cs),
(355,36,o),
(303,-27,o),
(206,-27,cs),
(101,-27,o),
(62,78,o),
(37,78,cs),
(17,78,o),
(16,33,o),
(17,-43,c),
(76,-68,o),
(143,-77,o),
(206,-77,cs)
);
},
{
pos = (43,100);
ref = _serif.Z;
}
);
width = 463;
},
{
hints = (
{
horizontal = 1;
place = (-53,95);
type = Stem;
},
{
horizontal = 1;
place = (307,89);
type = Stem;
},
{
horizontal = 1;
place = (556,94);
type = Stem;
},
{
place = (365,141);
type = Stem;
}
);
layerId = m005;
shapes = (
{
closed = 1;
nodes = (
(355,-77,o),
(448,11,o),
(448,146,cs),
(448,279,o),
(358,362,o),
(220,337,c),
(400,539,ls),
(431,571,o),
(418,600,o),
(374,600,cs),
(37,600,l),
(37,540,l),
(313,540,l),
(135,335,ls),
(118,315,o),
(98,298,o),
(98,273,cs),
(98,249,l),
(127,257,o),
(166,265,o),
(197,267,cs),
(294,274,o),
(348,242,o),
(348,146,cs),
(348,35,o),
(299,-27,o),
(212,-27,cs),
(127,-27,o),
(76,78,o),
(43,78,cs),
(10,78,o),
(10,35,o),
(10,-40,c),
(66,-65,o),
(140,-77,o),
(212,-77,cs)
);
},
{
pos = (36,-67);
ref = _serif.Z;
}
);
width = 468;
},
{
layerId = m006;
shapes = (
{
closed = 1;
nodes = (
(430,-77,o),
(544,16,o),
(544,159,cs),
(544,274,o),
(462,355,o),
(326,341,c),
(482,497,ls),
(544,559,o),
(518,600,o),
(420,600,cs),
(33,600,l),
(33,510,l),
(324,510,l),
(131,326,ls),
(104,301,o),
(94,280,o),
(94,248,cs),
(94,236,l),
(150,255,o),
(209,267,o),
(246,267,cs),
(309,267,o),
(344,237,o),
(344,159,cs),
(344,42,o),
(308,-2,o),
(228,-2,cs),
(150,-2,o),
(123,100,o),
(61,100,cs),
(18,100,o),
(5,22,o),
(5,-17,c),
(64,-53,o),
(162,-77,o),
(253,-77,cs)
);
},
{
pos = (32,-67);
ref = _serif.Z;
}
);
width = 554;
},
{
layerId = m007;
shapes = (
{
closed = 1;
nodes = (
(345,-77,o),
(430,13,o),
(430,146,cs),
(430,278,o),
(349,367,o),
(202,334,c),
(385,539,ls),
(403,558,o),
(409,600,o),
(368,600,cs),
(44,600,l),
(44,562,l),
(342,562,l),
(138,335,ls),
(124,320,o),
(105,302,o),
(105,285,cs),
(105,265,l),
(130,271,o),
(163,277,o),
(190,279,cs),
(292,286,o),
(355,254,o),
(355,146,cs),
(355,24,o),
(303,-39,o),
(206,-39,cs),
(101,-39,o),
(57,78,o),
(37,78,cs),
(18,78,o),
(16,33,o),
(17,-43,c),
(76,-68,o),
(143,-77,o),
(206,-77,cs)
);
},
{
pos = (43,-67);
ref = _serif.Z;
}
);
width = 463;
},
{
hints = (
{
horizontal = 1;
place = (-53,95);
type = Stem;
},
{
horizontal = 1;
place = (307,89);
type = Stem;
},
{
horizontal = 1;
place = (556,94);
type = Stem;
},
{
place = (365,141);
type = Stem;
}
);
layerId = m008;
shapes = (
{
closed = 1;
nodes = (
(355,-77,o),
(448,11,o),
(448,146,cs),
(448,279,o),
(358,362,o),
(220,337,c),
(400,539,ls),
(431,571,o),
(418,600,o),
(374,600,cs),
(37,600,l),
(37,556,l),
(338,556,l),
(135,335,ls),
(116,315,o),
(98,298,o),
(98,273,cs),
(98,249,l),
(127,257,o),
(166,265,o),
(197,267,cs),
(294,274,o),
(348,242,o),
(348,146,cs),
(348,29,o),
(299,-33,o),
(212,-33,cs),
(117,-33,o),
(76,78,o),
(43,78,cs),
(10,78,o),
(10,35,o),
(10,-40,c),
(66,-65,o),
(140,-77,o),
(212,-77,cs)
);
},
{
pos = (36,-67);
ref = _serif.Z;
}
);
width = 468;
},
{
layerId = m009;
shapes = (
{
closed = 1;
nodes = (
(430,-77,o),
(544,16,o),
(544,159,cs),
(544,274,o),
(462,355,o),
(326,341,c),
(482,497,ls),
(544,559,o),
(518,600,o),
(420,600,cs),
(33,600,l),
(33,540,l),
(339,540,l),
(131,326,ls),
(105,299,o),
(94,280,o),
(94,248,cs),
(94,236,l),
(150,255,o),
(209,267,o),
(246,267,cs),
(309,267,o),
(344,237,o),
(344,159,cs),
(344,27,o),
(308,-17,o),
(228,-17,cs),
(150,-17,o),
(123,100,o),
(61,100,cs),
(18,100,o),
(5,22,o),
(5,-17,c),
(64,-53,o),
(162,-77,o),
(253,-77,cs)
);
},
{
pos = (32,-67);
ref = _serif.Z;
}
);
width = 554;
}
);
metricLeft = "=T";
metricRight = "=S";
note = three;
unicode = 51;
}
{
glyphname = four;
layers = (
{
layerId = m004;
shapes = (
{
closed = 1;
nodes = (
(410,-67,l),
(410,108,l),
(497,108,l),
(497,158,l),
(410,158,l),
(410,600,l),
(355,600,l),
(217,480,o),
(91,328,o),
(32,189,cs),
(24,171,o),
(20,152,o),
(20,128,cs),
(20,108,l),
(335,108,l),
(335,-67,l)
);
},
{
closed = 1;
nodes = (
(144,292,o),
(247,414,o),
(334,503,c),
(335,158,l),
(105,158,l)
);
}
);
width = 519;
},
{
hints = (
{
horizontal = 1;
place = (135,95);
type = Stem;
},
{
place = (340,127);
type = Stem;
}
);
layerId = m005;
shapes = (
{
closed = 1;
nodes = (
(423,-67,l),
(423,103,l),
(510,103,l),
(510,163,l),
(423,163,l),
(423,600,l),
(348,600,l),
(201,472,o),
(76,319,o),
(22,189,cs),
(13,167,o),
(8,151,o),
(8,128,cs),
(8,103,l),
(323,103,l),
(323,-67,l)
);
},
{
closed = 1;
nodes = (
(155,292,o),
(246,400,o),
(323,481,c),
(323,163,l),
(118,163,l)
);
}
);
width = 525;
},
{
layerId = m006;
shapes = (
{
closed = 1;
nodes = (
(535,-67,l),
(535,85,l),
(622,85,l),
(622,175,l),
(535,175,l),
(535,600,l),
(384,600,l),
(220,483,o),
(102,327,o),
(39,200,cs),
(24,170,o),
(20,156,o),
(20,128,cs),
(20,85,l),
(335,85,l),
(335,-67,l)
);
},
{
closed = 1;
nodes = (
(244,254,o),
(285,329,o),
(335,385,c),
(335,175,l),
(220,175,l)
);
}
);
width = 622;
},
{
layerId = m007;
shapes = (
{
closed = 1;
nodes = (
(410,-67,l),
(410,114,l),
(497,114,l),
(497,152,l),
(410,152,l),
(410,600,l),
(355,600,l),
(217,480,o),
(91,328,o),
(32,189,cs),
(24,171,o),
(20,152,o),
(20,128,cs),
(20,114,l),
(335,114,l),
(335,-67,l)
);
},
{
closed = 1;
nodes = (
(144,286,o),
(247,414,o),
(334,503,c),
(335,152,l),
(105,152,l)
);
}
);
width = 519;
},
{
hints = (
{
horizontal = 1;
place = (135,95);
type = Stem;
},
{
place = (340,127);
type = Stem;
}
);
layerId = m008;
shapes = (
{
closed = 1;
nodes = (
(423,-67,l),
(423,111,l),
(510,111,l),
(510,155,l),
(423,155,l),
(423,600,l),
(348,600,l),
(201,472,o),
(76,319,o),
(22,189,cs),
(13,167,o),
(8,151,o),
(8,128,cs),
(8,111,l),
(323,111,l),
(323,-67,l)
);
},
{
closed = 1;
nodes = (
(155,284,o),
(246,400,o),
(323,481,c),
(323,155,l),
(118,155,l)
);
}
);
width = 525;
},
{
layerId = m009;
shapes = (
{
closed = 1;
nodes = (
(535,-67,l),
(535,108,l),
(622,108,l),
(622,168,l),
(535,168,l),
(535,600,l),
(384,600,l),
(220,483,o),
(102,327,o),
(39,200,cs),
(24,170,o),
(20,156,o),
(20,128,cs),
(20,108,l),
(335,108,l),
(335,-67,l)
);
},
{
closed = 1;
nodes = (
(244,247,o),
(285,329,o),
(335,385,c),
(335,168,l),
(220,168,l)
);
}
);
width = 622;
}
);
metricLeft = "=A";
metricRight = "=F";
note = four;
unicode = 52;
}
{
glyphname = five;
layers = (
{
layerId = m004;
shapes = (
{
closed = 1;
nodes = (
(362,-77,o),
(447,13,o),
(447,146,cs),
(447,275,o),
(357,358,o),
(213,358,cs),
(181,358,o),
(151,355,o),
(120,351,c),
(120,550,l),
(402,550,l),
(402,600,l),
(45,600,l),
(45,289,l),
(91,300,o),
(151,308,o),
(213,308,cs),
(303,308,o),
(372,262,o),
(372,146,cs),
(372,36,o),
(320,-27,o),
(223,-27,cs),
(118,-27,o),
(79,78,o),
(54,78,cs),
(33,78,o),
(33,34,o),
(33,-42,c),
(93,-68,o),
(157,-77,o),
(223,-77,cs)
);
},
{
pos = (402,100);
ref = _serif.Z;
scale = (-1,1);
}
);
width = 480;
},
{
hints = (
{
horizontal = 1;
place = (-53,95);
type = Stem;
},
{
horizontal = 1;
place = (322,97);
type = Stem;
},
{
horizontal = 1;
place = (555,95);
type = Stem;
},
{
place = (54,122);
type = Stem;
},
{
place = (365,141);
type = Stem;
}
);
layerId = m005;
shapes = (
{
closed = 1;
nodes = (
(365,-77,o),
(458,11,o),
(458,146,cs),
(458,275,o),
(361,358,o),
(212,358,cs),
(184,358,o),
(157,356,o),
(131,353,c),
(131,540,l),
(413,540,l),
(413,600,l),
(31,600,l),
(31,275,l),
(80,288,o),
(145,298,o),
(212,298,cs),
(306,298,o),
(358,240,o),
(358,146,cs),
(358,35,o),
(309,-27,o),
(222,-27,cs),
(127,-27,o),
(86,78,o),
(53,78,c),
(20,78,o),
(20,36,o),
(20,-39,c),
(75,-64,o),
(147,-77,o),
(222,-77,cs)
);
},
{
pos = (414,-67);
ref = _serif.Z;
scale = (-1,1);
}
);
width = 478;
},
{
layerId = m006;
shapes = (
{
closed = 1;
nodes = (
(438,-77,o),
(550,14,o),
(550,157,cs),
(550,300,o),
(434,370,o),
(254,370,cs),
(244,370,o),
(233,370,o),
(223,369,c),
(223,510,l),
(505,510,l),
(505,600,l),
(23,600,l),
(23,253,l),
(91,278,o),
(167,295,o),
(239,295,cs),
(314,295,o),
(350,251,o),
(350,157,cs),
(350,55,o),
(310,-2,o),
(239,-2,cs),
(161,-2,o),
(129,97,o),
(67,97,cs),
(24,97,o),
(10,20,o),
(10,-19,c),
(69,-55,o),
(173,-77,o),
(264,-77,cs)
);
},
{
pos = (505,-67);
ref = _serif.Z;
scale = (-1,1);
}
);
width = 560;
},
{
layerId = m007;
shapes = (
{
closed = 1;
nodes = (
(362,-77,o),
(447,13,o),
(447,146,cs),
(447,275,o),
(357,358,o),
(213,358,cs),
(181,358,o),
(151,355,o),
(120,351,c),
(120,562,l),
(402,562,l),
(402,600,l),
(45,600,l),
(45,289,l),
(91,300,o),
(151,308,o),
(213,308,cs),
(303,308,o),
(372,262,o),
(372,146,cs),
(372,24,o),
(320,-39,o),
(223,-39,cs),
(118,-39,o),
(79,78,o),
(54,78,cs),
(29,78,o),
(33,34,o),
(33,-42,c),
(93,-68,o),
(157,-77,o),
(223,-77,cs)
);
},
{
pos = (402,-67);
ref = _serif.Z;
scale = (-1,1);
}
);
width = 480;
},
{
hints = (
{
horizontal = 1;
place = (-53,95);
type = Stem;
},
{
horizontal = 1;
place = (322,97);
type = Stem;
},
{
horizontal = 1;
place = (555,95);
type = Stem;
},
{
place = (54,122);
type = Stem;
},
{
place = (365,141);
type = Stem;
}
);
layerId = m008;
shapes = (
{
closed = 1;
nodes = (
(365,-77,o),
(458,11,o),
(458,146,cs),
(458,275,o),
(361,358,o),
(212,358,cs),
(184,358,o),
(157,356,o),
(131,353,c),
(131,556,l),
(413,556,l),
(413,600,l),
(31,600,l),
(31,282,l),
(80,295,o),
(145,305,o),
(212,305,cs),
(306,305,o),
(358,247,o),
(358,146,cs),
(358,29,o),
(309,-33,o),
(222,-33,cs),
(127,-33,o),
(86,78,o),
(53,78,c),
(20,78,o),
(20,36,o),
(20,-39,c),
(75,-64,o),
(147,-77,o),
(222,-77,cs)
);
},
{
pos = (413,-67);
ref = _serif.Z;
scale = (-1,1);
}
);
width = 478;
},
{
layerId = m009;
shapes = (
{
closed = 1;
nodes = (
(438,-77,o),
(550,14,o),
(550,157,cs),
(550,300,o),
(434,370,o),
(254,370,cs),
(244,370,o),
(233,370,o),
(223,369,c),
(223,540,l),
(505,540,l),
(505,600,l),
(23,600,l),
(23,253,l),
(91,278,o),
(167,295,o),
(239,295,cs),
(314,295,o),
(350,251,o),
(350,157,cs),
(350,30,o),
(310,-27,o),
(239,-27,cs),
(161,-27,o),
(129,97,o),
(67,97,cs),
(24,97,o),
(10,20,o),
(10,-19,c),
(69,-55,o),
(173,-77,o),
(264,-77,cs)
);
},
{
pos = (505,-67);
ref = _serif.Z;
scale = (-1,1);
}
);
width = 560;
}
);
metricLeft = "=O";
metricRight = "=S";
note = five;
unicode = 53;
}
{
glyphname = seven;
layers = (
{
layerId = m004;
shapes = (
{
closed = 1;
nodes = (
(182,-67,l),
(182,107,o),
(304,354,o),
(426,539,cs),
(436,554,o),
(433,600,o),
(424,600,cs),
(37,600,l),
(37,550,l),
(365,550,l),
(240,372,o),
(106,118,o),
(106,-67,c)
);
},
{
pos = (37,100);
ref = _serif.Z;
}
);
width = 454;
},
{
hints = (
{
horizontal = 1;
place = (25,21);
target = up;
type = BottomGhost;
},
{
horizontal = 1;
place = (550,100);
type = Stem;
},
{
place = (119,135);
type = Stem;
}
);
layerId = m005;
shapes = (
{
closed = 1;
nodes = (
(200,-67,l),
(200,183,o),
(442,539,o),
(442,539,cs),
(456,560,o),
(455,600,o),
(430,600,cs),
(30,600,l),
(30,540,l),
(361,540,l),
(361,540,o),
(100,191,o),
(100,-67,c)
);
},
{
pos = (30,-67);
ref = _serif.Z;
}
);
width = 466;
},
{
layerId = m006;
shapes = (
{
closed = 1;
nodes = (
(271,-67,l),
(271,110,o),
(387,307,o),
(504,485,cs),
(531,527,o),
(529,600,o),
(479,600,cs),
(15,600,l),
(15,510,l),
(340,510,l),
(198,322,o),
(71,132,o),
(71,-67,c)
);
},
{
pos = (15,-67);
ref = _serif.Z;
}
);
width = 521;
},
{
layerId = m007;
shapes = (
{
closed = 1;
nodes = (
(182,-67,l),
(182,107,o),
(304,365,o),
(426,550,cs),
(436,565,o),
(433,600,o),
(424,600,cs),
(37,600,l),
(37,561,l),
(365,561,l),
(240,383,o),
(106,118,o),
(106,-67,c)
);
},
{
pos = (37,-68);
ref = _serif.Z;
}
);
width = 454;
},
{
hints = (
{
horizontal = 1;
place = (25,21);
target = up;
type = BottomGhost;
},
{
horizontal = 1;
place = (550,100);
type = Stem;
},
{
place = (119,135);
type = Stem;
}
);
layerId = m008;
shapes = (
{
closed = 1;
nodes = (
(200,-67,l),
(200,183,o),
(442,555,o),
(442,555,cs),
(456,576,o),
(455,600,o),
(430,600,cs),
(30,600,l),
(30,556,l),
(361,556,l),
(361,556,o),
(100,191,o),
(100,-67,c)
);
},
{
pos = (30,-67);
ref = _serif.Z;
}
);
width = 466;
},
{
layerId = m009;
shapes = (
{
closed = 1;
nodes = (
(271,-67,l),
(271,110,o),
(387,337,o),
(504,515,cs),
(531,557,o),
(529,600,o),
(479,600,cs),
(15,600,l),
(15,540,l),
(340,540,l),
(198,352,o),
(71,132,o),
(71,-67,c)
);
},
{
pos = (15,-67);
ref = _serif.Z;
}
);
width = 521;
}
);
metricLeft = "=Z";
metricRight = "=Z";
note = seven;
unicode = 55;
}
{
glyphname = equal;
layers = (
{
layerId = m004;
shapes = (
{
closed = 1;
nodes = (
(500,355,l),
(100,355,l),
(100,305,l),
(500,305,l)
);
},
{
closed = 1;
nodes = (
(500,195,l),
(100,195,l),
(100,145,l),
(500,145,l)
);
}
);
width = 600;
},
{
hints = (
{
horizontal = 1;
place = (138,65);
type = Stem;
},
{
horizontal = 1;
place = (298,65);
type = Stem;
},
{
place = (80,400);
type = Stem;
}
);
layerId = m005;
shapes = (
{
closed = 1;
nodes = (
(500,360,l),
(100,360,l),
(100,300,l),
(500,300,l)
);
},
{
closed = 1;
nodes = (
(500,200,l),
(100,200,l),
(100,140,l),
(500,140,l)
);
}
);
width = 560;
},
{
layerId = m006;
shapes = (
{
closed = 1;
nodes = (
(500,375,l),
(100,375,l),
(100,285,l),
(500,285,l)
);
},
{
closed = 1;
nodes = (
(500,215,l),
(100,215,l),
(100,125,l),
(500,125,l)
);
}
);
width = 600;
},
{
layerId = m007;
shapes = (
{
closed = 1;
nodes = (
(500,349,l),
(100,349,l),
(100,311,l),
(500,311,l)
);
},
{
closed = 1;
nodes = (
(500,189,l),
(100,189,l),
(100,151,l),
(500,151,l)
);
}
);
width = 600;
},
{
hints = (
{
horizontal = 1;
place = (138,65);
type = Stem;
},
{
horizontal = 1;
place = (298,65);
type = Stem;
},
{
place = (80,400);
type = Stem;
}
);
layerId = m008;
shapes = (
{
closed = 1;
nodes = (
(480,352,l),
(80,352,l),
(80,308,l),
(480,308,l)
);
},
{
closed = 1;
nodes = (
(480,192,l),
(80,192,l),
(80,148,l),
(480,148,l)
);
}
);
width = 560;
},
{
layerId = m009;
shapes = (
{
closed = 1;
nodes = (
(500,360,l),
(100,360,l),
(100,300,l),
(500,300,l)
);
},
{
closed = 1;
nodes = (
(500,200,l),
(100,200,l),
(100,140,l),
(500,140,l)
);
}
);
width = 600;
}
);
note = equal;
unicode = 61;
}
{
glyphname = question;
layers = (
{
layerId = m004;
shapes = (
{
closed = 1;
nodes = (
(168,175,o),
(230,175,o),
(230,225,cs),
(230,309,o),
(258,324,o),
(281,340,cs),
(324,369,o),
(371,411,o),
(371,499,cs),
(371,607,o),
(302,677,o),
(194,677,c),
(194,627,l),
(250,627,o),
(281,582,o),
(281,500,cs),
(281,438,o),
(244,420,o),
(194,385,cs),
(154,357,o),
(144,309,o),
(159,225,cs)
);
},
{
pos = (84,0);
ref = period;
},
{
closed = 1;
nodes = (
(134,558,o),
(134,627,o),
(194,627,c),
(194,677,l),
(113,677,o),
(33,646,o),
(33,615,cs),
(33,584,o),
(65,558,o),
(96,558,cs)
);
}
);
width = 404;
},
{
hints = (
{
horizontal = 1;
place = (-5,120);
type = Stem;
},
{
horizontal = 1;
place = (597,70);
type = Stem;
},
{
place = (188,93);
type = Stem;
},
{
place = (313,100);
type = Stem;
},
{
place = (178,120);
type = Stem;
}
);
layerId = m005;
shapes = (
{
closed = 1;
nodes = (
(153,176,o),
(222,175,o),
(222,225,cs),
(222,309,o),
(245,324,o),
(268,340,cs),
(311,369,o),
(358,411,o),
(358,499,cs),
(358,607,o),
(289,677,o),
(181,677,c),
(181,617,l),
(237,617,o),
(268,572,o),
(268,500,cs),
(268,438,o),
(231,420,o),
(181,385,cs),
(141,357,o),
(121,309,o),
(141,225,cs)
);
},
{
pos = (71,0);
ref = period;
},
{
closed = 1;
nodes = (
(121,558,o),
(121,617,o),
(181,617,c),
(181,677,l),
(100,677,o),
(20,646,o),
(20,615,cs),
(20,584,o),
(52,558,o),
(83,558,cs)
);
}
);
width = 378;
},
{
layerId = m006;
shapes = (
{
closed = 1;
nodes = (
(157,196,o),
(286,196,o),
(286,250,cs),
(286,275,o),
(300,293,o),
(347,315,cs),
(428,353,o),
(497,391,o),
(497,499,cs),
(497,607,o),
(384,677,o),
(210,677,c),
(210,587,l),
(266,587,o),
(297,547,o),
(297,475,cs),
(297,433,o),
(256,421,o),
(210,400,cs),
(142,369,o),
(115,305,o),
(136,250,cs)
);
},
{
pos = (86,0);
ref = period;
},
{
closed = 1;
nodes = (
(145,493,o),
(146,587,o),
(210,587,c),
(210,677,l),
(110,677,o),
(10,637,o),
(10,596,cs),
(10,554,o),
(43,493,o),
(85,493,cs)
);
}
);
width = 507;
},
{
layerId = m007;
shapes = (
{
closed = 1;
nodes = (
(174,175,o),
(221,175,o),
(221,225,cs),
(221,309,o),
(258,324,o),
(281,340,cs),
(324,369,o),
(371,411,o),
(371,499,cs),
(371,607,o),
(302,677,o),
(194,677,c),
(194,639,l),
(250,639,o),
(281,594,o),
(281,500,cs),
(281,438,o),
(244,420,o),
(194,385,cs),
(154,357,o),
(158,309,o),
(168,225,cs)
);
},
{
pos = (84,0);
ref = period;
},
{
closed = 1;
nodes = (
(134,558,o),
(134,639,o),
(194,639,c),
(194,677,l),
(113,677,o),
(33,646,o),
(33,615,cs),
(33,584,o),
(65,558,o),
(96,558,cs)
);
}
);
width = 404;
},
{
hints = (
{
horizontal = 1;
place = (-5,120);
type = Stem;
},
{
horizontal = 1;
place = (597,70);
type = Stem;
},
{
place = (188,93);
type = Stem;
},
{
place = (313,100);
type = Stem;
},
{
place = (178,120);
type = Stem;
}
);
layerId = m008;
shapes = (
{
closed = 1;
nodes = (
(159,176,o),
(215,175,o),
(216,225,cs),
(217,309,o),
(245,324,o),
(268,340,cs),
(311,369,o),
(358,411,o),
(358,499,cs),
(358,607,o),
(289,677,o),
(181,677,c),
(181,633,l),
(237,633,o),
(268,588,o),
(268,500,cs),
(268,438,o),
(231,420,o),
(181,385,cs),
(141,357,o),
(127,309,o),
(147,225,cs)
);
},
{
pos = (71,0);
ref = period;
},
{
closed = 1;
nodes = (
(121,558,o),
(121,633,o),
(181,633,c),
(181,677,l),
(100,677,o),
(20,646,o),
(20,615,cs),
(20,584,o),
(52,558,o),
(83,558,cs)
);
}
);
width = 378;
},
{
layerId = m009;
shapes = (
{
closed = 1;
nodes = (
(167,176,o),
(273,184,o),
(273,250,cs),
(273,275,o),
(300,293,o),
(347,315,cs),
(428,353,o),
(497,391,o),
(497,499,cs),
(497,607,o),
(384,677,o),
(210,677,c),
(210,612,l),
(266,612,o),
(297,572,o),
(297,475,cs),
(297,433,o),
(256,421,o),
(210,400,cs),
(142,369,o),
(135,309,o),
(149,250,cs)
);
},
{
pos = (86,0);
ref = period;
},
{
closed = 1;
nodes = (
(145,493,o),
(146,612,o),
(210,612,c),
(210,677,l),
(110,677,o),
(10,637,o),
(10,596,cs),
(10,554,o),
(43,493,o),
(85,493,cs)
);
}
);
width = 507;
}
);
metricLeft = "=S";
metricRight = "=|S";
note = question;
unicode = 63;
}
{
glyphname = at;
layers = (
{
layerId = m004;
shapes = (
{
closed = 1;
nodes = (
(511,-107,o),
(605,-80,o),
(683,4,c),
(652,34,l),
(607,-10,o),
(530,-57,o),
(435,-57,cs),
(261,-57,o),
(127,50,o),
(127,250,cs),
(127,450,o),
(261,552,o),
(419,557,c),
(434,607,l),
(234,603,o),
(67,495,o),
(67,250,cs),
(67,5,o),
(245,-107,o),
(436,-107,cs)
);
},
{
closed = 1;
nodes = (
(468,97,o),
(501,162,o),
(514,199,c),
(520,162,o),
(557,137,o),
(557,107,c),
(587,107,l),
(587,382,ls),
(587,502,o),
(572,607,o),
(434,607,c),
(419,557,l),
(479,557,o),
(512,514,o),
(512,407,c),
(375,407,o),
(241,394,o),
(241,262,cs),
(241,166,o),
(256,97,o),
(354,97,cs)
);
},
{
closed = 1;
nodes = (
(321,152,o),
(306,199,o),
(306,262,cs),
(306,350,o),
(414,362,o),
(512,362,c),
(512,307,ls),
(512,219,o),
(472,152,o),
(384,152,cs)
);
},
{
pos = (489,107);
ref = _serif.a;
}
);
width = 762;
},
{
hints = (
{
horizontal = 1;
place = (-107,70);
type = Stem;
},
{
horizontal = 1;
place = (0,21);
target = up;
type = BottomGhost;
},
{
horizontal = 1;
place = (87,80);
type = Stem;
},
{
horizontal = 1;
place = (347,60);
type = Stem;
},
{
horizontal = 1;
place = (532,75);
type = Stem;
},
{
place = (70,78);
type = Stem;
},
{
place = (247,90);
type = Stem;
},
{
place = (517,95);
type = Stem;
}
);
layerId = m005;
shapes = (
{
closed = 1;
nodes = (
(512,-107,o),
(606,-63,o),
(668,4,c),
(628,44,l),
(570,-20,o),
(489,-47,o),
(411,-47,cs),
(247,-47,o),
(115,45,o),
(115,250,cs),
(115,452,o),
(247,547,o),
(407,547,c),
(422,607,l),
(212,607,o),
(40,502,o),
(40,250,cs),
(40,-2,o),
(212,-107,o),
(412,-107,cs)
);
},
{
closed = 1;
nodes = (
(446,97,o),
(489,162,o),
(497,187,c),
(508,150,o),
(532,137,o),
(532,107,c),
(587,107,l),
(587,377,ls),
(587,497,o),
(572,607,o),
(422,607,c),
(407,547,l),
(467,547,o),
(487,505,o),
(487,412,c),
(351,412,o),
(217,394,o),
(217,262,cs),
(217,166,o),
(232,97,o),
(342,97,cs)
);
},
{
closed = 1;
nodes = (
(322,162,o),
(307,209,o),
(307,262,cs),
(307,345,o),
(415,357,o),
(487,357,c),
(487,307,ls),
(487,222,o),
(447,162,o),
(372,162,cs)
);
},
{
pos = (477,107);
ref = _serif.a;
}
);
width = 708;
},
{
layerId = m006;
shapes = (
{
closed = 1;
nodes = (
(517,-107,o),
(611,-63,o),
(673,4,c),
(603,82,l),
(560,41,o),
(493,18,o),
(416,18,cs),
(287,18,o),
(183,71,o),
(183,252,cs),
(183,433,o),
(293,532,o),
(422,532,c),
(472,607,l),
(205,607,o),
(33,502,o),
(33,250,cs),
(33,-2,o),
(205,-107,o),
(417,-107,cs)
);
},
{
closed = 1;
nodes = (
(452,97,o),
(477,148,o),
(487,187,c),
(497,187,o),
(577,133,o),
(577,107,c),
(682,107,l),
(682,382,ls),
(682,487,o),
(665,607,o),
(472,607,c),
(422,532,l),
(467,532,o),
(482,500,o),
(482,430,c),
(378,426,o),
(222,395,o),
(222,262,cs),
(222,150,o),
(262,97,o),
(347,97,cs)
);
},
{
closed = 1;
nodes = (
(400,187,o),
(392,206,o),
(392,262,cs),
(392,317,o),
(431,356,o),
(482,358,c),
(482,325,ls),
(482,246,o),
(456,187,o),
(422,187,cs)
);
},
{
pos = (552,107);
ref = _serif.a;
}
);
width = 715;
},
{
layerId = m007;
shapes = (
{
closed = 1;
nodes = (
(532,-107,o),
(626,-63,o),
(688,4,c),
(673,21,l),
(610,-45,o),
(523,-69,o),
(431,-69,cs),
(256,-69,o),
(105,24,o),
(105,250,cs),
(105,476,o),
(251,569,o),
(412,569,c),
(427,607,l),
(232,607,o),
(60,502,o),
(60,250,cs),
(60,-2,o),
(232,-107,o),
(432,-107,cs)
);
},
{
closed = 1;
nodes = (
(441,97,o),
(489,162,o),
(507,199,c),
(513,162,o),
(550,137,o),
(550,107,c),
(580,107,l),
(580,382,ls),
(580,502,o),
(565,607,o),
(427,607,c),
(412,569,l),
(472,569,o),
(505,526,o),
(505,397,c),
(368,397,o),
(234,379,o),
(234,262,cs),
(234,166,o),
(249,97,o),
(347,97,cs)
);
},
{
closed = 1;
nodes = (
(314,140,o),
(299,187,o),
(299,262,cs),
(299,350,o),
(407,372,o),
(505,372,c),
(505,307,ls),
(505,214,o),
(465,140,o),
(377,140,cs)
);
},
{
pos = (482,107);
ref = _serif.a;
}
);
width = 748;
},
{
hints = (
{
horizontal = 1;
place = (-107,70);
type = Stem;
},
{
horizontal = 1;
place = (0,21);
target = up;
type = BottomGhost;
},
{
horizontal = 1;
place = (87,80);
type = Stem;
},
{
horizontal = 1;
place = (347,60);
type = Stem;
},
{
horizontal = 1;
place = (532,75);
type = Stem;
},
{
place = (70,78);
type = Stem;
},
{
place = (247,90);
type = Stem;
},
{
place = (517,95);
type = Stem;
}
);
layerId = m008;
shapes = (
{
closed = 1;
nodes = (
(512,-107,o),
(606,-63,o),
(668,4,c),
(636,31,l),
(582,-28,o),
(499,-63,o),
(411,-63,cs),
(242,-63,o),
(100,28,o),
(100,250,cs),
(100,472,o),
(242,563,o),
(407,563,c),
(422,607,l),
(212,607,o),
(40,502,o),
(40,250,cs),
(40,-2,o),
(212,-107,o),
(412,-107,cs)
);
},
{
closed = 1;
nodes = (
(436,97,o),
(484,162,o),
(497,187,c),
(508,150,o),
(532,137,o),
(532,107,c),
(587,107,l),
(587,412,ls),
(587,502,o),
(572,607,o),
(422,607,c),
(407,563,l),
(467,563,o),
(487,493,o),
(487,407,c),
(351,407,o),
(217,387,o),
(217,262,cs),
(217,166,o),
(232,97,o),
(342,97,cs)
);
},
{
closed = 1;
nodes = (
(322,146,o),
(307,193,o),
(307,262,cs),
(307,355,o),
(415,372,o),
(487,372,c),
(487,307,ls),
(487,199,o),
(447,146,o),
(372,146,cs)
);
},
{
pos = (477,107);
ref = _serif.a;
}
);
width = 708;
},
{
layerId = m009;
shapes = (
{
closed = 1;
nodes = (
(504,-107,o),
(598,-63,o),
(660,4,c),
(631,32,l),
(571,-25,o),
(476,-57,o),
(403,-57,cs),
(224,-57,o),
(120,71,o),
(120,252,cs),
(120,433,o),
(224,557,o),
(422,557,c),
(472,607,l),
(192,607,o),
(20,502,o),
(20,250,cs),
(20,-2,o),
(192,-107,o),
(404,-107,cs)
);
},
{
closed = 1;
nodes = (
(452,97,o),
(477,148,o),
(487,187,c),
(497,187,o),
(577,133,o),
(577,107,c),
(682,107,l),
(682,382,ls),
(682,487,o),
(665,607,o),
(472,607,c),
(422,557,l),
(467,557,o),
(482,512,o),
(482,418,c),
(378,414,o),
(222,395,o),
(222,262,cs),
(222,150,o),
(262,97,o),
(347,97,cs)
);
},
{
closed = 1;
nodes = (
(400,177,o),
(392,206,o),
(392,262,cs),
(392,329,o),
(431,368,o),
(482,370,c),
(482,325,ls),
(482,236,o),
(456,177,o),
(422,177,cs)
);
},
{
pos = (552,107);
ref = _serif.a;
}
);
width = 702;
}
);
note = at;
unicode = 64;
}
{
glyphname = A;
kernLeft = A;
kernRight = A;
layers = (
{
anchors = (
{
name = bottom;
pos = (324,0);
},
{
name = ogonek;
pos = (587,10);
},
{
name = top;
pos = (324,625);
}
);
layerId = m004;
shapes = (
{
closed = 1;
nodes = (
(139,0,l),
(185,262,o),
(272,483,o),
(324,616,c),
(380,484,o),
(437,263,o),
(484,0,c),
(570,0,l),
(523,206,o),
(461,462,o),
(384,655,cs),
(381,663,o),
(374,667,o),
(366,667,cs),
(291,667,l),
(206,461,o),
(131,222,o),
(81,0,c)
);
},
{
closed = 1;
nodes = (
(91,0,l),
(101,84,l),
(95,60,o),
(89,35,o),
(39,35,c),
(27,35,o),
(20,26,o),
(20,18,cs),
(20,9,o),
(27,0,o),
(39,0,c)
);
},
{
closed = 1;
nodes = (
(195,0,l),
(207,0,o),
(214,9,o),
(214,18,cs),
(214,26,o),
(207,35,o),
(195,35,c),
(145,35,o),
(150,60,o),
(156,85,c),
(129,0,l)
);
},
{
closed = 1;
nodes = (
(494,0,l),
(468,86,l),
(473,60,o),
(478,35,o),
(428,35,c),
(416,35,o),
(409,26,o),
(409,18,cs),
(409,9,o),
(416,0,o),
(428,0,c)
);
},
{
closed = 1;
nodes = (
(473,167,l),
(473,217,l),
(167,217,l),
(167,167,l)
);
},
{
closed = 1;
nodes = (
(612,0,l),
(624,0,o),
(631,9,o),
(631,18,cs),
(631,26,o),
(624,35,o),
(612,35,c),
(562,35,o),
(556,60,o),
(551,85,c),
(560,0,l)
);
},
{
closed = 1;
nodes = (
(301,667,l),
(238,667,l),
(226,667,o),
(219,658,o),
(219,649,cs),
(219,641,o),
(226,632,o),
(238,632,c),
(288,632,o),
(267,607,o),
(258,582,c)
);
}
);
width = 651;
},
{
anchors = (
{
name = bottom;
pos = (312,0);
},
{
name = ogonek;
pos = (532,10);
},
{
name = top;
pos = (312,667);
}
);
hints = (
{
horizontal = 1;
place = (25,21);
target = up;
type = BottomGhost;
},
{
horizontal = 1;
place = (175,100);
type = Stem;
},
{
horizontal = 1;
place = (582,135);
type = Stem;
},
{
place = (37,541);
type = Stem;
}
);
layerId = m005;
shapes = (
{
closed = 1;
nodes = (
(139,0,l),
(183,247,o),
(261,456,o),
(312,587,c),
(363,456,o),
(416,247,o),
(460,0,c),
(570,0,l),
(524,203,o),
(462,459,o),
(384,655,cs),
(381,663,o),
(374,667,o),
(366,667,cs),
(279,667,l),
(193,457,o),
(118,219,o),
(69,0,c)
);
},
{
closed = 1;
nodes = (
(79,0,l),
(89,84,l),
(83,60,o),
(77,35,o),
(27,35,c),
(15,35,o),
(8,26,o),
(8,18,cs),
(8,9,o),
(15,0,o),
(27,0,c)
);
},
{
closed = 1;
nodes = (
(196,0,l),
(208,0,o),
(215,9,o),
(215,18,cs),
(215,26,o),
(208,35,o),
(196,35,c),
(146,35,o),
(150,60,o),
(155,84,c),
(129,0,l)
);
},
{
closed = 1;
nodes = (
(470,0,l),
(445,85,l),
(449,60,o),
(454,35,o),
(404,35,c),
(392,35,o),
(385,26,o),
(385,18,cs),
(385,9,o),
(392,0,o),
(404,0,c)
);
},
{
closed = 1;
nodes = (
(473,162,l),
(473,222,l),
(152,222,l),
(152,162,l)
);
},
{
closed = 1;
nodes = (
(613,0,l),
(625,0,o),
(632,9,o),
(632,18,cs),
(632,26,o),
(625,35,o),
(613,35,c),
(563,35,o),
(557,60,o),
(550,87,c),
(560,0,l)
);
},
{
closed = 1;
nodes = (
(289,667,l),
(215,667,l),
(203,667,o),
(196,658,o),
(196,649,cs),
(196,641,o),
(203,632,o),
(215,632,c),
(265,632,o),
(255,607,o),
(245,581,c)
);
}
);
width = 640;
},
{
anchors = (
{
name = bottom;
pos = (331,0);
},
{
name = ogonek;
pos = (608,10);
},
{
name = top;
pos = (331,667);
}
);
layerId = m006;
shapes = (
{
closed = 1;
nodes = (
(185,0,l),
(226,230,o),
(282,466,o),
(331,592,c),
(380,466,o),
(436,230,o),
(477,0,c),
(687,0,l),
(642,197,o),
(599,449,o),
(522,648,cs),
(517,661,o),
(507,667,o),
(493,667,cs),
(264,667,l),
(182,466,o),
(127,204,o),
(81,0,c)
);
},
{
closed = 1;
nodes = (
(99,0,l),
(100,84,l),
(94,60,o),
(89,35,o),
(39,35,c),
(27,35,o),
(20,26,o),
(20,18,cs),
(20,9,o),
(27,0,o),
(39,0,c)
);
},
{
closed = 1;
nodes = (
(241,0,l),
(253,0,o),
(260,9,o),
(260,18,cs),
(260,26,o),
(253,35,o),
(241,35,c),
(191,35,o),
(195,59,o),
(200,83,c),
(171,0,l)
);
},
{
closed = 1;
nodes = (
(491,0,l),
(462,84,l),
(466,60,o),
(471,35,o),
(421,35,c),
(409,35,o),
(402,26,o),
(402,18,cs),
(402,9,o),
(409,0,o),
(421,0,c)
);
},
{
closed = 1;
nodes = (
(514,142,l),
(514,232,l),
(163,232,l),
(163,142,l)
);
},
{
closed = 1;
nodes = (
(729,0,l),
(741,0,o),
(748,9,o),
(748,18,cs),
(748,26,o),
(741,35,o),
(729,35,c),
(679,35,o),
(673,60,o),
(668,84,c),
(669,0,l)
);
},
{
closed = 1;
nodes = (
(270,667,l),
(200,667,l),
(188,667,o),
(181,658,o),
(181,649,cs),
(181,641,o),
(188,632,o),
(200,632,c),
(250,632,o),
(241,607,o),
(232,582,c)
);
}
);
width = 768;
},
{
anchors = (
{
name = bottom;
pos = (322,0);
},
{
name = ogonek;
pos = (585,10);
},
{
name = top;
pos = (320,667);
}
);
layerId = m007;
shapes = (
{
closed = 1;
nodes = (
(137,0,l),
(183,262,o),
(270,483,o),
(322,616,c),
(378,484,o),
(435,263,o),
(482,0,c),
(568,0,l),
(521,206,o),
(459,462,o),
(382,655,cs),
(379,663,o),
(372,667,o),
(364,667,cs),
(291,667,l),
(206,461,o),
(131,222,o),
(81,0,c)
);
},
{
closed = 1;
nodes = (
(91,0,l),
(101,84,l),
(95,60,o),
(89,25,o),
(39,25,c),
(27,25,o),
(20,21,o),
(20,13,cs),
(20,4,o),
(27,0,o),
(39,0,c)
);
},
{
closed = 1;
nodes = (
(193,0,l),
(205,0,o),
(212,4,o),
(212,13,cs),
(212,21,o),
(205,25,o),
(193,25,c),
(143,25,o),
(148,60,o),
(154,85,c),
(127,0,l)
);
},
{
closed = 1;
nodes = (
(492,0,l),
(466,86,l),
(471,60,o),
(476,25,o),
(426,25,c),
(414,25,o),
(407,21,o),
(407,13,cs),
(407,4,o),
(414,0,o),
(426,0,c)
);
},
{
closed = 1;
nodes = (
(471,173,l),
(471,211,l),
(165,211,l),
(165,173,l)
);
},
{
closed = 1;
nodes = (
(610,0,l),
(622,0,o),
(629,4,o),
(629,13,cs),
(629,21,o),
(622,24,o),
(610,24,c),
(560,24,o),
(554,60,o),
(549,85,c),
(558,0,l)
);
},
{
closed = 1;
nodes = (
(301,667,l),
(226,667,l),
(214,667,o),
(207,663,o),
(207,654,cs),
(207,646,o),
(214,642,o),
(226,642,c),
(276,642,o),
(267,607,o),
(258,582,c)
);
}
);
width = 649;
},
{
anchors = (
{
name = bottom;
pos = (312,0);
},
{
name = ogonek;
pos = (532,10);
},
{
name = top;
pos = (312,667);
}
);
hints = (
{
horizontal = 1;
place = (25,21);
target = up;
type = BottomGhost;
},
{
horizontal = 1;
place = (175,100);
type = Stem;
},
{
horizontal = 1;
place = (582,135);
type = Stem;
},
{
place = (37,541);
type = Stem;
}
);
layerId = m008;
shapes = (
{
closed = 1;
nodes = (
(139,0,l),
(183,247,o),
(261,456,o),
(312,587,c),
(363,456,o),
(416,247,o),
(460,0,c),
(570,0,l),
(524,203,o),
(462,459,o),
(384,655,cs),
(381,663,o),
(374,667,o),
(366,667,cs),
(279,667,l),
(193,457,o),
(118,219,o),
(69,0,c)
);
},
{
closed = 1;
nodes = (
(79,0,l),
(89,84,l),
(83,60,o),
(77,25,o),
(27,25,c),
(15,25,o),
(8,21,o),
(8,13,cs),
(8,4,o),
(15,0,o),
(27,0,c)
);
},
{
closed = 1;
nodes = (
(196,0,l),
(208,0,o),
(215,4,o),
(215,13,cs),
(215,21,o),
(208,25,o),
(196,25,c),
(146,25,o),
(150,60,o),
(155,84,c),
(129,0,l)
);
},
{
closed = 1;
nodes = (
(470,0,l),
(445,85,l),
(449,60,o),
(454,25,o),
(404,25,c),
(392,25,o),
(385,21,o),
(385,13,cs),
(385,4,o),
(392,0,o),
(404,0,c)
);
},
{
closed = 1;
nodes = (
(473,170,l),
(473,214,l),
(152,214,l),
(152,170,l)
);
},
{
closed = 1;
nodes = (
(613,0,l),
(625,0,o),
(632,4,o),
(632,13,cs),
(632,21,o),
(625,25,o),
(613,25,c),
(563,25,o),
(557,60,o),
(550,87,c),
(560,0,l)
);
},
{
closed = 1;
nodes = (
(289,667,l),
(215,667,l),
(203,667,o),
(196,663,o),
(196,654,cs),
(196,646,o),
(203,642,o),
(215,642,c),
(265,642,o),
(255,607,o),
(245,581,c)
);
}
);
width = 640;
},
{
anchors = (
{
name = bottom;
pos = (301,0);
},
{
name = ogonek;
pos = (578,10);
},
{
name = top;
pos = (301,667);
}
);
layerId = m009;
shapes = (
{
closed = 1;
nodes = (
(155,0,l),
(196,230,o),
(252,466,o),
(301,592,c),
(350,466,o),
(406,230,o),
(447,0,c),
(657,0,l),
(612,197,o),
(569,449,o),
(492,648,cs),
(487,661,o),
(477,667,o),
(463,667,cs),
(264,667,l),
(182,466,o),
(127,204,o),
(81,0,c)
);
},
{
closed = 1;
nodes = (
(99,0,l),
(100,84,l),
(94,60,o),
(89,35,o),
(39,35,c),
(27,35,o),
(20,26,o),
(20,18,cs),
(20,9,o),
(27,0,o),
(39,0,c)
);
},
{
closed = 1;
nodes = (
(211,0,l),
(223,0,o),
(230,9,o),
(230,18,cs),
(230,26,o),
(223,35,o),
(211,35,c),
(161,35,o),
(165,59,o),
(170,83,c),
(141,0,l)
);
},
{
closed = 1;
nodes = (
(461,0,l),
(432,84,l),
(436,60,o),
(441,35,o),
(391,35,c),
(379,35,o),
(372,26,o),
(372,18,cs),
(372,9,o),
(379,0,o),
(391,0,c)
);
},
{
closed = 1;
nodes = (
(484,157,l),
(484,217,l),
(133,217,l),
(133,157,l)
);
},
{
closed = 1;
nodes = (
(699,0,l),
(711,0,o),
(718,9,o),
(718,18,cs),
(718,26,o),
(711,35,o),
(699,35,c),
(649,35,o),
(643,60,o),
(638,84,c),
(639,0,l)
);
},
{
closed = 1;
nodes = (
(270,667,l),
(200,667,l),
(188,667,o),
(181,658,o),
(181,649,cs),
(181,641,o),
(188,632,o),
(200,632,c),
(250,632,o),
(241,607,o),
(232,582,c)
);
}
);
width = 738;
}
);
note = A;
unicode = 65;
}
{
glyphname = B;
layers = (
{
layerId = m004;
shapes = (
{
closed = 1;
nodes = (
(112,667,l),
(112,0,l),
(187,0,l),
(187,325,l),
(294,325,ls),
(441,325,o),
(523,377,o),
(523,491,cs),
(523,605,o),
(443,667,o),
(294,667,cs)
);
},
{
closed = 1;
nodes = (
(188,365,l),
(188,617,l),
(295,617,ls),
(399,617,o),
(448,575,o),
(448,491,cs),
(448,408,o),
(399,365,o),
(295,365,cs)
);
},
{
closed = 1;
nodes = (
(182,315,l),
(295,315,ls),
(405,315,o),
(463,273,o),
(463,183,cs),
(463,93,o),
(405,50,o),
(295,50,cs),
(185,50,l),
(105,0,l),
(294,0,ls),
(453,0,o),
(538,64,o),
(538,183,cs),
(538,302,o),
(451,355,o),
(294,355,cs),
(182,355,l)
);
},
{
pos = (112,0);
ref = _serif.H;
},
{
pos = (112,667);
ref = _serif.H;
scale = (1,-1);
}
);
width = 581;
},
{
hints = (
{
horizontal = 1;
place = (25,21);
target = up;
type = BottomGhost;
},
{
horizontal = 1;
place = (307,92);
type = Stem;
},
{
horizontal = 1;
place = (623,94);
type = Stem;
},
{
place = (95,125);
type = Stem;
},
{
place = (431,124);
type = Stem;
}
);
layerId = m005;
shapes = (
{
closed = 1;
nodes = (
(99,667,l),
(99,0,l),
(199,0,l),
(199,325,l),
(294,325,ls),
(448,325,o),
(535,378,o),
(535,491,cs),
(535,604,o),
(448,667,o),
(294,667,cs)
);
},
{
closed = 1;
nodes = (
(200,370,l),
(200,607,l),
(295,607,ls),
(390,607,o),
(435,567,o),
(435,491,cs),
(435,411,o),
(390,370,o),
(295,370,cs)
);
},
{
closed = 1;
nodes = (
(199,310,l),
(295,310,ls),
(400,310,o),
(450,268,o),
(450,183,cs),
(450,103,o),
(400,60,o),
(295,60,cs),
(199,60,l),
(99,0,l),
(294,0,ls),
(458,0,o),
(550,65,o),
(550,183,cs),
(550,301,o),
(458,355,o),
(294,355,cs),
(199,355,l)
);
},
{
pos = (99,0);
ref = _serif.H;
},
{
pos = (99,667);
ref = _serif.H;
scale = (1,-1);
}
);
width = 580;
},
{
layerId = m006;
shapes = (
{
closed = 1;
nodes = (
(69,667,l),
(69,0,l),
(269,0,l),
(269,315,l),
(314,315,ls),
(500,315,o),
(605,361,o),
(605,481,cs),
(605,601,o),
(500,667,o),
(314,667,cs)
);
},
{
closed = 1;
nodes = (
(270,385,l),
(270,577,l),
(315,577,ls),
(376,577,o),
(405,546,o),
(405,481,cs),
(405,416,o),
(376,385,o),
(315,385,cs)
);
},
{
closed = 1;
nodes = (
(269,295,l),
(315,295,ls),
(386,295,o),
(420,262,o),
(420,193,cs),
(420,123,o),
(386,90,o),
(315,90,cs),
(269,90,l),
(69,0,l),
(314,0,ls),
(510,0,o),
(620,69,o),
(620,193,cs),
(620,317,o),
(510,365,o),
(314,365,cs),
(269,365,l)
);
},
{
pos = (69,0);
ref = _serif.H;
},
{
pos = (69,667);
ref = _serif.H;
scale = (1,-1);
}
);
width = 620;
},
{
layerId = m007;
shapes = (
{
closed = 1;
nodes = (
(112,667,l),
(112,0,l),
(187,0,l),
(187,331,l),
(294,331,ls),
(441,331,o),
(523,377,o),
(523,491,cs),
(523,605,o),
(443,667,o),
(294,667,cs)
);
},
{
closed = 1;
nodes = (
(188,359,l),
(188,629,l),
(295,629,ls),
(399,629,o),
(448,587,o),
(448,491,cs),
(448,402,o),
(399,359,o),
(295,359,cs)
);
},
{
closed = 1;
nodes = (
(182,321,l),
(295,321,ls),
(405,321,o),
(463,279,o),
(463,183,cs),
(463,81,o),
(405,38,o),
(295,38,cs),
(185,38,l),
(105,0,l),
(294,0,ls),
(453,0,o),
(538,64,o),
(538,183,cs),
(538,302,o),
(451,349,o),
(294,349,cs),
(182,349,l)
);
},
{
pos = (112,0);
ref = _serif.H;
},
{
pos = (112,667);
ref = _serif.H;
scale = (1,-1);
}
);
width = 581;
},
{
hints = (
{
horizontal = 1;
place = (25,21);
target = up;
type = BottomGhost;
},
{
horizontal = 1;
place = (307,92);
type = Stem;
},
{
horizontal = 1;
place = (623,94);
type = Stem;
},
{
place = (95,125);
type = Stem;
},
{
place = (431,124);
type = Stem;
}
);
layerId = m008;
shapes = (
{
closed = 1;
nodes = (
(99,667,l),
(99,0,l),
(199,0,l),
(199,333,l),
(294,333,ls),
(448,333,o),
(534,378,o),
(534,491,cs),
(534,604,o),
(448,667,o),
(294,667,cs)
);
},
{
closed = 1;
nodes = (
(200,362,l),
(200,623,l),
(295,623,ls),
(390,623,o),
(435,583,o),
(435,491,cs),
(435,403,o),
(390,362,o),
(295,362,cs)
);
},
{
closed = 1;
nodes = (
(199,318,l),
(295,318,ls),
(400,318,o),
(450,276,o),
(450,183,cs),
(450,87,o),
(400,44,o),
(295,44,cs),
(199,44,l),
(99,0,l),
(294,0,ls),
(458,0,o),
(549,65,o),
(549,183,cs),
(549,301,o),
(458,347,o),
(294,347,cs),
(199,347,l)
);
},
{
pos = (99,0);
ref = _serif.H;
},
{
pos = (99,667);
ref = _serif.H;
scale = (1,-1);
}
);
width = 579;
},
{
layerId = m009;
shapes = (
{
closed = 1;
nodes = (
(69,667,l),
(69,0,l),
(269,0,l),
(269,325,l),
(314,325,ls),
(500,325,o),
(604,361,o),
(604,481,cs),
(604,601,o),
(500,667,o),
(314,667,cs)
);
},
{
closed = 1;
nodes = (
(270,370,l),
(270,607,l),
(315,607,ls),
(376,607,o),
(405,576,o),
(405,481,cs),
(405,401,o),
(376,370,o),
(315,370,cs)
);
},
{
closed = 1;
nodes = (
(269,310,l),
(315,310,ls),
(386,310,o),
(420,277,o),
(420,193,cs),
(420,93,o),
(386,60,o),
(315,60,cs),
(269,60,l),
(69,0,l),
(314,0,ls),
(510,0,o),
(619,69,o),
(619,193,cs),
(619,317,o),
(510,355,o),
(314,355,cs),
(269,355,l)
);
},
{
pos = (69,0);
ref = _serif.H;
},
{
pos = (69,667);
ref = _serif.H;
scale = (1,-1);
}
);
width = 619;
}
);
metricLeft = "=H";
metricRight = "=H";
note = P;
unicode = 66;
}
{
glyphname = C;
layers = (
{
anchors = (
{
name = bottom;
pos = (299,0);
},
{
name = top;
pos = (299,667);
}
);
layerId = m004;
shapes = (
{
closed = 1;
nodes = (
(299,40,l),
(164,40,o),
(118,172,o),
(118,334,cs),
(118,495,o),
(164,627,o),
(299,627,c),
(299,677,l),
(116,677,o),
(33,522,o),
(33,334,cs),
(33,144,o),
(116,-10,o),
(299,-10,c)
);
},
{
closed = 1;
nodes = (
(355,-10,o),
(435,2,o),
(488,30,c),
(490,105,o),
(489,150,o),
(464,150,cs),
(439,150,o),
(394,40,o),
(299,40,c),
(299,-10,l)
);
},
{
closed = 1;
nodes = (
(472,533,o),
(482,584,o),
(482,630,cs),
(482,660,o),
(380,677,o),
(299,677,c),
(299,627,l),
(384,627,o),
(421,533,o),
(447,533,cs)
);
}
);
width = 506;
},
{
anchors = (
{
name = bottom;
pos = (299,0);
},
{
name = top;
pos = (299,667);
}
);
hints = (
{
horizontal = 1;
place = (15,110);
type = Stem;
},
{
horizontal = 1;
place = (622,105);
type = Stem;
},
{
place = (60,135);
type = Stem;
}
);
layerId = m005;
shapes = (
{
closed = 1;
nodes = (
(299,40,l),
(164,40,o),
(130,172,o),
(130,334,cs),
(130,495,o),
(164,627,o),
(299,627,c),
(299,677,l),
(109,677,o),
(20,522,o),
(20,334,cs),
(20,144,o),
(109,-10,o),
(299,-10,c)
);
},
{
closed = 1;
nodes = (
(359,-10,o),
(448,5,o),
(501,33,c),
(503,108,o),
(489,150,o),
(464,150,cs),
(439,150,o),
(394,40,o),
(299,40,c),
(299,-10,l)
);
},
{
closed = 1;
nodes = (
(472,533,o),
(495,584,o),
(495,630,cs),
(495,660,o),
(380,677,o),
(299,677,c),
(299,627,l),
(384,627,o),
(421,533,o),
(447,533,cs)
);
}
);
width = 511;
},
{
anchors = (
{
name = bottom;
pos = (300,0);
},
{
name = top;
pos = (300,667);
}
);
layerId = m006;
shapes = (
{
closed = 1;
nodes = (
(300,80,l),
(236,80,o),
(210,131,o),
(210,334,cs),
(210,536,o),
(236,587,o),
(300,587,c),
(300,677,l),
(103,677,o),
(10,581,o),
(10,334,cs),
(10,86,o),
(103,-10,o),
(300,-10,c)
);
},
{
closed = 1;
nodes = (
(360,-10,o),
(479,0,o),
(532,31,c),
(532,100,o),
(521,170,o),
(485,170,cs),
(449,170,o),
(364,80,o),
(300,80,c),
(300,-10,l)
);
},
{
closed = 1;
nodes = (
(492,493,o),
(525,534,o),
(525,610,cs),
(525,657,o),
(400,677,o),
(300,677,c),
(300,587,l),
(364,587,o),
(390,493,o),
(450,493,cs)
);
}
);
width = 537;
},
{
anchors = (
{
name = bottom;
pos = (299,0);
},
{
name = top;
pos = (299,667);
}
);
layerId = m007;
shapes = (
{
closed = 1;
nodes = (
(299,28,l),
(164,28,o),
(118,160,o),
(118,334,cs),
(118,507,o),
(164,639,o),
(299,639,c),
(299,677,l),
(116,677,o),
(33,522,o),
(33,334,cs),
(33,144,o),
(116,-10,o),
(299,-10,c)
);
},
{
closed = 1;
nodes = (
(355,-10,o),
(435,2,o),
(488,30,c),
(490,105,o),
(489,150,o),
(464,150,cs),
(439,150,o),
(394,28,o),
(299,28,c),
(299,-10,l)
);
},
{
closed = 1;
nodes = (
(472,533,o),
(482,584,o),
(482,630,cs),
(482,660,o),
(380,677,o),
(299,677,c),
(299,639,l),
(384,639,o),
(421,533,o),
(447,533,cs)
);
}
);
width = 506;
},
{
anchors = (
{
name = bottom;
pos = (299,0);
},
{
name = top;
pos = (299,667);
}
);
hints = (
{
horizontal = 1;
place = (15,110);
type = Stem;
},
{
horizontal = 1;
place = (622,105);
type = Stem;
},
{
place = (60,135);
type = Stem;
}
);
layerId = m008;
shapes = (
{
closed = 1;
nodes = (
(299,34,l),
(164,34,o),
(130,166,o),
(130,334,cs),
(130,501,o),
(164,633,o),
(299,633,c),
(299,677,l),
(109,677,o),
(20,522,o),
(20,334,cs),
(20,144,o),
(109,-10,o),
(299,-10,c)
);
},
{
closed = 1;
nodes = (
(359,-10,o),
(448,5,o),
(501,33,c),
(503,108,o),
(489,150,o),
(464,150,cs),
(439,150,o),
(394,34,o),
(299,34,c),
(299,-10,l)
);
},
{
closed = 1;
nodes = (
(472,533,o),
(495,584,o),
(495,630,cs),
(495,660,o),
(380,677,o),
(299,677,c),
(299,633,l),
(384,633,o),
(421,533,o),
(447,533,cs)
);
}
);
width = 511;
},
{
anchors = (
{
name = bottom;
pos = (300,0);
},
{
name = top;
pos = (300,667);
}
);
layerId = m009;
shapes = (
{
closed = 1;
nodes = (
(300,55,l),
(236,55,o),
(210,106,o),
(210,334,cs),
(210,561,o),
(236,612,o),
(300,612,c),
(300,677,l),
(103,677,o),
(10,581,o),
(10,334,cs),
(10,86,o),
(103,-10,o),
(300,-10,c)
);
},
{
closed = 1;
nodes = (
(360,-10,o),
(479,0,o),
(532,31,c),
(532,100,o),
(521,170,o),
(485,170,cs),
(449,170,o),
(364,55,o),
(300,55,c),
(300,-10,l)
);
},
{
closed = 1;
nodes = (
(492,493,o),
(525,534,o),
(525,610,cs),
(525,657,o),
(400,677,o),
(300,677,c),
(300,612,l),
(364,612,o),
(390,493,o),
(450,493,cs)
);
}
);
width = 537;
}
);
metricLeft = "=O";
metricRight = "=O/2";
note = C;
unicode = 67;
}
{
glyphname = E;
layers = (
{
anchors = (
{
name = bottom;
pos = (262,0);
},
{
name = ogonek;
pos = (472,10);
},
{
name = top;
pos = (262,667);
},
{
name = topleft;
pos = (20,667);
}
);
layerId = m004;
shapes = (
{
closed = 1;
nodes = (
(482,667,l),
(112,667,l),
(112,0,l),
(487,0,l),
(487,50,l),
(187,50,l),
(187,315,l),
(422,315,l),
(422,365,l),
(187,365,l),
(187,617,l),
(482,617,l)
);
},
{
pos = (112,0);
ref = _serif.H;
},
{
pos = (112,667);
ref = _serif.H;
scale = (1,-1);
},
{
angle = 90;
pos = (422,365);
ref = _serif.H;
scale = (-1,1);
},
{
angle = 90;
pos = (422,315);
ref = _serif.H;
},
{
pos = (483,167);
ref = _serif.z;
scale = (-1,1);
},
{
angle = 180;
pos = (487,500);
ref = _serif.z;
}
);
width = 524;
},
{
anchors = (
{
name = bottom;
pos = (265,0);
},
{
name = ogonek;
pos = (476,10);
},
{
name = top;
pos = (265,667);
},
{
name = topleft;
pos = (20,667);
}
);
hints = (
{
horizontal = 1;
place = (25,100);
type = Stem;
},
{
horizontal = 1;
place = (330,99);
type = Stem;
},
{
horizontal = 1;
place = (617,100);
type = Stem;
},
{
place = (95,125);
type = Stem;
}
);
layerId = m005;
shapes = (
{
closed = 1;
nodes = (
(494,667,l),
(99,667,l),
(99,0,l),
(499,0,l),
(499,60,l),
(199,60,l),
(199,310,l),
(434,310,l),
(434,370,l),
(199,370,l),
(199,607,l),
(494,607,l)
);
},
{
pos = (99,0);
ref = _serif.H;
},
{
pos = (99,667);
ref = _serif.H;
scale = (1,-1);
},
{
angle = 90;
pos = (434,370);
ref = _serif.H;
scale = (-1,1);
},
{
angle = 90;
pos = (434,310);
ref = _serif.H;
},
{
pos = (495,167);
ref = _serif.z;
scale = (-1,1);
},
{
angle = 180;
pos = (499,500);
ref = _serif.z;
}
);
width = 529;
},
{
anchors = (
{
name = bottom;
pos = (292,0);
},
{
name = ogonek;
pos = (525,10);
},
{
name = top;
pos = (292,667);
},
{
name = topleft;
pos = (20,667);
}
);
layerId = m006;
shapes = (
{
closed = 1;
nodes = (
(564,667,l),
(69,667,l),
(69,0,l),
(569,0,l),
(569,90,l),
(269,90,l),
(269,295,l),
(519,294,l),
(519,385,l),
(269,385,l),
(269,577,l),
(564,577,l)
);
},
{
pos = (69,0);
ref = _serif.H;
},
{
pos = (69,667);
ref = _serif.H;
scale = (1,-1);
},
{
angle = 90;
pos = (519,385);
ref = _serif.H;
scale = (-1,1);
},
{
angle = 90;
pos = (519,294);
ref = _serif.H;
},
{
pos = (564,167);
ref = _serif.z;
scale = (-1,1);
},
{
angle = 180;
pos = (568,500);
ref = _serif.z;
}
);
width = 583;
},
{
anchors = (
{
name = bottom;
pos = (262,0);
},
{
name = ogonek;
pos = (472,10);
},
{
name = top;
pos = (262,667);
},
{
name = topleft;
pos = (20,667);
}
);
layerId = m007;
shapes = (
{
closed = 1;
nodes = (
(482,667,l),
(112,667,l),
(112,0,l),
(487,0,l),
(487,38,l),
(187,38,l),
(187,321,l),
(422,321,l),
(422,359,l),
(187,359,l),
(187,629,l),
(482,629,l)
);
},
{
pos = (112,0);
ref = _serif.H;
},
{
pos = (112,667);
ref = _serif.H;
scale = (1,-1);
},
{
angle = 90;
pos = (422,359);
ref = _serif.H;
scale = (-1,1);
},
{
angle = 90;
pos = (422,321);
ref = _serif.H;
},
{
pos = (483,167);
ref = _serif.z;
scale = (-1,1);
},
{
angle = 180;
pos = (487,500);
ref = _serif.z;
}
);
width = 524;
},
{
anchors = (
{
name = bottom;
pos = (265,0);
},
{
name = ogonek;
pos = (476,10);
},
{
name = top;
pos = (265,667);
},
{
name = topleft;
pos = (20,667);
}
);
hints = (
{
horizontal = 1;
place = (25,100);
type = Stem;
},
{
horizontal = 1;
place = (330,99);
type = Stem;
},
{
horizontal = 1;
place = (617,100);
type = Stem;
},
{
place = (95,125);
type = Stem;
}
);
layerId = m008;
shapes = (
{
closed = 1;
nodes = (
(494,667,l),
(99,667,l),
(99,0,l),
(499,0,l),
(499,44,l),
(199,44,l),
(199,318,l),
(434,318,l),
(434,362,l),
(199,362,l),
(199,623,l),
(494,623,l)
);
},
{
pos = (99,0);
ref = _serif.H;
},
{
pos = (99,667);
ref = _serif.H;
scale = (1,-1);
},
{
angle = 90;
pos = (434,362);
ref = _serif.H;
scale = (-1,1);
},
{
angle = 90;
pos = (434,318);
ref = _serif.H;
},
{
pos = (495,167);
ref = _serif.z;
scale = (-1,1);
},
{
angle = 180;
pos = (499,500);
ref = _serif.z;
}
);
width = 529;
},
{
anchors = (
{
name = bottom;
pos = (292,0);
},
{
name = ogonek;
pos = (525,10);
},
{
name = top;
pos = (292,667);
},
{
name = topleft;
pos = (20,667);
}
);
layerId = m009;
shapes = (
{
closed = 1;
nodes = (
(564,667,l),
(69,667,l),
(69,0,l),
(569,0,l),
(569,60,l),
(269,60,l),
(269,310,l),
(519,310,l),
(519,370,l),
(269,370,l),
(269,607,l),
(564,607,l)
);
},
{
pos = (69,0);
ref = _serif.H;
},
{
pos = (69,667);
ref = _serif.H;
scale = (1,-1);
},
{
angle = 90;
pos = (519,370);
ref = _serif.H;
scale = (-1,1);
},
{
angle = 90;
pos = (519,310);
ref = _serif.H;
},
{
pos = (564,167);
ref = _serif.z;
scale = (-1,1);
},
{
angle = 180;
pos = (568,500);
ref = _serif.z;
}
);
width = 583;
}
);
metricLeft = "=H";
metricRight = "=H/2";
note = E;
unicode = 69;
}
{
glyphname = G;
layers = (
{
anchors = (
{
name = bottom;
pos = (326,0);
},
{
name = top;
pos = (326,667);
}
);
layerId = m004;
shapes = (
{
ref = C;
},
{
closed = 1;
nodes = (
(488,30,l),
(488,365,l),
(413,365,l),
(413,27,l),
(472,26,l)
);
},
{
closed = 1;
nodes = (
(326,365,o),
(319,356,o),
(319,347,cs),
(319,339,o),
(326,330,o),
(338,330,cs),
(413,330,o),
(413,305,o),
(413,280,c),
(423,365,l),
(338,365,ls)
);
},
{
angle = 180;
pos = (488,365);
ref = _serif.H;
}
);
width = 600;
},
{
anchors = (
{
name = bottom;
pos = (299,0);
},
{
name = top;
pos = (299,667);
}
);
hints = (
{
horizontal = 1;
place = (15,110);
type = Stem;
},
{
horizontal = 1;
place = (622,105);
type = Stem;
},
{
place = (60,135);
type = Stem;
}
);
layerId = m005;
shapes = (
{
ref = C;
},
{
closed = 1;
nodes = (
(501,33,l),
(501,365,l),
(401,365,l),
(401,27,l),
(476,26,l)
);
},
{
closed = 1;
nodes = (
(314,365,o),
(307,356,o),
(307,347,cs),
(307,339,o),
(314,330,o),
(326,330,c),
(401,330,o),
(401,305,o),
(401,280,c),
(411,365,l),
(326,365,l)
);
},
{
angle = 180;
pos = (501,365);
ref = _serif.H;
}
);
width = 600;
},
{
anchors = (
{
name = bottom;
pos = (310,0);
},
{
name = top;
pos = (310,667);
}
);
layerId = m006;
shapes = (
{
ref = C;
},
{
closed = 1;
nodes = (
(532,31,l),
(532,365,l),
(352,365,l),
(352,65,l),
(464,31,l)
);
},
{
closed = 1;
nodes = (
(265,365,o),
(258,356,o),
(258,347,cs),
(258,339,o),
(265,330,o),
(277,330,cs),
(352,330,o),
(352,305,o),
(352,280,c),
(362,365,l),
(277,365,ls)
);
},
{
angle = 180;
pos = (532,365);
ref = _serif.H;
}
);
width = 601;
},
{
anchors = (
{
name = bottom;
pos = (326,0);
},
{
name = top;
pos = (326,667);
}
);
layerId = m007;
shapes = (
{
ref = C;
},
{
closed = 1;
nodes = (
(488,30,l),
(488,365,l),
(413,365,l),
(413,27,l),
(472,26,l)
);
},
{
closed = 1;
nodes = (
(326,365,o),
(319,361,o),
(319,352,cs),
(319,344,o),
(326,340,o),
(338,340,cs),
(413,340,o),
(413,305,o),
(413,280,c),
(423,365,l),
(338,365,ls)
);
},
{
angle = 180;
pos = (488,365);
ref = _serif.H;
}
);
width = 600;
},
{
anchors = (
{
name = bottom;
pos = (299,0);
},
{
name = top;
pos = (299,667);
}
);
hints = (
{
horizontal = 1;
place = (15,110);
type = Stem;
},
{
horizontal = 1;
place = (622,105);
type = Stem;
},
{
place = (60,135);
type = Stem;
}
);
layerId = m008;
shapes = (
{
ref = C;
},
{
closed = 1;
nodes = (
(501,33,l),
(501,365,l),
(401,365,l),
(401,27,l),
(476,26,l)
);
},
{
closed = 1;
nodes = (
(314,365,o),
(307,361,o),
(307,352,cs),
(307,344,o),
(314,340,o),
(326,340,c),
(401,340,o),
(401,305,o),
(401,280,c),
(411,365,l),
(326,365,l)
);
},
{
angle = 180;
pos = (501,365);
ref = _serif.H;
}
);
width = 600;
},
{
anchors = (
{
name = bottom;
pos = (310,0);
},
{
name = top;
pos = (310,667);
}
);
layerId = m009;
shapes = (
{
ref = C;
},
{
closed = 1;
nodes = (
(532,31,l),
(532,365,l),
(352,365,l),
(352,65,l),
(464,31,l)
);
},
{
closed = 1;
nodes = (
(265,365,o),
(258,361,o),
(258,352,cs),
(258,344,o),
(265,340,o),
(277,340,cs),
(352,340,o),
(352,305,o),
(352,280,c),
(362,365,l),
(277,365,ls)
);
},
{
angle = 180;
pos = (532,365);
ref = _serif.H;
}
);
width = 601;
}
);
metricLeft = "=O";
metricRight = "=H";
note = C;
unicode = 71;
}
{
glyphname = H;
layers = (
{
anchors = (
{
name = bottom;
pos = (325,0);
},
{
name = center;
pos = (325,500);
},
{
name = top;
pos = (325,667);
},
{
name = topleft;
pos = (20,667);
}
);
layerId = m004;
shapes = (
{
closed = 1;
nodes = (
(187,315,l),
(462,315,l),
(462,0,l),
(537,0,l),
(537,667,l),
(462,667,l),
(462,365,l),
(187,365,l),
(187,667,l),
(112,667,l),
(112,0,l),
(187,0,l)
);
},
{
pos = (462,0);
ref = _serif.H;
},
{
pos = (537,0);
ref = _serif.H;
scale = (-1,1);
},
{
pos = (112,0);
ref = _serif.H;
},
{
pos = (187,0);
ref = _serif.H;
scale = (-1,1);
},
{
pos = (462,667);
ref = _serif.H;
scale = (1,-1);
},
{
angle = 180;
pos = (537,667);
ref = _serif.H;
},
{
pos = (112,667);
ref = _serif.H;
scale = (1,-1);
},
{
angle = 180;
pos = (187,667);
ref = _serif.H;
}
);
width = 649;
},
{
anchors = (
{
name = bottom;
pos = (324,0);
},
{
name = center;
pos = (324,500);
},
{
name = top;
pos = (324,667);
},
{
name = topleft;
pos = (20,667);
}
);
hints = (
{
horizontal = 1;
place = (25,21);
target = up;
type = BottomGhost;
},
{
horizontal = 1;
place = (330,100);
type = Stem;
},
{
place = (95,125);
type = Stem;
},
{
place = (455,125);
type = Stem;
}
);
layerId = m005;
shapes = (
{
closed = 1;
nodes = (
(199,310,l),
(449,310,l),
(449,0,l),
(549,0,l),
(549,667,l),
(449,667,l),
(450,370,l),
(200,370,l),
(199,667,l),
(99,667,l),
(99,0,l),
(199,0,l)
);
},
{
pos = (449,0);
ref = _serif.H;
},
{
pos = (549,0);
ref = _serif.H;
scale = (-1,1);
},
{
pos = (99,0);
ref = _serif.H;
},
{
pos = (199,0);
ref = _serif.H;
scale = (-1,1);
},
{
pos = (449,667);
ref = _serif.H;
scale = (1,-1);
},
{
angle = 180;
pos = (549,667);
ref = _serif.H;
},
{
pos = (99,667);
ref = _serif.H;
scale = (1,-1);
},
{
angle = 180;
pos = (199,667);
ref = _serif.H;
}
);
width = 648;
},
{
anchors = (
{
name = bottom;
pos = (344,0);
},
{
name = center;
pos = (344,500);
},
{
name = top;
pos = (344,667);
},
{
name = topleft;
pos = (20,667);
}
);
layerId = m006;
shapes = (
{
closed = 1;
nodes = (
(269,295,l),
(419,295,l),
(419,0,l),
(619,0,l),
(619,667,l),
(419,667,l),
(419,385,l),
(269,385,l),
(269,667,l),
(69,667,l),
(69,0,l),
(269,0,l)
);
},
{
pos = (419,0);
ref = _serif.H;
},
{
pos = (619,0);
ref = _serif.H;
scale = (-1,1);
},
{
pos = (69,0);
ref = _serif.H;
},
{
pos = (269,0);
ref = _serif.H;
scale = (-1,1);
},
{
pos = (419,667);
ref = _serif.H;
scale = (1,-1);
},
{
angle = 180;
pos = (619,667);
ref = _serif.H;
},
{
pos = (69,667);
ref = _serif.H;
scale = (1,-1);
},
{
angle = 180;
pos = (269,667);
ref = _serif.H;
}
);
width = 688;
},
{
anchors = (
{
name = bottom;
pos = (325,0);
},
{
name = center;
pos = (325,500);
},
{
name = top;
pos = (325,667);
},
{
name = topleft;
pos = (20,667);
}
);
layerId = m007;
shapes = (
{
closed = 1;
nodes = (
(187,321,l),
(462,321,l),
(462,0,l),
(537,0,l),
(537,667,l),
(462,667,l),
(462,359,l),
(187,359,l),
(187,667,l),
(112,667,l),
(112,0,l),
(187,0,l)
);
},
{
pos = (462,0);
ref = _serif.H;
},
{
pos = (537,0);
ref = _serif.H;
scale = (-1,1);
},
{
pos = (112,0);
ref = _serif.H;
},
{
pos = (187,0);
ref = _serif.H;
scale = (-1,1);
},
{
pos = (462,667);
ref = _serif.H;
scale = (1,-1);
},
{
angle = 180;
pos = (537,667);
ref = _serif.H;
},
{
pos = (112,667);
ref = _serif.H;
scale = (1,-1);
},
{
angle = 180;
pos = (187,667);
ref = _serif.H;
}
);
width = 649;
},
{
anchors = (
{
name = bottom;
pos = (324,0);
},
{
name = center;
pos = (324,500);
},
{
name = top;
pos = (324,667);
},
{
name = topleft;
pos = (20,667);
}
);
hints = (
{
horizontal = 1;
place = (25,21);
target = up;
type = BottomGhost;
},
{
horizontal = 1;
place = (330,100);
type = Stem;
},
{
place = (95,125);
type = Stem;
},
{
place = (455,125);
type = Stem;
}
);
layerId = m008;
shapes = (
{
closed = 1;
nodes = (
(199,318,l),
(449,318,l),
(449,0,l),
(549,0,l),
(549,667,l),
(449,667,l),
(449,362,l),
(199,362,l),
(199,667,l),
(99,667,l),
(99,0,l),
(199,0,l)
);
},
{
pos = (449,0);
ref = _serif.H;
},
{
pos = (549,0);
ref = _serif.H;
scale = (-1,1);
},
{
pos = (99,0);
ref = _serif.H;
},
{
pos = (199,0);
ref = _serif.H;
scale = (-1,1);
},
{
pos = (449,667);
ref = _serif.H;
scale = (1,-1);
},
{
angle = 180;
pos = (549,667);
ref = _serif.H;
},
{
pos = (99,667);
ref = _serif.H;
scale = (1,-1);
},
{
angle = 180;
pos = (199,667);
ref = _serif.H;
}
);
width = 648;
},
{
anchors = (
{
name = bottom;
pos = (344,0);
},
{
name = center;
pos = (344,500);
},
{
name = top;
pos = (344,667);
},
{
name = topleft;
pos = (20,667);
}
);
layerId = m009;
shapes = (
{
closed = 1;
nodes = (
(269,310,l),
(419,310,l),
(419,0,l),
(619,0,l),
(619,667,l),
(419,667,l),
(419,370,l),
(269,370,l),
(269,667,l),
(69,667,l),
(69,0,l),
(269,0,l)
);
},
{
pos = (419,0);
ref = _serif.H;
},
{
pos = (619,0);
ref = _serif.H;
scale = (-1,1);
},
{
pos = (69,0);
ref = _serif.H;
},
{
pos = (269,0);
ref = _serif.H;
scale = (-1,1);
},
{
pos = (419,667);
ref = _serif.H;
scale = (1,-1);
},
{
angle = 180;
pos = (619,667);
ref = _serif.H;
},
{
pos = (69,667);
ref = _serif.H;
scale = (1,-1);
},
{
angle = 180;
pos = (269,667);
ref = _serif.H;
}
);
width = 688;
}
);
note = H;
unicode = 72;
}
{
glyphname = I;
layers = (
{
anchors = (
{
name = bottom;
pos = (150,0);
},
{
name = ogonek;
pos = (269,10);
},
{
name = top;
pos = (150,667);
},
{
name = topleft;
pos = (20,667);
}
);
layerId = m004;
shapes = (
{
closed = 1;
nodes = (
(187,667,l),
(112,667,l),
(112,0,l),
(187,0,l)
);
},
{
pos = (112,0);
ref = _serif.H;
},
{
pos = (187,0);
ref = _serif.H;
scale = (-1,1);
},
{
pos = (112,667);
ref = _serif.H;
scale = (1,-1);
},
{
angle = 180;
pos = (187,667);
ref = _serif.H;
}
);
width = 299;
},
{
anchors = (
{
name = bottom;
pos = (149,0);
},
{
name = ogonek;
pos = (268,10);
},
{
name = top;
pos = (149,667);
},
{
name = topleft;
pos = (20,667);
}
);
hints = (
{
horizontal = 1;
place = (25,21);
target = up;
type = BottomGhost;
},
{
place = (95,125);
type = Stem;
}
);
layerId = m005;
shapes = (
{
closed = 1;
nodes = (
(199,667,l),
(99,667,l),
(99,0,l),
(199,0,l)
);
},
{
pos = (99,0);
ref = _serif.H;
},
{
pos = (199,0);
ref = _serif.H;
scale = (-1,1);
},
{
pos = (99,667);
ref = _serif.H;
scale = (1,-1);
},
{
angle = 180;
pos = (199,667);
ref = _serif.H;
}
);
width = 298;
},
{
anchors = (
{
name = bottom;
pos = (169,0);
},
{
name = ogonek;
pos = (304,10);
},
{
name = top;
pos = (169,667);
},
{
name = topleft;
pos = (20,667);
}
);
layerId = m006;
shapes = (
{
closed = 1;
nodes = (
(269,667,l),
(69,667,l),
(69,0,l),
(269,0,l)
);
},
{
pos = (69,0);
ref = _serif.H;
},
{
pos = (269,0);
ref = _serif.H;
scale = (-1,1);
},
{
pos = (69,667);
ref = _serif.H;
scale = (1,-1);
},
{
angle = 180;
pos = (269,667);
ref = _serif.H;
}
);
width = 338;
},
{
anchors = (
{
name = bottom;
pos = (150,0);
},
{
name = ogonek;
pos = (269,10);
},
{
name = top;
pos = (150,667);
},
{
name = topleft;
pos = (20,667);
}
);
layerId = m007;
shapes = (
{
closed = 1;
nodes = (
(187,667,l),
(112,667,l),
(112,0,l),
(187,0,l)
);
},
{
pos = (112,0);
ref = _serif.H;
},
{
pos = (187,0);
ref = _serif.H;
scale = (-1,1);
},
{
pos = (112,667);
ref = _serif.H;
scale = (1,-1);
},
{
angle = 180;
pos = (187,667);
ref = _serif.H;
}
);
width = 299;
},
{
anchors = (
{
name = bottom;
pos = (149,0);
},
{
name = ogonek;
pos = (268,10);
},
{
name = top;
pos = (149,667);
},
{
name = topleft;
pos = (20,667);
}
);
layerId = m008;
shapes = (
{
closed = 1;
nodes = (
(199,667,l),
(99,667,l),
(99,0,l),
(199,0,l)
);
},
{
pos = (99,0);
ref = _serif.H;
},
{
pos = (199,0);
ref = _serif.H;
scale = (-1,1);
},
{
pos = (99,667);
ref = _serif.H;
scale = (1,-1);
},
{
angle = 180;
pos = (199,667);
ref = _serif.H;
}
);
width = 298;
},
{
anchors = (
{
name = bottom;
pos = (169,0);
},
{
name = ogonek;
pos = (304,10);
},
{
name = top;
pos = (169,667);
},
{
name = topleft;
pos = (20,667);
}
);
layerId = m009;
shapes = (
{
closed = 1;
nodes = (
(269,667,l),
(69,667,l),
(69,0,l),
(269,0,l)
);
},
{
pos = (69,0);
ref = _serif.H;
},
{
pos = (269,0);
ref = _serif.H;
scale = (-1,1);
},
{
pos = (69,667);
ref = _serif.H;
scale = (1,-1);
},
{
angle = 180;
pos = (269,667);
ref = _serif.H;
}
);
width = 338;
}
);
metricLeft = "=H";
metricRight = "=H";
note = I;
unicode = 73;
}
{
glyphname = J;
layers = (
{
anchors = (
{
name = bottom;
pos = (207,0);
},
{
name = top;
pos = (207,667);
}
);
layerId = m004;
shapes = (
{
closed = 1;
nodes = (
(294,-8,o),
(351,93,o),
(351,270,cs),
(351,667,l),
(276,667,l),
(276,270,ls),
(276,121,o),
(245,40,o),
(147,40,c),
(148,-10,l)
);
},
{
closed = 1;
nodes = (
(147,40,l),
(68,40,o),
(58,150,o),
(33,150,cs),
(8,150,o),
(6,46,o),
(9,29,c),
(57,4,o),
(89,-8,o),
(148,-10,c)
);
},
{
closed = 1;
nodes = (
(189,667,o),
(182,658,o),
(182,649,cs),
(182,641,o),
(189,632,o),
(201,632,cs),
(276,632,o),
(276,607,o),
(276,582,c),
(286,667,l),
(201,667,ls)
);
},
{
angle = 180;
pos = (351,667);
ref = _serif.H;
}
);
width = 442;
},
{
anchors = (
{
name = bottom;
pos = (229,0);
},
{
name = top;
pos = (229,667);
}
);
hints = (
{
horizontal = 1;
place = (15,110);
type = Stem;
},
{
horizontal = 1;
place = (622,105);
type = Stem;
},
{
place = (60,135);
type = Stem;
}
);
layerId = m005;
shapes = (
{
closed = 1;
nodes = (
(312,-10,o),
(373,90,o),
(373,270,cs),
(373,667,l),
(273,667,l),
(273,270,ls),
(273,124,o),
(240,50,o),
(158,50,c),
(158,-10,l)
);
},
{
closed = 1;
nodes = (
(158,50,l),
(76,50,o),
(80,150,o),
(43,150,cs),
(6,150,o),
(4,58,o),
(6,33,c),
(59,5,o),
(98,-10,o),
(158,-10,c)
);
},
{
closed = 1;
nodes = (
(186,667,o),
(179,658,o),
(179,649,cs),
(179,641,o),
(186,632,o),
(198,632,c),
(273,632,o),
(273,607,o),
(273,582,c),
(283,667,l),
(198,667,l)
);
},
{
angle = 180;
pos = (373,667);
ref = _serif.H;
}
);
width = 457;
},
{
anchors = (
{
name = bottom;
pos = (304,0);
},
{
name = top;
pos = (304,667);
}
);
layerId = m006;
shapes = (
{
closed = 1;
nodes = (
(417,-10,o),
(510,86,o),
(510,290,cs),
(510,667,l),
(310,667,l),
(310,290,ls),
(310,131,o),
(284,80,o),
(220,80,c),
(220,-10,l)
);
},
{
closed = 1;
nodes = (
(220,80,l),
(156,80,o),
(96,170,o),
(60,170,cs),
(24,170,o),
(-16,100,o),
(13,31,c),
(66,0,o),
(160,-10,o),
(220,-10,c)
);
},
{
closed = 1;
nodes = (
(223,667,o),
(216,658,o),
(216,649,cs),
(216,641,o),
(223,632,o),
(235,632,c),
(310,632,o),
(310,607,o),
(310,582,c),
(320,667,l),
(235,667,l)
);
},
{
angle = 180;
pos = (510,667);
ref = _serif.H;
}
);
width = 579;
},
{
anchors = (
{
name = bottom;
pos = (207,0);
},
{
name = top;
pos = (207,667);
}
);
layerId = m007;
shapes = (
{
closed = 1;
nodes = (
(294,-8,o),
(351,93,o),
(351,270,cs),
(351,667,l),
(276,667,l),
(276,270,ls),
(276,109,o),
(245,28,o),
(147,28,c),
(148,-10,l)
);
},
{
closed = 1;
nodes = (
(147,28,l),
(68,28,o),
(58,150,o),
(33,150,cs),
(8,150,o),
(6,46,o),
(9,29,c),
(57,4,o),
(89,-8,o),
(148,-10,c)
);
},
{
closed = 1;
nodes = (
(189,667,o),
(182,663,o),
(182,654,cs),
(182,646,o),
(189,642,o),
(201,642,cs),
(276,642,o),
(276,607,o),
(276,582,c),
(286,667,l),
(201,667,ls)
);
},
{
angle = 180;
pos = (351,667);
ref = _serif.H;
}
);
width = 442;
},
{
anchors = (
{
name = bottom;
pos = (229,0);
},
{
name = top;
pos = (229,667);
}
);
hints = (
{
horizontal = 1;
place = (15,110);
type = Stem;
},
{
horizontal = 1;
place = (622,105);
type = Stem;
},
{
place = (60,135);
type = Stem;
}
);
layerId = m008;
shapes = (
{
closed = 1;
nodes = (
(312,-10,o),
(373,90,o),
(373,270,cs),
(373,667,l),
(273,667,l),
(273,270,ls),
(273,108,o),
(240,34,o),
(158,34,c),
(158,-10,l)
);
},
{
closed = 1;
nodes = (
(158,34,l),
(76,34,o),
(80,150,o),
(43,150,cs),
(6,150,o),
(4,58,o),
(6,33,c),
(59,5,o),
(98,-10,o),
(158,-10,c)
);
},
{
closed = 1;
nodes = (
(186,667,o),
(179,663,o),
(179,654,cs),
(179,646,o),
(186,642,o),
(198,642,c),
(273,642,o),
(273,607,o),
(273,582,c),
(283,667,l),
(198,667,l)
);
},
{
angle = 180;
pos = (373,667);
ref = _serif.H;
}
);
width = 457;
},
{
anchors = (
{
name = bottom;
pos = (304,0);
},
{
name = top;
pos = (304,667);
}
);
layerId = m009;
shapes = (
{
closed = 1;
nodes = (
(417,-10,o),
(510,86,o),
(510,290,cs),
(510,667,l),
(310,667,l),
(310,290,ls),
(310,101,o),
(284,50,o),
(220,50,c),
(220,-10,l)
);
},
{
closed = 1;
nodes = (
(220,50,l),
(156,50,o),
(96,170,o),
(60,170,cs),
(24,170,o),
(-16,100,o),
(13,31,c),
(66,0,o),
(160,-10,o),
(220,-10,c)
);
},
{
closed = 1;
nodes = (
(223,667,o),
(216,663,o),
(216,654,cs),
(216,646,o),
(223,642,o),
(235,642,c),
(310,642,o),
(310,607,o),
(310,582,c),
(320,667,l),
(235,667,l)
);
},
{
angle = 180;
pos = (510,667);
ref = _serif.H;
}
);
width = 579;
}
);
metricLeft = "=O/4";
metricRight = "=U";
note = C;
unicode = 74;
}
{
glyphname = K;
layers = (
{
layerId = m004;
shapes = (
{
closed = 1;
nodes = (
(527,667,l),
(471,667,l),
(168,269,l),
(173,203,l)
);
},
{
closed = 1;
nodes = (
(187,0,l),
(188,667,l),
(112,667,l),
(112,0,l)
);
},
{
closed = 1;
nodes = (
(552,0,l),
(531,181,o),
(423,316,o),
(304,395,c),
(253,329,l),
(370,258,o),
(443,149,o),
(461,0,c)
);
},
{
closed = 1;
nodes = (
(466,0,l),
(444,85,l),
(450,60,o),
(456,35,o),
(406,35,c),
(394,35,o),
(387,26,o),
(387,18,cs),
(387,9,o),
(394,0,o),
(406,0,c)
);
},
{
closed = 1;
nodes = (
(610,0,o),
(617,9,o),
(617,18,cs),
(617,26,o),
(610,35,o),
(598,35,c),
(548,35,o),
(542,60,o),
(535,85,c),
(538,0,l),
(598,0,l)
);
},
{
closed = 1;
nodes = (
(382,667,o),
(375,658,o),
(375,649,cs),
(375,641,o),
(382,632,o),
(394,632,c),
(444,632,o),
(425,607,o),
(407,582,c),
(479,667,l),
(394,667,l)
);
},
{
closed = 1;
nodes = (
(490,667,l),
(462,582,l),
(481,607,o),
(500,632,o),
(550,632,c),
(562,632,o),
(569,641,o),
(569,649,cs),
(569,658,o),
(562,667,o),
(550,667,c)
);
},
{
pos = (112,667);
ref = _serif.H;
scale = (1,-1);
},
{
angle = 180;
pos = (188,667);
ref = _serif.H;
},
{
pos = (112,0);
ref = _serif.H;
},
{
pos = (187,0);
ref = _serif.H;
scale = (-1,1);
}
);
width = 628;
},
{
hints = (
{
horizontal = 1;
place = (25,21);
target = up;
type = BottomGhost;
},
{
horizontal = 1;
place = (307,92);
type = Stem;
},
{
horizontal = 1;
place = (623,94);
type = Stem;
},
{
place = (95,125);
type = Stem;
},
{
place = (431,124);
type = Stem;
}
);
layerId = m005;
shapes = (
{
closed = 1;
nodes = (
(537,667,l),
(461,667,l),
(199,323,l),
(199,225,l)
);
},
{
closed = 1;
nodes = (
(199,0,l),
(200,667,l),
(99,667,l),
(99,0,l)
);
},
{
closed = 1;
nodes = (
(564,0,l),
(534,260,o),
(323,395,o),
(323,395,c),
(264,315,l),
(264,315,o),
(419,240,o),
(449,0,c)
);
},
{
closed = 1;
nodes = (
(459,0,l),
(432,85,l),
(440,60,o),
(449,35,o),
(399,35,c),
(387,35,o),
(380,26,o),
(380,18,cs),
(380,9,o),
(387,0,o),
(399,0,c)
);
},
{
closed = 1;
nodes = (
(621,0,o),
(628,9,o),
(628,18,cs),
(628,26,o),
(621,35,o),
(609,35,c),
(559,35,o),
(554,60,o),
(547,84,c),
(549,0,l),
(609,0,l)
);
},
{
closed = 1;
nodes = (
(372,667,o),
(365,658,o),
(365,649,cs),
(365,641,o),
(372,632,o),
(384,632,c),
(434,632,o),
(415,607,o),
(396,582,c),
(469,667,l),
(384,667,l)
);
},
{
closed = 1;
nodes = (
(500,667,l),
(472,582,l),
(491,607,o),
(510,632,o),
(560,632,c),
(572,632,o),
(579,641,o),
(579,649,cs),
(579,658,o),
(572,667,o),
(560,667,c)
);
},
{
pos = (99,667);
ref = _serif.H;
scale = (1,-1);
},
{
angle = 180;
pos = (200,667);
ref = _serif.H;
},
{
pos = (99,0);
ref = _serif.H;
},
{
pos = (199,0);
ref = _serif.H;
scale = (-1,1);
}
);
width = 636;
},
{
layerId = m006;
shapes = (
{
closed = 1;
nodes = (
(657,667,l),
(451,667,l),
(219,363,l),
(269,225,l)
);
},
{
closed = 1;
nodes = (
(269,0,l),
(270,667,l),
(69,667,l),
(69,0,l)
);
},
{
closed = 1;
nodes = (
(649,0,l),
(619,340,o),
(403,395,o),
(403,395,c),
(299,265,l),
(299,265,o),
(419,230,o),
(449,0,c)
);
},
{
closed = 1;
nodes = (
(458,0,l),
(431,85,l),
(439,60,o),
(448,35,o),
(398,35,c),
(386,35,o),
(379,26,o),
(379,18,cs),
(379,9,o),
(386,0,o),
(398,0,c)
);
},
{
closed = 1;
nodes = (
(708,0,o),
(715,9,o),
(715,18,cs),
(715,26,o),
(708,35,o),
(696,35,c),
(646,35,o),
(641,60,o),
(637,84,c),
(636,0,l),
(696,0,l)
);
},
{
closed = 1;
nodes = (
(362,667,o),
(355,658,o),
(355,649,cs),
(355,641,o),
(362,632,o),
(374,632,c),
(424,632,o),
(405,607,o),
(386,582,c),
(459,667,l),
(374,667,l)
);
},
{
closed = 1;
nodes = (
(610,667,l),
(582,582,l),
(604,607,o),
(620,632,o),
(670,632,c),
(682,632,o),
(689,641,o),
(689,649,cs),
(689,658,o),
(682,667,o),
(670,667,c)
);
},
{
pos = (69,667);
ref = _serif.H;
scale = (1,-1);
},
{
angle = 180;
pos = (270,667);
ref = _serif.H;
},
{
pos = (69,0);
ref = _serif.H;
},
{
pos = (269,0);
ref = _serif.H;
scale = (-1,1);
}
);
width = 715;
},
{
layerId = m007;
shapes = (
{
closed = 1;
nodes = (
(527,667,l),
(471,667,l),
(168,269,l),
(173,203,l)
);
},
{
closed = 1;
nodes = (
(187,0,l),
(188,667,l),
(112,667,l),
(112,0,l)
);
},
{
closed = 1;
nodes = (
(552,0,l),
(531,181,o),
(423,316,o),
(304,395,c),
(253,335,l),
(370,258,o),
(443,149,o),
(461,0,c)
);
},
{
closed = 1;
nodes = (
(468,0,l),
(444,85,l),
(450,60,o),
(458,25,o),
(408,25,c),
(396,25,o),
(389,21,o),
(389,13,cs),
(389,4,o),
(396,0,o),
(408,0,c)
);
},
{
closed = 1;
nodes = (
(610,0,o),
(617,4,o),
(617,13,cs),
(617,21,o),
(610,25,o),
(598,25,c),
(548,25,o),
(542,60,o),
(535,85,c),
(538,0,l),
(598,0,l)
);
},
{
closed = 1;
nodes = (
(389,667,o),
(382,663,o),
(382,654,cs),
(382,646,o),
(389,642,o),
(401,642,c),
(451,642,o),
(426,607,o),
(408,582,c),
(486,667,l),
(401,667,l)
);
},
{
closed = 1;
nodes = (
(498,667,l),
(462,582,l),
(481,607,o),
(508,642,o),
(558,642,c),
(570,642,o),
(577,646,o),
(577,654,cs),
(577,663,o),
(570,667,o),
(558,667,c)
);
},
{
pos = (112,667);
ref = _serif.H;
scale = (1,-1);
},
{
angle = 180;
pos = (188,667);
ref = _serif.H;
},
{
pos = (112,0);
ref = _serif.H;
},
{
pos = (187,0);
ref = _serif.H;
scale = (-1,1);
}
);
width = 628;
},
{
hints = (
{
horizontal = 1;
place = (25,21);
target = up;
type = BottomGhost;
},
{
horizontal = 1;
place = (307,92);
type = Stem;
},
{
horizontal = 1;
place = (623,94);
type = Stem;
},
{
place = (95,125);
type = Stem;
},
{
place = (431,124);
type = Stem;
}
);
layerId = m008;
shapes = (
{
closed = 1;
nodes = (
(537,667,l),
(461,667,l),
(199,323,l),
(199,225,l)
);
},
{
closed = 1;
nodes = (
(199,0,l),
(200,667,l),
(99,667,l),
(99,0,l)
);
},
{
closed = 1;
nodes = (
(564,0,l),
(534,260,o),
(323,395,o),
(323,395,c),
(264,327,l),
(264,327,o),
(419,240,o),
(449,0,c)
);
},
{
closed = 1;
nodes = (
(456,0,l),
(431,85,l),
(439,60,o),
(446,25,o),
(396,25,c),
(384,25,o),
(377,21,o),
(377,13,cs),
(377,4,o),
(384,0,o),
(396,0,c)
);
},
{
closed = 1;
nodes = (
(623,0,o),
(630,4,o),
(630,13,cs),
(630,21,o),
(623,25,o),
(611,25,c),
(561,25,o),
(554,60,o),
(547,84,c),
(551,0,l),
(611,0,l)
);
},
{
closed = 1;
nodes = (
(380,667,o),
(373,663,o),
(373,654,cs),
(373,646,o),
(380,642,o),
(392,642,c),
(442,642,o),
(415,607,o),
(396,582,c),
(477,667,l),
(392,667,l)
);
},
{
closed = 1;
nodes = (
(507,667,l),
(472,582,l),
(491,607,o),
(517,642,o),
(567,642,c),
(579,642,o),
(586,646,o),
(586,654,cs),
(586,663,o),
(579,667,o),
(567,667,c)
);
},
{
pos = (99,667);
ref = _serif.H;
scale = (1,-1);
},
{
angle = 180;
pos = (200,667);
ref = _serif.H;
},
{
pos = (99,0);
ref = _serif.H;
},
{
pos = (199,0);
ref = _serif.H;
scale = (-1,1);
}
);
width = 638;
},
{
layerId = m009;
shapes = (
{
closed = 1;
nodes = (
(627,667,l),
(481,667,l),
(249,363,l),
(269,225,l)
);
},
{
closed = 1;
nodes = (
(269,0,l),
(270,667,l),
(69,667,l),
(69,0,l)
);
},
{
closed = 1;
nodes = (
(649,0,l),
(619,340,o),
(393,395,o),
(393,395,c),
(299,295,l),
(299,295,o),
(419,260,o),
(449,0,c)
);
},
{
closed = 1;
nodes = (
(456,0,l),
(435,85,l),
(440,60,o),
(446,25,o),
(396,25,c),
(384,25,o),
(377,21,o),
(377,13,cs),
(377,4,o),
(384,0,o),
(396,0,c)
);
},
{
closed = 1;
nodes = (
(708,0,o),
(715,4,o),
(715,13,cs),
(715,21,o),
(708,25,o),
(696,25,c),
(646,25,o),
(641,60,o),
(637,84,c),
(636,0,l),
(696,0,l)
);
},
{
closed = 1;
nodes = (
(400,667,o),
(393,663,o),
(393,654,cs),
(393,646,o),
(400,642,o),
(412,642,c),
(462,642,o),
(435,607,o),
(416,582,c),
(497,667,l),
(412,667,l)
);
},
{
closed = 1;
nodes = (
(601,667,l),
(558,582,l),
(580,607,o),
(611,642,o),
(661,642,c),
(673,642,o),
(680,646,o),
(680,654,cs),
(680,663,o),
(673,667,o),
(661,667,c)
);
},
{
pos = (69,667);
ref = _serif.H;
scale = (1,-1);
},
{
angle = 180;
pos = (270,667);
ref = _serif.H;
},
{
pos = (69,0);
ref = _serif.H;
},
{
pos = (269,0);
ref = _serif.H;
scale = (-1,1);
}
);
width = 715;
}
);
metricLeft = "=H";
metricRight = "=H/4";
note = P;
unicode = 75;
}
{
glyphname = L;
layers = (
{
anchors = (
{
name = bottom;
pos = (237,0);
},
{
name = center;
pos = (237,334);
},
{
name = top;
pos = (237,667);
},
{
name = topright;
pos = (454,667);
}
);
layerId = m004;
shapes = (
{
closed = 1;
nodes = (
(112,667,l),
(112,0,l),
(437,0,l),
(437,50,l),
(187,50,l),
(187,667,l)
);
},
{
pos = (112,0);
ref = _serif.H;
},
{
pos = (112,667);
ref = _serif.H;
scale = (1,-1);
},
{
angle = 180;
pos = (437,500);
ref = _serif.z;
},
{
angle = 180;
pos = (187,667);
ref = _serif.H;
}
);
width = 474;
},
{
anchors = (
{
name = bottom;
pos = (232,0);
},
{
name = center;
pos = (232,334);
},
{
name = top;
pos = (232,667);
},
{
name = topright;
pos = (444,667);
}
);
hints = (
{
horizontal = 1;
place = (25,100);
type = Stem;
},
{
horizontal = 1;
place = (330,99);
type = Stem;
},
{
horizontal = 1;
place = (617,100);
type = Stem;
},
{
place = (95,125);
type = Stem;
}
);
layerId = m005;
shapes = (
{
closed = 1;
nodes = (
(99,667,l),
(99,0,l),
(449,0,l),
(449,60,l),
(199,60,l),
(199,667,l)
);
},
{
pos = (99,0);
ref = _serif.H;
},
{
pos = (99,667);
ref = _serif.H;
scale = (1,-1);
},
{
angle = 180;
pos = (449,500);
ref = _serif.z;
},
{
angle = 180;
pos = (199,667);
ref = _serif.H;
}
);
width = 479;
},
{
anchors = (
{
name = bottom;
pos = (267,0);
},
{
name = center;
pos = (267,334);
},
{
name = top;
pos = (267,667);
},
{
name = topright;
pos = (514,667);
}
);
layerId = m006;
shapes = (
{
closed = 1;
nodes = (
(69,667,l),
(69,0,l),
(519,0,l),
(519,90,l),
(269,90,l),
(269,667,l)
);
},
{
pos = (69,0);
ref = _serif.H;
},
{
pos = (69,667);
ref = _serif.H;
scale = (1,-1);
},
{
angle = 180;
pos = (519,500);
ref = _serif.z;
},
{
angle = 180;
pos = (269,667);
ref = _serif.H;
}
);
width = 534;
},
{
anchors = (
{
name = bottom;
pos = (237,0);
},
{
name = center;
pos = (237,334);
},
{
name = top;
pos = (237,667);
},
{
name = topright;
pos = (454,667);
}
);
layerId = m007;
shapes = (
{
closed = 1;
nodes = (
(112,667,l),
(112,0,l),
(437,0,l),
(437,38,l),
(187,38,l),
(187,667,l)
);
},
{
pos = (112,0);
ref = _serif.H;
},
{
pos = (112,667);
ref = _serif.H;
scale = (1,-1);
},
{
angle = 180;
pos = (437,500);
ref = _serif.z;
},
{
angle = 180;
pos = (187,667);
ref = _serif.H;
}
);
width = 474;
},
{
anchors = (
{
name = bottom;
pos = (240,0);
},
{
name = center;
pos = (240,334);
},
{
name = top;
pos = (240,667);
},
{
name = topright;
pos = (459,667);
}
);
hints = (
{
horizontal = 1;
place = (25,100);
type = Stem;
},
{
horizontal = 1;
place = (330,99);
type = Stem;
},
{
horizontal = 1;
place = (617,100);
type = Stem;
},
{
place = (95,125);
type = Stem;
}
);
layerId = m008;
shapes = (
{
closed = 1;
nodes = (
(99,667,l),
(99,0,l),
(449,0,l),
(449,44,l),
(199,44,l),
(199,667,l)
);
},
{
pos = (99,0);
ref = _serif.H;
},
{
pos = (99,667);
ref = _serif.H;
scale = (1,-1);
},
{
angle = 180;
pos = (449,500);
ref = _serif.z;
},
{
angle = 180;
pos = (199,667);
ref = _serif.H;
}
);
width = 479;
},
{
anchors = (
{
name = bottom;
pos = (267,0);
},
{
name = center;
pos = (267,334);
},
{
name = top;
pos = (267,667);
},
{
name = topright;
pos = (514,667);
}
);
layerId = m009;
shapes = (
{
closed = 1;
nodes = (
(69,667,l),
(69,0,l),
(519,0,l),
(519,60,l),
(269,60,l),
(269,667,l)
);
},
{
pos = (69,0);
ref = _serif.H;
},
{
pos = (69,667);
ref = _serif.H;
scale = (1,-1);
},
{
angle = 180;
pos = (519,500);
ref = _serif.z;
},
{
angle = 180;
pos = (269,667);
ref = _serif.H;
}
);
width = 534;
}
);
metricLeft = "=H";
metricRight = "=H/2";
note = E;
unicode = 76;
}
{
glyphname = M;
layers = (
{
anchors = (
{
name = bottom;
pos = (427,0);
},
{
name = top;
pos = (427,667);
}
);
layerId = m004;
shapes = (
{
closed = 1;
nodes = (
(473,0,l),
(641,667,l),
(596,667,l),
(435,30,l),
(280,667,l),
(194,667,l),
(367,0,l)
);
},
{
closed = 1;
nodes = (
(116,0,l),
(115,83,l),
(112,60,o),
(106,35,o),
(56,35,cs),
(44,35,o),
(37,26,o),
(37,18,cs),
(37,9,o),
(44,0,o),
(56,0,cs)
);
},
{
closed = 1;
nodes = (
(152,0,l),
(169,186,o),
(205,420,o),
(268,667,c),
(228,667,l),
(163,449,o),
(134,186,o),
(102,0,c)
);
},
{
closed = 1;
nodes = (
(203,0,ls),
(215,0,o),
(222,9,o),
(222,18,cs),
(222,26,o),
(215,35,o),
(203,35,cs),
(153,35,o),
(157,59,o),
(159,83,c),
(143,0,l)
);
},
{
closed = 1;
nodes = (
(681,0,l),
(665,84,l),
(666,60,o),
(671,35,o),
(621,35,cs),
(609,35,o),
(602,26,o),
(602,18,cs),
(602,9,o),
(609,0,o),
(621,0,cs)
);
},
{
closed = 1;
nodes = (
(213,667,l),
(153,667,ls),
(141,667,o),
(134,658,o),
(134,649,cs),
(134,641,o),
(141,632,o),
(153,632,cs),
(203,632,o),
(211,607,o),
(216,583,c)
);
},
{
closed = 1;
nodes = (
(808,0,ls),
(820,0,o),
(827,9,o),
(827,18,cs),
(827,26,o),
(820,35,o),
(808,35,cs),
(758,35,o),
(754,60,o),
(751,84,c),
(748,0,l)
);
},
{
closed = 1;
nodes = (
(294,607,o),
(288,632,o),
(338,632,cs),
(350,632,o),
(357,641,o),
(357,649,cs),
(357,658,o),
(350,667,o),
(338,667,cs),
(278,667,l),
(299,583,l)
);
},
{
closed = 1;
nodes = (
(764,0,l),
(733,186,o),
(713,450,o),
(648,667,c),
(571,667,l),
(623,475,o),
(655,186,o),
(672,0,c)
);
},
{
closed = 1;
nodes = (
(599,667,l),
(539,667,ls),
(527,667,o),
(520,658,o),
(520,649,cs),
(520,641,o),
(527,632,o),
(539,632,cs),
(589,632,o),
(582,608,o),
(576,584,c)
);
},
{
closed = 1;
nodes = (
(664,607,o),
(659,632,o),
(709,632,cs),
(721,632,o),
(728,641,o),
(728,649,cs),
(728,658,o),
(721,667,o),
(709,667,cs),
(639,667,l),
(670,583,l)
);
}
);
width = 864;
},
{
anchors = (
{
name = bottom;
pos = (409,0);
},
{
name = top;
pos = (409,667);
}
);
hints = (
{
horizontal = 1;
place = (0,21);
target = up;
type = BottomGhost;
},
{
place = (35,644);
type = Stem;
}
);
layerId = m005;
shapes = (
{
closed = 1;
nodes = (
(446,0,l),
(626,667,l),
(565,667,l),
(416,55,l),
(273,667,l),
(163,667,l),
(336,0,l)
);
},
{
closed = 1;
nodes = (
(85,0,l),
(84,83,l),
(81,60,o),
(75,35,o),
(25,35,c),
(13,35,o),
(6,26,o),
(6,18,cs),
(6,9,o),
(13,0,o),
(25,0,c)
);
},
{
closed = 1;
nodes = (
(135,0,l),
(153,187,o),
(179,422,o),
(241,667,c),
(197,667,l),
(131,447,o),
(102,185,o),
(71,0,c)
);
},
{
closed = 1;
nodes = (
(187,0,l),
(199,0,o),
(206,9,o),
(206,18,cs),
(206,26,o),
(199,35,o),
(187,35,c),
(137,35,o),
(141,59,o),
(143,83,c),
(127,0,l)
);
},
{
closed = 1;
nodes = (
(650,0,l),
(634,84,l),
(635,60,o),
(640,35,o),
(590,35,c),
(578,35,o),
(571,26,o),
(571,18,cs),
(571,9,o),
(578,0,o),
(590,0,c)
);
},
{
closed = 1;
nodes = (
(182,667,l),
(122,667,l),
(110,667,o),
(103,658,o),
(103,649,cs),
(103,641,o),
(110,632,o),
(122,632,c),
(172,632,o),
(180,607,o),
(185,583,c)
);
},
{
closed = 1;
nodes = (
(793,0,l),
(805,0,o),
(812,9,o),
(812,18,cs),
(812,26,o),
(805,35,o),
(793,35,c),
(743,35,o),
(737,60,o),
(734,84,c),
(733,0,l)
);
},
{
closed = 1;
nodes = (
(287,607,o),
(281,632,o),
(331,632,c),
(343,632,o),
(350,641,o),
(350,649,cs),
(350,658,o),
(343,667,o),
(331,667,c),
(271,667,l),
(292,583,l)
);
},
{
closed = 1;
nodes = (
(747,0,l),
(716,185,o),
(697,447,o),
(631,667,c),
(550,667,l),
(601,477,o),
(623,187,o),
(641,0,c)
);
},
{
closed = 1;
nodes = (
(568,667,l),
(508,667,l),
(496,667,o),
(489,658,o),
(489,649,cs),
(489,641,o),
(496,632,o),
(508,632,c),
(558,632,o),
(551,608,o),
(545,584,c)
);
},
{
closed = 1;
nodes = (
(647,607,o),
(642,632,o),
(692,632,c),
(704,632,o),
(711,641,o),
(711,649,cs),
(711,658,o),
(704,667,o),
(692,667,c),
(622,667,l),
(653,583,l)
);
}
);
width = 818;
},
{
anchors = (
{
name = bottom;
pos = (453,0);
},
{
name = top;
pos = (453,667);
}
);
layerId = m006;
shapes = (
{
closed = 1;
nodes = (
(470,0,l),
(653,667,l),
(559,667,l),
(460,235,l),
(367,667,l),
(157,667,l),
(330,0,l)
);
},
{
closed = 1;
nodes = (
(79,0,l),
(78,83,l),
(75,60,o),
(69,35,o),
(19,35,c),
(7,35,o),
(0,26,o),
(0,18,cs),
(0,9,o),
(7,0,o),
(19,0,c)
);
},
{
closed = 1;
nodes = (
(159,0,l),
(177,187,o),
(203,422,o),
(265,667,c),
(191,667,l),
(125,447,o),
(96,185,o),
(65,0,c)
);
},
{
closed = 1;
nodes = (
(211,0,l),
(223,0,o),
(230,9,o),
(230,18,cs),
(230,26,o),
(223,35,o),
(211,35,c),
(161,35,o),
(165,59,o),
(167,83,c),
(151,0,l)
);
},
{
closed = 1;
nodes = (
(644,0,l),
(628,84,l),
(629,60,o),
(634,35,o),
(584,35,c),
(572,35,o),
(565,26,o),
(565,18,cs),
(565,9,o),
(572,0,o),
(584,0,c)
);
},
{
closed = 1;
nodes = (
(176,667,l),
(116,667,l),
(104,667,o),
(97,658,o),
(97,649,cs),
(97,641,o),
(104,632,o),
(116,632,c),
(166,632,o),
(174,607,o),
(179,583,c)
);
},
{
closed = 1;
nodes = (
(887,0,l),
(899,0,o),
(906,9,o),
(906,18,cs),
(906,26,o),
(899,35,o),
(887,35,c),
(837,35,o),
(831,60,o),
(828,84,c),
(827,0,l)
);
},
{
closed = 1;
nodes = (
(380,607,o),
(374,632,o),
(424,632,c),
(436,632,o),
(443,641,o),
(443,649,cs),
(443,658,o),
(436,667,o),
(424,667,c),
(354,667,l),
(385,583,l)
);
},
{
closed = 1;
nodes = (
(841,0,l),
(810,185,o),
(791,447,o),
(725,667,c),
(544,667,l),
(595,477,o),
(617,187,o),
(635,0,c)
);
},
{
closed = 1;
nodes = (
(573,667,l),
(503,667,l),
(491,667,o),
(484,658,o),
(484,649,cs),
(484,641,o),
(491,632,o),
(503,632,c),
(553,632,o),
(546,608,o),
(540,584,c)
);
},
{
closed = 1;
nodes = (
(741,607,o),
(736,632,o),
(786,632,c),
(798,632,o),
(805,641,o),
(805,649,cs),
(805,658,o),
(798,667,o),
(786,667,c),
(716,667,l),
(747,583,l)
);
}
);
width = 906;
},
{
anchors = (
{
name = bottom;
pos = (427,0);
},
{
name = top;
pos = (427,667);
}
);
layerId = m007;
shapes = (
{
closed = 1;
nodes = (
(473,0,l),
(641,667,l),
(596,667,l),
(435,30,l),
(280,667,l),
(194,667,l),
(367,0,l)
);
},
{
closed = 1;
nodes = (
(116,0,l),
(115,83,l),
(112,60,o),
(106,25,o),
(56,25,cs),
(44,25,o),
(37,21,o),
(37,13,cs),
(37,4,o),
(44,0,o),
(56,0,cs)
);
},
{
closed = 1;
nodes = (
(152,0,l),
(169,186,o),
(205,420,o),
(268,667,c),
(228,667,l),
(163,449,o),
(134,186,o),
(102,0,c)
);
},
{
closed = 1;
nodes = (
(203,0,ls),
(215,0,o),
(222,4,o),
(222,13,cs),
(222,21,o),
(215,25,o),
(203,25,cs),
(153,25,o),
(157,59,o),
(159,83,c),
(143,0,l)
);
},
{
closed = 1;
nodes = (
(681,0,l),
(665,84,l),
(666,60,o),
(671,25,o),
(621,25,cs),
(609,25,o),
(602,21,o),
(602,13,cs),
(602,4,o),
(609,0,o),
(621,0,cs)
);
},
{
closed = 1;
nodes = (
(213,667,l),
(153,667,ls),
(141,667,o),
(134,663,o),
(134,654,cs),
(134,646,o),
(141,642,o),
(153,642,cs),
(203,642,o),
(211,607,o),
(216,583,c)
);
},
{
closed = 1;
nodes = (
(808,0,ls),
(820,0,o),
(827,4,o),
(827,13,cs),
(827,21,o),
(820,25,o),
(808,25,cs),
(758,25,o),
(754,60,o),
(751,84,c),
(748,0,l)
);
},
{
closed = 1;
nodes = (
(294,607,o),
(288,642,o),
(338,642,cs),
(350,642,o),
(357,646,o),
(357,654,cs),
(357,663,o),
(350,667,o),
(338,667,cs),
(278,667,l),
(299,583,l)
);
},
{
closed = 1;
nodes = (
(764,0,l),
(733,186,o),
(713,450,o),
(648,667,c),
(571,667,l),
(623,475,o),
(655,186,o),
(672,0,c)
);
},
{
closed = 1;
nodes = (
(599,667,l),
(539,667,ls),
(527,667,o),
(520,663,o),
(520,654,cs),
(520,646,o),
(527,642,o),
(539,642,cs),
(589,642,o),
(582,608,o),
(576,584,c)
);
},
{
closed = 1;
nodes = (
(664,607,o),
(659,642,o),
(709,642,cs),
(721,642,o),
(728,646,o),
(728,654,cs),
(728,663,o),
(721,667,o),
(709,667,cs),
(639,667,l),
(670,583,l)
);
}
);
width = 864;
},
{
anchors = (
{
name = bottom;
pos = (403,0);
},
{
name = top;
pos = (403,667);
}
);
hints = (
{
horizontal = 1;
place = (0,21);
target = up;
type = BottomGhost;
},
{
place = (35,644);
type = Stem;
}
);
layerId = m008;
shapes = (
{
closed = 1;
nodes = (
(440,0,l),
(620,667,l),
(559,667,l),
(410,55,l),
(267,667,l),
(157,667,l),
(330,0,l)
);
},
{
closed = 1;
nodes = (
(79,0,l),
(78,83,l),
(75,60,o),
(69,25,o),
(19,25,c),
(7,25,o),
(0,21,o),
(0,13,cs),
(0,4,o),
(7,0,o),
(19,0,c)
);
},
{
closed = 1;
nodes = (
(129,0,l),
(147,187,o),
(173,422,o),
(235,667,c),
(191,667,l),
(125,447,o),
(96,185,o),
(65,0,c)
);
},
{
closed = 1;
nodes = (
(181,0,l),
(193,0,o),
(200,4,o),
(200,13,cs),
(200,21,o),
(193,25,o),
(181,25,c),
(131,25,o),
(135,59,o),
(137,83,c),
(121,0,l)
);
},
{
closed = 1;
nodes = (
(644,0,l),
(628,84,l),
(629,60,o),
(634,25,o),
(584,25,c),
(572,25,o),
(565,21,o),
(565,13,cs),
(565,4,o),
(572,0,o),
(584,0,c)
);
},
{
closed = 1;
nodes = (
(176,667,l),
(116,667,l),
(104,667,o),
(97,663,o),
(97,654,cs),
(97,646,o),
(104,642,o),
(116,642,c),
(166,642,o),
(174,607,o),
(179,583,c)
);
},
{
closed = 1;
nodes = (
(787,0,l),
(799,0,o),
(806,4,o),
(806,13,cs),
(806,21,o),
(799,25,o),
(787,25,c),
(737,25,o),
(731,60,o),
(728,84,c),
(727,0,l)
);
},
{
closed = 1;
nodes = (
(281,607,o),
(275,642,o),
(325,642,c),
(337,642,o),
(344,646,o),
(344,654,cs),
(344,663,o),
(337,667,o),
(325,667,c),
(265,667,l),
(286,583,l)
);
},
{
closed = 1;
nodes = (
(741,0,l),
(710,185,o),
(691,447,o),
(625,667,c),
(544,667,l),
(595,477,o),
(617,187,o),
(635,0,c)
);
},
{
closed = 1;
nodes = (
(562,667,l),
(502,667,l),
(490,667,o),
(483,663,o),
(483,654,cs),
(483,646,o),
(490,642,o),
(502,642,c),
(552,642,o),
(545,608,o),
(539,584,c)
);
},
{
closed = 1;
nodes = (
(641,607,o),
(636,642,o),
(686,642,c),
(698,642,o),
(705,646,o),
(705,654,cs),
(705,663,o),
(698,667,o),
(686,667,c),
(616,667,l),
(647,583,l)
);
}
);
width = 806;
},
{
anchors = (
{
name = bottom;
pos = (453,0);
},
{
name = top;
pos = (453,667);
}
);
layerId = m009;
shapes = (
{
closed = 1;
nodes = (
(470,0,l),
(653,667,l),
(559,667,l),
(460,235,l),
(367,667,l),
(157,667,l),
(330,0,l)
);
},
{
closed = 1;
nodes = (
(79,0,l),
(78,83,l),
(75,60,o),
(69,25,o),
(19,25,c),
(7,25,o),
(0,21,o),
(0,13,cs),
(0,4,o),
(7,0,o),
(19,0,c)
);
},
{
closed = 1;
nodes = (
(159,0,l),
(177,187,o),
(203,422,o),
(265,667,c),
(191,667,l),
(125,447,o),
(96,185,o),
(65,0,c)
);
},
{
closed = 1;
nodes = (
(211,0,l),
(223,0,o),
(230,4,o),
(230,13,cs),
(230,21,o),
(223,25,o),
(211,25,c),
(161,25,o),
(165,59,o),
(167,83,c),
(151,0,l)
);
},
{
closed = 1;
nodes = (
(644,0,l),
(628,84,l),
(629,60,o),
(634,25,o),
(584,25,c),
(572,25,o),
(565,21,o),
(565,13,cs),
(565,4,o),
(572,0,o),
(584,0,c)
);
},
{
closed = 1;
nodes = (
(176,667,l),
(116,667,l),
(104,667,o),
(97,663,o),
(97,654,cs),
(97,646,o),
(104,642,o),
(116,642,c),
(166,642,o),
(174,607,o),
(179,583,c)
);
},
{
closed = 1;
nodes = (
(887,0,l),
(899,0,o),
(906,4,o),
(906,13,cs),
(906,21,o),
(899,25,o),
(887,25,c),
(837,25,o),
(831,60,o),
(828,84,c),
(827,0,l)
);
},
{
closed = 1;
nodes = (
(380,607,o),
(374,642,o),
(424,642,c),
(436,642,o),
(443,646,o),
(443,654,cs),
(443,663,o),
(436,667,o),
(424,667,c),
(354,667,l),
(385,583,l)
);
},
{
closed = 1;
nodes = (
(841,0,l),
(810,185,o),
(791,447,o),
(725,667,c),
(544,667,l),
(595,477,o),
(617,187,o),
(635,0,c)
);
},
{
closed = 1;
nodes = (
(573,667,l),
(503,667,l),
(491,667,o),
(484,663,o),
(484,654,cs),
(484,646,o),
(491,642,o),
(503,642,c),
(553,642,o),
(546,608,o),
(540,584,c)
);
},
{
closed = 1;
nodes = (
(741,607,o),
(736,642,o),
(786,642,c),
(798,642,o),
(805,646,o),
(805,654,cs),
(805,663,o),
(798,667,o),
(786,667,c),
(716,667,l),
(747,583,l)
);
}
);
width = 906;
}
);
metricLeft = "=W";
metricRight = "=W";
note = M;
unicode = 77;
}
{
glyphname = N;
layers = (
{
anchors = (
{
name = bottom;
pos = (324,0);
},
{
name = top;
pos = (324,667);
}
);
hints = (
{
horizontal = 1;
place = (0,21);
target = up;
type = BottomGhost;
},
{
place = (70,100);
type = Stem;
},
{
place = (452.5,97.5);
type = Stem;
}
);
layerId = m005;
shapes = (
{
closed = 1;
nodes = (
(531,0,ls),
(542,0,o),
(549,7,o),
(549,18,cs),
(549,667,l),
(449,667,l),
(449,200,l),
(425,333,o),
(255,597,o),
(217,655,cs),
(211,663,o),
(204,667,o),
(195,667,cs),
(99,667,l),
(99,0,l),
(199,0,l),
(199,517,l),
(199,517,o),
(322,355,o),
(434,16,cs),
(437,5,o),
(445,0,o),
(455,0,cs)
);
},
{
pos = (199,0);
ref = _serif.H;
scale = (-1,1);
},
{
pos = (99,0);
ref = _serif.H;
},
{
angle = 180;
pos = (549,667);
ref = _serif.H;
},
{
pos = (99,667);
ref = _serif.H;
scale = (1,-1);
},
{
pos = (449,667);
ref = _serif.H;
scale = (1,-1);
}
);
width = 648;
},
{
anchors = (
{
name = bottom;
pos = (325,0);
},
{
name = top;
pos = (325,667);
}
);
layerId = m004;
shapes = (
{
closed = 1;
nodes = (
(519,0,ls),
(530,0,o),
(537,7,o),
(537,18,cs),
(537,667,l),
(462,667,l),
(462,162,l),
(418,308,o),
(305,505,o),
(207,655,cs),
(201,664,o),
(194,667,o),
(185,667,cs),
(112,667,l),
(112,0,l),
(187,0,l),
(186,547,l),
(262,452,o),
(363,265,o),
(446,15,cs),
(449,5,o),
(457,0,o),
(467,0,cs)
);
},
{
pos = (187,0);
ref = _serif.H;
scale = (-1,1);
},
{
pos = (112,0);
ref = _serif.H;
},
{
angle = 180;
pos = (537,667);
ref = _serif.H;
},
{
pos = (112,667);
ref = _serif.H;
scale = (1,-1);
},
{
pos = (462,667);
ref = _serif.H;
scale = (1,-1);
}
);
width = 649;
},
{
anchors = (
{
name = bottom;
pos = (344,0);
},
{
name = top;
pos = (344,667);
}
);
layerId = m006;
shapes = (
{
closed = 1;
nodes = (
(601,0,ls),
(612,0,o),
(619,7,o),
(619,18,cs),
(619,667,l),
(444,667,l),
(444,290,l),
(429,385,o),
(323,599,o),
(296,654,cs),
(291,663,o),
(284,667,o),
(274,667,cs),
(69,667,l),
(69,0,l),
(244,0,l),
(244,417,l),
(244,417,o),
(303,352,o),
(394,17,cs),
(398,5,o),
(405,0,o),
(415,0,cs)
);
},
{
pos = (244,0);
ref = _serif.H;
scale = (-1,1);
},
{
pos = (69,0);
ref = _serif.H;
},
{
angle = 180;
pos = (619,667);
ref = _serif.H;
},
{
pos = (69,667);
ref = _serif.H;
scale = (1,-1);
},
{
pos = (444,667);
ref = _serif.H;
scale = (1,-1);
}
);
width = 688;
},
{
anchors = (
{
name = bottom;
pos = (325,0);
},
{
name = top;
pos = (325,667);
}
);
layerId = m007;
shapes = (
{
closed = 1;
nodes = (
(524,0,ls),
(532,0,o),
(537,5,o),
(537,13,cs),
(537,667,l),
(482,667,l),
(482,132,l),
(438,279,o),
(304,507,o),
(205,659,cs),
(201,665,o),
(196,667,o),
(189,667,cs),
(112,667,l),
(112,0,l),
(167,0,l),
(166,577,l),
(243,481,o),
(364,264,o),
(447,11,cs),
(450,3,o),
(455,0,o),
(462,0,cs)
);
},
{
pos = (167,0);
ref = _serif.H;
scale = (-1,1);
},
{
pos = (112,0);
ref = _serif.H;
},
{
angle = 180;
pos = (537,667);
ref = _serif.H;
},
{
pos = (112,667);
ref = _serif.H;
scale = (1,-1);
},
{
pos = (482,667);
ref = _serif.H;
scale = (1,-1);
}
);
width = 649;
},
{
anchors = (
{
name = bottom;
pos = (324,0);
},
{
name = top;
pos = (324,667);
}
);
hints = (
{
horizontal = 1;
place = (0,21);
target = up;
type = BottomGhost;
},
{
place = (70,100);
type = Stem;
},
{
place = (452.5,97.5);
type = Stem;
}
);
layerId = m008;
shapes = (
{
closed = 1;
nodes = (
(536,0,ls),
(544,0,o),
(549,5,o),
(549,13,cs),
(549,667,l),
(474,667,l),
(474,150,l),
(426,331,o),
(249,607,o),
(215,658,cs),
(211,664,o),
(206,667,o),
(199,667,cs),
(99,667,l),
(99,0,l),
(174,0,l),
(174,567,l),
(174,567,o),
(323,355,o),
(435,11,cs),
(438,4,o),
(443,0,o),
(450,0,cs)
);
},
{
pos = (174,0);
ref = _serif.H;
scale = (-1,1);
},
{
pos = (99,0);
ref = _serif.H;
},
{
angle = 180;
pos = (549,667);
ref = _serif.H;
},
{
pos = (99,667);
ref = _serif.H;
scale = (1,-1);
},
{
pos = (474,667);
ref = _serif.H;
scale = (1,-1);
}
);
width = 648;
},
{
anchors = (
{
name = bottom;
pos = (344,0);
},
{
name = top;
pos = (344,667);
}
);
layerId = m009;
shapes = (
{
closed = 1;
nodes = (
(606,0,ls),
(614,0,o),
(619,5,o),
(619,13,cs),
(619,667,l),
(469,667,l),
(469,240,l),
(454,339,o),
(321,604,o),
(294,658,cs),
(291,664,o),
(285,667,o),
(278,667,cs),
(69,667,l),
(69,0,l),
(219,0,l),
(219,467,l),
(219,467,o),
(303,353,o),
(396,12,cs),
(398,4,o),
(403,0,o),
(410,0,cs)
);
},
{
pos = (219,0);
ref = _serif.H;
scale = (-1,1);
},
{
pos = (69,0);
ref = _serif.H;
},
{
angle = 180;
pos = (619,667);
ref = _serif.H;
},
{
pos = (69,667);
ref = _serif.H;
scale = (1,-1);
},
{
pos = (469,667);
ref = _serif.H;
scale = (1,-1);
}
);
width = 688;
}
);
metricLeft = "=H";
metricRight = "=H";
note = N;
unicode = 78;
}
{
glyphname = O;
layers = (
{
anchors = (
{
name = bottom;
pos = (299,0);
},
{
name = center;
pos = (299,334);
},
{
name = ogonek;
pos = (527,10);
},
{
name = top;
pos = (299,625);
},
{
name = topleft;
pos = (34,667);
},
{
name = topright;
pos = (564,667);
}
);
layerId = m004;
shapes = (
{
closed = 1;
nodes = (
(478,-10,o),
(565,143,o),
(565,334,cs),
(565,523,o),
(478,677,o),
(299,677,cs),
(120,677,o),
(33,524,o),
(33,334,cs),
(33,141,o),
(120,-10,o),
(299,-10,cs)
);
},
{
closed = 1;
nodes = (
(151,40,o),
(118,172,o),
(118,334,cs),
(118,495,o),
(151,627,o),
(299,627,cs),
(446,627,o),
(480,495,o),
(480,334,cs),
(480,173,o),
(446,40,o),
(299,40,cs)
);
}
);
width = 598;
},
{
anchors = (
{
name = bottom;
pos = (299,0);
},
{
name = center;
pos = (299,334);
},
{
name = ogonek;
pos = (527,10);
},
{
name = top;
pos = (299,625);
},
{
name = topleft;
pos = (34,667);
},
{
name = topright;
pos = (564,667);
}
);
hints = (
{
horizontal = 1;
place = (15,105);
type = Stem;
},
{
horizontal = 1;
place = (622,105);
type = Stem;
},
{
place = (60,135);
type = Stem;
},
{
place = (450,135);
type = Stem;
}
);
layerId = m005;
shapes = (
{
closed = 1;
nodes = (
(488,-10,o),
(577,144,o),
(577,334,cs),
(577,522,o),
(488,677,o),
(299,677,cs),
(109,677,o),
(20,522,o),
(20,334,cs),
(20,144,o),
(109,-10,o),
(299,-10,cs)
);
},
{
closed = 1;
nodes = (
(164,50,o),
(130,182,o),
(130,334,cs),
(130,485,o),
(164,617,o),
(299,617,cs),
(433,617,o),
(467,485,o),
(467,334,cs),
(467,182,o),
(433,50,o),
(299,50,cs)
);
}
);
width = 597;
},
{
anchors = (
{
name = bottom;
pos = (339,0);
},
{
name = center;
pos = (339,334);
},
{
name = ogonek;
pos = (609,10);
},
{
name = top;
pos = (339,667);
},
{
name = topleft;
pos = (20,667);
},
{
name = topright;
pos = (657,667);
}
);
layerId = m006;
shapes = (
{
closed = 1;
nodes = (
(578,-10,o),
(667,144,o),
(667,334,cs),
(667,522,o),
(578,677,o),
(339,677,cs),
(99,677,o),
(10,522,o),
(10,334,cs),
(10,144,o),
(99,-10,o),
(339,-10,cs)
);
},
{
closed = 1;
nodes = (
(254,80,o),
(220,212,o),
(220,334,cs),
(220,455,o),
(254,587,o),
(339,587,cs),
(423,587,o),
(457,455,o),
(457,334,cs),
(457,212,o),
(423,80,o),
(339,80,cs)
);
}
);
width = 677;
},
{
anchors = (
{
name = bottom;
pos = (299,0);
},
{
name = center;
pos = (299,334);
},
{
name = ogonek;
pos = (538,10);
},
{
name = top;
pos = (299,667);
},
{
name = topleft;
pos = (20,667);
},
{
name = topright;
pos = (578,667);
}
);
layerId = m007;
shapes = (
{
closed = 1;
nodes = (
(478,-10,o),
(565,143,o),
(565,334,cs),
(565,523,o),
(478,677,o),
(299,677,cs),
(120,677,o),
(33,524,o),
(33,334,cs),
(33,141,o),
(120,-10,o),
(299,-10,cs)
);
},
{
closed = 1;
nodes = (
(151,28,o),
(118,160,o),
(118,334,cs),
(118,507,o),
(151,639,o),
(299,639,cs),
(446,639,o),
(480,507,o),
(480,334,cs),
(480,161,o),
(446,28,o),
(299,28,cs)
);
}
);
width = 598;
},
{
anchors = (
{
name = bottom;
pos = (299,0);
},
{
name = center;
pos = (299,334);
},
{
name = ogonek;
pos = (527,10);
},
{
name = top;
pos = (299,625);
},
{
name = topleft;
pos = (34,667);
},
{
name = topright;
pos = (564,667);
}
);
hints = (
{
horizontal = 1;
place = (15,105);
type = Stem;
},
{
horizontal = 1;
place = (622,105);
type = Stem;
},
{
place = (60,135);
type = Stem;
},
{
place = (450,135);
type = Stem;
}
);
layerId = m008;
shapes = (
{
closed = 1;
nodes = (
(488,-10,o),
(577,144,o),
(577,334,cs),
(577,522,o),
(488,677,o),
(299,677,cs),
(109,677,o),
(20,522,o),
(20,334,cs),
(20,144,o),
(109,-10,o),
(299,-10,cs)
);
},
{
closed = 1;
nodes = (
(164,34,o),
(130,166,o),
(130,334,cs),
(130,501,o),
(164,633,o),
(299,633,cs),
(433,633,o),
(467,501,o),
(467,334,cs),
(467,166,o),
(433,34,o),
(299,34,cs)
);
}
);
width = 597;
},
{
anchors = (
{
name = bottom;
pos = (339,0);
},
{
name = center;
pos = (339,334);
},
{
name = ogonek;
pos = (609,10);
},
{
name = top;
pos = (339,667);
},
{
name = topleft;
pos = (20,667);
},
{
name = topright;
pos = (657,667);
}
);
layerId = m009;
shapes = (
{
closed = 1;
nodes = (
(578,-10,o),
(667,144,o),
(667,334,cs),
(667,522,o),
(578,677,o),
(339,677,cs),
(99,677,o),
(10,522,o),
(10,334,cs),
(10,144,o),
(99,-10,o),
(339,-10,cs)
);
},
{
closed = 1;
nodes = (
(254,50,o),
(220,182,o),
(220,334,cs),
(220,485,o),
(254,617,o),
(339,617,cs),
(423,617,o),
(457,485,o),
(457,334,cs),
(457,182,o),
(423,50,o),
(339,50,cs)
);
}
);
width = 677;
}
);
note = O;
unicode = 79;
}
{
glyphname = P;
layers = (
{
anchors = (
{
name = bottom;
pos = (274,0);
},
{
name = top;
pos = (274,667);
}
);
layerId = m004;
shapes = (
{
closed = 1;
nodes = (
(187,0,l),
(187,302,l),
(293,302,ls),
(452,302,o),
(537,365,o),
(537,484,cs),
(537,603,o),
(452,667,o),
(293,667,cs),
(112,667,l),
(112,0,l)
);
},
{
closed = 1;
nodes = (
(294,617,ls),
(404,617,o),
(462,574,o),
(462,484,cs),
(462,394,o),
(404,352,o),
(294,352,cs),
(186,352,l),
(186,617,l)
);
},
{
pos = (112,0);
ref = _serif.H;
},
{
pos = (112,667);
ref = _serif.H;
scale = (1,-1);
},
{
pos = (187,0);
ref = _serif.H;
scale = (-1,1);
}
);
width = 548;
},
{
anchors = (
{
name = bottom;
pos = (278,0);
},
{
name = top;
pos = (278,667);
}
);
hints = (
{
horizontal = 1;
place = (25,21);
target = up;
type = BottomGhost;
},
{
horizontal = 1;
place = (307,92);
type = Stem;
},
{
horizontal = 1;
place = (623,94);
type = Stem;
},
{
place = (95,125);
type = Stem;
},
{
place = (431,124);
type = Stem;
}
);
layerId = m005;
shapes = (
{
closed = 1;
nodes = (
(199,0,l),
(199,302,l),
(293,302,ls),
(457,302,o),
(549,367,o),
(549,484,cs),
(549,602,o),
(457,667,o),
(293,667,cs),
(99,667,l),
(99,0,l)
);
},
{
closed = 1;
nodes = (
(294,607,ls),
(399,607,o),
(449,564,o),
(449,484,cs),
(449,404,o),
(399,362,o),
(294,362,cs),
(198,362,l),
(198,607,l)
);
},
{
pos = (99,0);
ref = _serif.H;
},
{
pos = (99,667);
ref = _serif.H;
scale = (1,-1);
},
{
pos = (199,0);
ref = _serif.H;
scale = (-1,1);
}
);
width = 556;
},
{
anchors = (
{
name = bottom;
pos = (310,0);
},
{
name = top;
pos = (310,667);
}
);
layerId = m006;
shapes = (
{
closed = 1;
nodes = (
(270,0,l),
(270,282,l),
(314,282,ls),
(510,282,o),
(620,351,o),
(620,474,cs),
(620,598,o),
(510,667,o),
(314,667,cs),
(69,667,l),
(69,0,l)
);
},
{
closed = 1;
nodes = (
(315,577,ls),
(386,577,o),
(420,544,o),
(420,474,cs),
(420,405,o),
(386,372,o),
(315,372,cs),
(269,372,l),
(269,577,l)
);
},
{
pos = (69,0);
ref = _serif.H;
},
{
pos = (69,667);
ref = _serif.H;
scale = (1,-1);
},
{
pos = (270,0);
ref = _serif.H;
scale = (-1,1);
}
);
width = 620;
},
{
anchors = (
{
name = bottom;
pos = (274,0);
},
{
name = top;
pos = (274,667);
}
);
layerId = m007;
shapes = (
{
closed = 1;
nodes = (
(187,0,l),
(187,302,l),
(293,302,ls),
(452,302,o),
(536,365,o),
(536,484,cs),
(536,603,o),
(452,667,o),
(293,667,cs),
(112,667,l),
(112,0,l)
);
},
{
closed = 1;
nodes = (
(294,629,ls),
(404,629,o),
(462,586,o),
(462,484,cs),
(462,382,o),
(404,340,o),
(294,340,cs),
(186,340,l),
(186,629,l)
);
},
{
pos = (112,0);
ref = _serif.H;
},
{
pos = (112,667);
ref = _serif.H;
scale = (1,-1);
},
{
pos = (187,0);
ref = _serif.H;
scale = (-1,1);
}
);
width = 547;
},
{
anchors = (
{
name = bottom;
pos = (279,0);
},
{
name = top;
pos = (279,667);
}
);
hints = (
{
horizontal = 1;
place = (25,21);
target = up;
type = BottomGhost;
},
{
horizontal = 1;
place = (307,92);
type = Stem;
},
{
horizontal = 1;
place = (623,94);
type = Stem;
},
{
place = (95,125);
type = Stem;
},
{
place = (431,124);
type = Stem;
}
);
layerId = m008;
shapes = (
{
closed = 1;
nodes = (
(199,0,l),
(199,302,l),
(293,302,ls),
(457,302,o),
(549,367,o),
(549,484,cs),
(549,602,o),
(457,667,o),
(293,667,cs),
(99,667,l),
(99,0,l)
);
},
{
closed = 1;
nodes = (
(294,623,ls),
(399,623,o),
(449,580,o),
(449,484,cs),
(449,388,o),
(399,346,o),
(294,346,cs),
(198,346,l),
(198,623,l)
);
},
{
pos = (99,0);
ref = _serif.H;
},
{
pos = (99,667);
ref = _serif.H;
scale = (1,-1);
},
{
pos = (199,0);
ref = _serif.H;
scale = (-1,1);
}
);
width = 557;
},
{
anchors = (
{
name = bottom;
pos = (310,0);
},
{
name = top;
pos = (310,667);
}
);
layerId = m009;
shapes = (
{
closed = 1;
nodes = (
(270,0,l),
(270,282,l),
(314,282,ls),
(510,282,o),
(620,351,o),
(620,474,cs),
(620,598,o),
(510,667,o),
(314,667,cs),
(69,667,l),
(69,0,l)
);
},
{
closed = 1;
nodes = (
(315,607,ls),
(386,607,o),
(420,574,o),
(420,474,cs),
(420,375,o),
(386,342,o),
(315,342,cs),
(269,342,l),
(269,607,l)
);
},
{
pos = (69,0);
ref = _serif.H;
},
{
pos = (69,667);
ref = _serif.H;
scale = (1,-1);
},
{
pos = (270,0);
ref = _serif.H;
scale = (-1,1);
}
);
width = 620;
}
);
metricLeft = "=H";
metricRight = "=H/4";
note = P;
unicode = 80;
}
{
glyphname = W;
kernLeft = V;
kernRight = V;
layers = (
{
anchors = (
{
name = bottom;
pos = (454,0);
},
{
name = top;
pos = (454,667);
}
);
layerId = m004;
shapes = (
{
closed = 1;
nodes = (
(632,0,ls),
(642,0,o),
(649,5,o),
(652,15,cs),
(717,232,o),
(778,486,o),
(808,667,c),
(744,667,l),
(726,480,o),
(666,245,o),
(615,55,c),
(564,245,o),
(510,480,o),
(492,667,c),
(417,667,l),
(453,437,o),
(506,183,o),
(553,15,cs),
(556,5,o),
(563,0,o),
(573,0,cs)
);
},
{
closed = 1;
nodes = (
(325,0,ls),
(335,0,o),
(342,5,o),
(345,15,cs),
(392,183,o),
(445,437,o),
(481,667,c),
(417,667,l),
(399,480,o),
(359,245,o),
(308,55,c),
(257,245,o),
(203,480,o),
(185,667,c),
(100,667,l),
(130,486,o),
(182,232,o),
(246,15,cs),
(249,5,o),
(256,0,o),
(266,0,cs)
);
},
{
closed = 1;
nodes = (
(678,667,o),
(671,658,o),
(671,649,cs),
(671,641,o),
(678,632,o),
(690,632,c),
(740,632,o),
(737,608,o),
(734,584,c),
(750,667,l),
(690,667,l)
);
},
{
closed = 1;
nodes = (
(792,667,l),
(793,584,l),
(798,607,o),
(802,632,o),
(852,632,c),
(864,632,o),
(871,641,o),
(871,649,cs),
(871,658,o),
(864,667,o),
(852,667,c)
);
},
{
closed = 1;
nodes = (
(44,667,o),
(37,658,o),
(37,649,cs),
(37,641,o),
(44,632,o),
(56,632,c),
(106,632,o),
(110,607,o),
(115,583,c),
(116,667,l),
(56,667,l)
);
},
{
closed = 1;
nodes = (
(179,667,l),
(195,583,l),
(192,607,o),
(189,632,o),
(239,632,c),
(251,632,o),
(258,641,o),
(258,649,cs),
(258,658,o),
(251,667,o),
(239,667,c)
);
},
{
closed = 1;
nodes = (
(351,667,o),
(344,658,o),
(344,649,cs),
(344,641,o),
(351,632,o),
(363,632,c),
(413,632,o),
(411,607,o),
(408,582,c),
(423,667,l),
(363,667,l)
);
},
{
closed = 1;
nodes = (
(486,667,l),
(502,582,l),
(499,607,o),
(496,632,o),
(546,632,c),
(558,632,o),
(565,641,o),
(565,649,cs),
(565,658,o),
(558,667,o),
(546,667,c)
);
}
);
width = 908;
},
{
anchors = (
{
name = bottom;
pos = (448,0);
},
{
name = top;
pos = (448,667);
}
);
hints = (
{
horizontal = 1;
place = (25,21);
target = up;
type = BottomGhost;
},
{
place = (60,749);
type = Stem;
},
{
horizontal = 1;
place = (25,175);
type = Stem;
}
);
layerId = m005;
shapes = (
{
closed = 1;
nodes = (
(661,0,ls),
(671,0,o),
(678,5,o),
(681,15,cs),
(745,232,o),
(797,486,o),
(827,667,c),
(753,667,l),
(735,480,o),
(685,245,o),
(634,55,c),
(583,245,o),
(529,480,o),
(511,667,c),
(411,667,l),
(457,437,o),
(500,183,o),
(547,15,cs),
(550,5,o),
(557,0,o),
(567,0,cs)
);
},
{
closed = 1;
nodes = (
(329,0,ls),
(339,0,o),
(346,5,o),
(349,15,cs),
(396,183,o),
(449,437,o),
(485,667,c),
(411,667,l),
(393,480,o),
(353,245,o),
(302,55,c),
(251,245,o),
(197,480,o),
(179,667,c),
(69,667,l),
(99,486,o),
(151,232,o),
(215,15,cs),
(218,5,o),
(225,0,o),
(235,0,cs)
);
},
{
closed = 1;
nodes = (
(687,667,o),
(680,658,o),
(680,649,cs),
(680,641,o),
(687,632,o),
(699,632,c),
(749,632,o),
(746,608,o),
(743,584,c),
(759,667,l),
(699,667,l)
);
},
{
closed = 1;
nodes = (
(811,667,l),
(812,584,l),
(817,607,o),
(821,632,o),
(871,632,c),
(883,632,o),
(890,641,o),
(890,649,cs),
(890,658,o),
(883,667,o),
(871,667,c)
);
},
{
closed = 1;
nodes = (
(13,667,o),
(6,658,o),
(6,649,cs),
(6,641,o),
(13,632,o),
(25,632,c),
(75,632,o),
(79,607,o),
(84,583,c),
(85,667,l),
(25,667,l)
);
},
{
closed = 1;
nodes = (
(173,667,l),
(189,583,l),
(186,607,o),
(183,632,o),
(233,632,c),
(245,632,o),
(252,641,o),
(252,649,cs),
(252,658,o),
(245,667,o),
(233,667,c)
);
},
{
closed = 1;
nodes = (
(345,667,o),
(338,658,o),
(338,649,cs),
(338,641,o),
(345,632,o),
(357,632,c),
(407,632,o),
(405,607,o),
(402,582,c),
(417,667,l),
(357,667,l)
);
},
{
closed = 1;
nodes = (
(505,667,l),
(521,582,l),
(518,607,o),
(515,632,o),
(565,632,c),
(577,632,o),
(584,641,o),
(584,649,cs),
(584,658,o),
(577,667,o),
(565,667,c)
);
}
);
width = 896;
},
{
anchors = (
{
name = bottom;
pos = (572,0);
},
{
name = top;
pos = (572,667);
}
);
layerId = m006;
shapes = (
{
closed = 1;
nodes = (
(915,0,ls),
(925,0,o),
(932,5,o),
(935,15,cs),
(999,232,o),
(1051,486,o),
(1081,667,c),
(977,667,l),
(959,480,o),
(909,245,o),
(858,55,c),
(807,245,o),
(753,480,o),
(735,667,c),
(505,667,l),
(580,437,o),
(624,183,o),
(671,15,cs),
(674,5,o),
(681,0,o),
(691,0,cs)
);
},
{
closed = 1;
nodes = (
(453,0,ls),
(463,0,o),
(470,5,o),
(473,15,cs),
(520,183,o),
(573,437,o),
(609,667,c),
(505,667,l),
(487,480,o),
(447,245,o),
(396,55,c),
(345,245,o),
(291,480,o),
(273,667,c),
(63,667,l),
(93,486,o),
(145,232,o),
(209,15,cs),
(212,5,o),
(219,0,o),
(229,0,cs)
);
},
{
closed = 1;
nodes = (
(911,667,o),
(904,658,o),
(904,649,cs),
(904,641,o),
(911,632,o),
(923,632,c),
(973,632,o),
(970,608,o),
(967,584,c),
(983,667,l),
(923,667,l)
);
},
{
closed = 1;
nodes = (
(1065,667,l),
(1066,584,l),
(1071,607,o),
(1075,632,o),
(1125,632,c),
(1137,632,o),
(1144,641,o),
(1144,649,cs),
(1144,658,o),
(1137,667,o),
(1125,667,c)
);
},
{
closed = 1;
nodes = (
(7,667,o),
(0,658,o),
(0,649,cs),
(0,641,o),
(7,632,o),
(19,632,c),
(69,632,o),
(73,607,o),
(78,583,c),
(79,667,l),
(19,667,l)
);
},
{
closed = 1;
nodes = (
(267,667,l),
(283,583,l),
(280,607,o),
(277,632,o),
(327,632,c),
(339,632,o),
(346,641,o),
(346,649,cs),
(346,658,o),
(339,667,o),
(327,667,c)
);
},
{
closed = 1;
nodes = (
(439,667,o),
(432,658,o),
(432,649,cs),
(432,641,o),
(439,632,o),
(451,632,c),
(501,632,o),
(499,607,o),
(496,582,c),
(511,667,l),
(451,667,l)
);
},
{
closed = 1;
nodes = (
(729,667,l),
(745,582,l),
(742,607,o),
(739,632,o),
(789,632,c),
(801,632,o),
(808,641,o),
(808,649,cs),
(808,658,o),
(801,667,o),
(789,667,c)
);
}
);
width = 1144;
},
{
anchors = (
{
name = bottom;
pos = (442,0);
},
{
name = top;
pos = (442,667);
}
);
layerId = m007;
shapes = (
{
closed = 1;
nodes = (
(613,0,ls),
(620,0,o),
(625,3,o),
(627,11,cs),
(692,229,o),
(754,485,o),
(784,667,c),
(732,667,l),
(714,480,o),
(654,245,o),
(603,55,c),
(552,245,o),
(498,480,o),
(480,667,c),
(417,667,l),
(441,435,o),
(495,179,o),
(542,11,cs),
(544,3,o),
(549,0,o),
(556,0,cs)
);
},
{
closed = 1;
nodes = (
(318,0,ls),
(325,0,o),
(330,3,o),
(332,11,cs),
(379,179,o),
(433,435,o),
(469,667,c),
(417,667,l),
(399,480,o),
(359,245,o),
(308,55,c),
(257,245,o),
(203,480,o),
(185,667,c),
(100,667,l),
(130,485,o),
(182,229,o),
(247,11,cs),
(249,3,o),
(254,0,o),
(261,0,cs)
);
},
{
closed = 1;
nodes = (
(666,667,o),
(659,663,o),
(659,654,cs),
(659,646,o),
(666,642,o),
(678,642,c),
(728,642,o),
(725,608,o),
(722,584,c),
(738,667,l),
(678,667,l)
);
},
{
closed = 1;
nodes = (
(768,667,l),
(769,584,l),
(774,607,o),
(778,642,o),
(828,642,c),
(840,642,o),
(847,646,o),
(847,654,cs),
(847,663,o),
(840,667,o),
(828,667,c)
);
},
{
closed = 1;
nodes = (
(44,667,o),
(37,663,o),
(37,654,cs),
(37,646,o),
(44,642,o),
(56,642,c),
(106,642,o),
(110,607,o),
(115,583,c),
(116,667,l),
(56,667,l)
);
},
{
closed = 1;
nodes = (
(179,667,l),
(195,583,l),
(192,607,o),
(189,642,o),
(239,642,c),
(251,642,o),
(258,646,o),
(258,654,cs),
(258,663,o),
(251,667,o),
(239,667,c)
);
},
{
closed = 1;
nodes = (
(351,667,o),
(344,663,o),
(344,654,cs),
(344,646,o),
(351,642,o),
(363,642,c),
(413,642,o),
(411,607,o),
(408,582,c),
(423,667,l),
(363,667,l)
);
},
{
closed = 1;
nodes = (
(474,667,l),
(490,582,l),
(487,607,o),
(484,642,o),
(534,642,c),
(546,642,o),
(553,646,o),
(553,654,cs),
(553,663,o),
(546,667,o),
(534,667,c)
);
}
);
width = 884;
},
{
anchors = (
{
name = bottom;
pos = (432,0);
},
{
name = top;
pos = (432,667);
}
);
hints = (
{
horizontal = 1;
place = (25,21);
target = up;
type = BottomGhost;
},
{
place = (60,749);
type = Stem;
},
{
horizontal = 1;
place = (25,175);
type = Stem;
}
);
layerId = m008;
shapes = (
{
closed = 1;
nodes = (
(640,0,ls),
(647,0,o),
(652,3,o),
(654,11,cs),
(719,229,o),
(771,485,o),
(801,667,c),
(737,667,l),
(719,480,o),
(669,245,o),
(618,55,c),
(567,245,o),
(513,480,o),
(495,667,c),
(405,667,l),
(441,435,o),
(485,179,o),
(532,11,cs),
(534,3,o),
(539,0,o),
(546,0,cs)
);
},
{
closed = 1;
nodes = (
(318,0,ls),
(325,0,o),
(330,3,o),
(332,11,cs),
(379,179,o),
(433,435,o),
(469,667,c),
(405,667,l),
(387,480,o),
(347,245,o),
(296,55,c),
(245,245,o),
(191,480,o),
(173,667,c),
(63,667,l),
(93,485,o),
(145,229,o),
(210,11,cs),
(212,3,o),
(217,0,o),
(224,0,cs)
);
},
{
closed = 1;
nodes = (
(671,667,o),
(664,663,o),
(664,654,cs),
(664,646,o),
(671,642,o),
(683,642,c),
(733,642,o),
(730,608,o),
(727,584,c),
(743,667,l),
(683,667,l)
);
},
{
closed = 1;
nodes = (
(785,667,l),
(786,584,l),
(791,607,o),
(795,642,o),
(845,642,c),
(857,642,o),
(864,646,o),
(864,654,cs),
(864,663,o),
(857,667,o),
(845,667,c)
);
},
{
closed = 1;
nodes = (
(7,667,o),
(0,663,o),
(0,654,cs),
(0,646,o),
(7,642,o),
(19,642,c),
(69,642,o),
(73,607,o),
(78,583,c),
(79,667,l),
(19,667,l)
);
},
{
closed = 1;
nodes = (
(167,667,l),
(183,583,l),
(180,607,o),
(177,642,o),
(227,642,c),
(239,642,o),
(246,646,o),
(246,654,cs),
(246,663,o),
(239,667,o),
(227,667,c)
);
},
{
closed = 1;
nodes = (
(339,667,o),
(332,663,o),
(332,654,cs),
(332,646,o),
(339,642,o),
(351,642,c),
(401,642,o),
(399,607,o),
(396,582,c),
(411,667,l),
(351,667,l)
);
},
{
closed = 1;
nodes = (
(489,667,l),
(505,582,l),
(502,607,o),
(499,642,o),
(549,642,c),
(561,642,o),
(568,646,o),
(568,654,cs),
(568,663,o),
(561,667,o),
(549,667,c)
);
}
);
width = 864;
},
{
anchors = (
{
name = bottom;
pos = (542,0);
},
{
name = top;
pos = (542,667);
}
);
layerId = m009;
shapes = (
{
closed = 1;
nodes = (
(860,0,ls),
(867,0,o),
(872,3,o),
(874,11,cs),
(939,229,o),
(991,485,o),
(1021,667,c),
(947,667,l),
(929,480,o),
(879,245,o),
(828,55,c),
(777,245,o),
(723,480,o),
(705,667,c),
(505,667,l),
(551,435,o),
(595,179,o),
(642,11,cs),
(644,3,o),
(649,0,o),
(656,0,cs)
);
},
{
closed = 1;
nodes = (
(428,0,ls),
(435,0,o),
(440,3,o),
(442,11,cs),
(489,179,o),
(543,435,o),
(579,667,c),
(505,667,l),
(487,480,o),
(447,245,o),
(396,55,c),
(345,245,o),
(291,480,o),
(273,667,c),
(63,667,l),
(93,485,o),
(145,229,o),
(210,11,cs),
(212,3,o),
(217,0,o),
(224,0,cs)
);
},
{
closed = 1;
nodes = (
(881,667,o),
(874,663,o),
(874,654,cs),
(874,646,o),
(881,642,o),
(893,642,c),
(943,642,o),
(940,608,o),
(937,584,c),
(953,667,l),
(893,667,l)
);
},
{
closed = 1;
nodes = (
(1005,667,l),
(1006,584,l),
(1011,607,o),
(1015,642,o),
(1065,642,c),
(1077,642,o),
(1084,646,o),
(1084,654,cs),
(1084,663,o),
(1077,667,o),
(1065,667,c)
);
},
{
closed = 1;
nodes = (
(7,667,o),
(0,663,o),
(0,654,cs),
(0,646,o),
(7,642,o),
(19,642,c),
(69,642,o),
(73,607,o),
(78,583,c),
(79,667,l),
(19,667,l)
);
},
{
closed = 1;
nodes = (
(267,667,l),
(283,583,l),
(280,607,o),
(277,642,o),
(327,642,c),
(339,642,o),
(346,646,o),
(346,654,cs),
(346,663,o),
(339,667,o),
(327,667,c)
);
},
{
closed = 1;
nodes = (
(439,667,o),
(432,663,o),
(432,654,cs),
(432,646,o),
(439,642,o),
(451,642,c),
(501,642,o),
(499,607,o),
(496,582,c),
(511,667,l),
(451,667,l)
);
},
{
closed = 1;
nodes = (
(699,667,l),
(715,582,l),
(712,607,o),
(709,642,o),
(759,642,c),
(771,642,o),
(778,646,o),
(778,654,cs),
(778,663,o),
(771,667,o),
(759,667,c)
);
}
);
width = 1084;
}
);
metricLeft = "=V";
metricRight = "=V";
note = W;
unicode = 87;
}
{
glyphname = Z;
layers = (
{
anchors = (
{
name = bottom;
pos = (252,0);
},
{
name = center;
pos = (252,334);
},
{
name = top;
pos = (252,667);
}
);
layerId = m004;
shapes = (
{
closed = 1;
nodes = (
(47,617,l),
(381,617,l),
(34,70,ls),
(28,61,o),
(22,44,o),
(22,26,cs),
(22,0,l),
(467,0,l),
(467,50,l),
(118,50,l),
(473,627,ls),
(483,643,o),
(482,667,o),
(471,667,cs),
(47,667,l)
);
},
{
pos = (47,167);
ref = _serif.Z;
},
{
angle = 180;
pos = (467,500);
ref = _serif.Z;
}
);
width = 504;
},
{
anchors = (
{
name = bottom;
pos = (258,0);
},
{
name = center;
pos = (258,334);
},
{
name = top;
pos = (258,667);
}
);
hints = (
{
horizontal = 1;
place = (25,110);
type = Stem;
},
{
horizontal = 1;
place = (612,105);
type = Stem;
},
{
place = (55,500);
type = Stem;
}
);
layerId = m005;
shapes = (
{
closed = 1;
nodes = (
(40,607,l),
(377,607,l),
(29,70,ls),
(21,57,o),
(15,42,o),
(15,26,cs),
(15,0,l),
(485,0,l),
(485,60,l),
(135,60,l),
(490,617,ls),
(503,638,o),
(502,667,o),
(477,667,cs),
(40,667,l)
);
},
{
pos = (40,0);
ref = _serif.Z;
},
{
angle = 180;
pos = (485,667);
ref = _serif.Z;
}
);
width = 515;
},
{
anchors = (
{
name = bottom;
pos = (284,0);
},
{
name = center;
pos = (284,334);
},
{
name = top;
pos = (284,667);
}
);
layerId = m006;
shapes = (
{
closed = 1;
nodes = (
(25,577,l),
(309,577,l),
(36,147,ls),
(10,106,o),
(0,71,o),
(0,23,cs),
(0,0,l),
(545,0,l),
(545,90,l),
(227,90,l),
(550,587,ls),
(578,630,o),
(575,667,o),
(525,667,cs),
(25,667,l)
);
},
{
pos = (25,0);
ref = _serif.Z;
},
{
angle = 180;
pos = (545,667);
ref = _serif.Z;
}
);
width = 568;
},
{
anchors = (
{
name = bottom;
pos = (252,0);
},
{
name = center;
pos = (252,334);
},
{
name = top;
pos = (252,667);
}
);
layerId = m007;
shapes = (
{
closed = 1;
nodes = (
(47,629,l),
(381,629,l),
(34,70,ls),
(28,61,o),
(22,44,o),
(22,26,cs),
(22,0,l),
(467,0,l),
(467,38,l),
(118,38,l),
(473,639,ls),
(483,655,o),
(482,667,o),
(471,667,cs),
(47,667,l)
);
},
{
pos = (47,0);
ref = _serif.Z;
},
{
angle = 180;
pos = (467,667);
ref = _serif.Z;
}
);
width = 504;
},
{
anchors = (
{
name = bottom;
pos = (258,0);
},
{
name = center;
pos = (258,334);
},
{
name = top;
pos = (258,667);
}
);
hints = (
{
horizontal = 1;
place = (25,110);
type = Stem;
},
{
horizontal = 1;
place = (612,105);
type = Stem;
},
{
place = (55,500);
type = Stem;
}
);
layerId = m008;
shapes = (
{
closed = 1;
nodes = (
(40,623,l),
(377,623,l),
(29,70,ls),
(21,57,o),
(15,42,o),
(15,26,cs),
(15,0,l),
(485,0,l),
(485,44,l),
(135,44,l),
(490,633,ls),
(503,654,o),
(502,667,o),
(477,667,cs),
(40,667,l)
);
},
{
pos = (40,0);
ref = _serif.Z;
},
{
angle = 180;
pos = (485,667);
ref = _serif.Z;
}
);
width = 515;
},
{
anchors = (
{
name = bottom;
pos = (284,0);
},
{
name = center;
pos = (284,334);
},
{
name = top;
pos = (284,667);
}
);
layerId = m009;
shapes = (
{
closed = 1;
nodes = (
(25,607,l),
(309,607,l),
(36,147,ls),
(11,105,o),
(0,71,o),
(0,23,cs),
(0,0,l),
(545,0,l),
(545,60,l),
(227,60,l),
(550,607,ls),
(576,651,o),
(575,667,o),
(525,667,cs),
(25,667,l)
);
},
{
pos = (25,0);
ref = _serif.Z;
},
{
angle = 180;
pos = (545,667);
ref = _serif.Z;
}
);
width = 567;
}
);
metricLeft = "=H/2";
metricRight = "=H/2";
note = Z;
unicode = 90;
}
{
glyphname = bracketleft;
layers = (
{
layerId = m004;
shapes = (
{
closed = 1;
nodes = (
(192,-65,l),
(192,-40,l),
(102,-40,l),
(102,707,l),
(192,707,l),
(192,732,l),
(42,732,l),
(42,-65,l)
);
}
);
width = 201;
},
{
hints = (
{
horizontal = 1;
place = (-71,70);
type = Stem;
},
{
horizontal = 1;
place = (667,70);
type = Stem;
},
{
place = (80,80);
type = Stem;
}
);
layerId = m005;
shapes = (
{
closed = 1;
nodes = (
(230,-86,l),
(230,-36,l),
(130,-36,l),
(130,702,l),
(230,702,l),
(230,752,l),
(30,752,l),
(30,-86,l)
);
}
);
width = 233;
},
{
layerId = m006;
shapes = (
{
closed = 1;
nodes = (
(260,-101,l),
(260,-26,l),
(160,-26,l),
(160,692,l),
(260,692,l),
(260,767,l),
(10,767,l),
(10,-101,l)
);
}
);
width = 265;
},
{
layerId = m007;
shapes = (
{
closed = 1;
nodes = (
(192,-65,l),
(192,-40,l),
(97,-40,l),
(97,707,l),
(192,707,l),
(192,732,l),
(42,732,l),
(42,-65,l)
);
}
);
width = 201;
},
{
hints = (
{
horizontal = 1;
place = (-71,70);
type = Stem;
},
{
horizontal = 1;
place = (667,70);
type = Stem;
},
{
place = (80,80);
type = Stem;
}
);
layerId = m008;
shapes = (
{
closed = 1;
nodes = (
(230,-86,l),
(230,-36,l),
(130,-36,l),
(130,702,l),
(230,702,l),
(230,752,l),
(30,752,l),
(30,-86,l)
);
}
);
width = 233;
},
{
layerId = m009;
shapes = (
{
closed = 1;
nodes = (
(250,-101,l),
(250,-26,l),
(150,-26,l),
(150,692,l),
(250,692,l),
(250,767,l),
(0,767,l),
(0,-101,l)
);
}
);
width = 250;
}
);
metricLeft = "=n";
metricRight = "=n/2";
note = bracketleft;
unicode = 91;
}
{
glyphname = asciicircum;
layers = (
{
layerId = m004;
shapes = (
{
closed = 1;
nodes = (
(277,710,l),
(136,410,l),
(184,410,l),
(300,654,l),
(416,410,l),
(465,410,l),
(324,710,l)
);
}
);
width = 600;
},
{
hints = (
{
horizontal = 1;
place = (500,300);
type = Stem;
},
{
place = (80,351);
type = Stem;
}
);
layerId = m005;
shapes = (
{
closed = 1;
nodes = (
(266,710,l),
(125,410,l),
(195,410,l),
(300,630,l),
(405,410,l),
(476,410,l),
(335,710,l)
);
}
);
width = 600;
},
{
layerId = m006;
shapes = (
{
closed = 1;
nodes = (
(266,710,l),
(125,410,l),
(265,410,l),
(300,530,l),
(335,410,l),
(476,410,l),
(335,710,l)
);
}
);
width = 600;
},
{
layerId = m007;
shapes = (
{
closed = 1;
nodes = (
(277,710,l),
(136,410,l),
(184,410,l),
(300,666,l),
(416,410,l),
(465,410,l),
(324,710,l)
);
}
);
width = 600;
},
{
hints = (
{
horizontal = 1;
place = (500,300);
type = Stem;
},
{
place = (80,351);
type = Stem;
}
);
layerId = m008;
shapes = (
{
closed = 1;
nodes = (
(266,710,l),
(125,410,l),
(195,410,l),
(300,636,l),
(405,410,l),
(476,410,l),
(335,710,l)
);
}
);
width = 600;
},
{
layerId = m009;
shapes = (
{
closed = 1;
nodes = (
(266,710,l),
(125,410,l),
(265,410,l),
(300,580,l),
(335,410,l),
(476,410,l),
(335,710,l)
);
}
);
width = 600;
}
);
note = asciicircum;
unicode = 94;
}
{
glyphname = grave;
layers = (
{
layerId = m004;
shapes = (
{
closed = 1;
nodes = (
(194,710,l),
(172,671,l),
(304,594,l),
(323,627,l)
);
}
);
width = 500;
},
{
hints = (
{
horizontal = 1;
place = (575,165);
type = Stem;
},
{
place = (147,205);
type = Stem;
}
);
layerId = m005;
shapes = (
{
closed = 1;
nodes = (
(184,740,l),
(147,675,l),
(320,575,l),
(352,632,l)
);
}
);
width = 500;
},
{
layerId = m006;
shapes = (
{
closed = 1;
nodes = (
(174,770,l),
(117,669,l),
(331,546,l),
(381,637,l)
);
}
);
width = 498;
},
{
layerId = m007;
shapes = (
{
closed = 1;
nodes = (
(194,710,l),
(172,671,l),
(304,594,l),
(323,627,l)
);
}
);
width = 500;
},
{
hints = (
{
horizontal = 1;
place = (575,165);
type = Stem;
},
{
place = (147,205);
type = Stem;
}
);
layerId = m008;
shapes = (
{
closed = 1;
nodes = (
(184,740,l),
(147,675,l),
(320,575,l),
(352,632,l)
);
}
);
width = 500;
},
{
layerId = m009;
shapes = (
{
closed = 1;
nodes = (
(174,770,l),
(117,669,l),
(331,546,l),
(381,637,l)
);
}
);
width = 498;
}
);
note = grave;
unicode = 96;
}
{
glyphname = a;
layers = (
{
anchors = (
{
name = bottom;
pos = (245,0);
},
{
name = ogonek;
pos = (448,0);
},
{
name = top;
pos = (245,500);
}
);
layerId = m004;
shapes = (
{
closed = 1;
nodes = (
(279,-10,o),
(312,55,o),
(325,92,c),
(331,55,o),
(368,30,o),
(368,0,c),
(398,0,l),
(398,275,ls),
(398,395,o),
(383,500,o),
(245,500,cs),
(160,500,o),
(105,465,o),
(105,465,c),
(105,415,o),
(105,370,o),
(128,370,c),
(151,370,o),
(160,450,o),
(230,450,cs),
(290,450,o),
(323,407,o),
(323,300,c),
(186,300,o),
(52,287,o),
(52,155,cs),
(52,59,o),
(67,-10,o),
(165,-10,cs)
);
},
{
closed = 1;
nodes = (
(132,45,o),
(117,92,o),
(117,155,cs),
(117,243,o),
(225,255,o),
(323,255,c),
(323,200,ls),
(323,112,o),
(283,45,o),
(195,45,cs)
);
},
{
pos = (300,0);
ref = _serif.a;
}
);
width = 484;
},
{
anchors = (
{
name = bottom;
pos = (245,0);
},
{
name = ogonek;
pos = (460,0);
},
{
name = top;
pos = (245,500);
}
);
hints = (
{
horizontal = 1;
place = (65,155);
type = Stem;
},
{
horizontal = 1;
place = (325,135);
type = Stem;
},
{
horizontal = 1;
place = (510,150);
type = Stem;
},
{
place = (105,165);
type = Stem;
},
{
place = (375,170);
type = Stem;
},
{
horizontal = 1;
place = (75,21);
target = up;
type = BottomGhost;
}
);
layerId = m005;
shapes = (
{
closed = 1;
nodes = (
(269,-10,o),
(312,55,o),
(320,80,c),
(331,43,o),
(355,30,o),
(355,0,c),
(410,0,l),
(410,270,ls),
(410,390,o),
(395,500,o),
(245,500,cs),
(160,500,o),
(93,465,o),
(93,465,c),
(93,415,o),
(93,370,o),
(128,370,c),
(163,370,o),
(160,440,o),
(230,440,cs),
(290,440,o),
(310,398,o),
(310,305,c),
(174,305,o),
(40,287,o),
(40,155,cs),
(40,59,o),
(55,-10,o),
(165,-10,cs)
);
},
{
closed = 1;
nodes = (
(145,55,o),
(130,102,o),
(130,155,cs),
(130,238,o),
(238,250,o),
(310,250,c),
(310,200,ls),
(310,115,o),
(270,55,o),
(195,55,cs)
);
},
{
pos = (300,0);
ref = _serif.a;
}
);
width = 484;
},
{
anchors = (
{
name = bottom;
pos = (295,0);
},
{
name = ogonek;
pos = (530,0);
},
{
name = top;
pos = (295,500);
}
);
layerId = m006;
shapes = (
{
closed = 1;
nodes = (
(250,-10,o),
(275,41,o),
(285,80,c),
(295,80,o),
(375,26,o),
(375,0,c),
(480,0,l),
(480,275,ls),
(480,380,o),
(463,500,o),
(270,500,cs),
(145,500,o),
(64,450,o),
(64,450,c),
(64,450,o),
(40,340,o),
(98,340,c),
(156,340,o),
(170,425,o),
(220,425,cs),
(265,425,o),
(280,393,o),
(280,323,c),
(176,319,o),
(20,288,o),
(20,155,cs),
(20,43,o),
(60,-10,o),
(145,-10,cs)
);
},
{
closed = 1;
nodes = (
(198,80,o),
(190,99,o),
(190,155,cs),
(190,210,o),
(229,249,o),
(280,251,c),
(280,218,ls),
(280,139,o),
(254,80,o),
(220,80,cs)
);
},
{
pos = (350,0);
ref = _serif.a;
}
);
width = 559;
},
{
anchors = (
{
name = bottom;
pos = (245,0);
},
{
name = ogonek;
pos = (448,0);
},
{
name = top;
pos = (245,500);
}
);
layerId = m007;
shapes = (
{
closed = 1;
nodes = (
(259,-10,o),
(307,55,o),
(325,92,c),
(331,55,o),
(368,30,o),
(368,0,c),
(398,0,l),
(398,275,ls),
(398,395,o),
(383,500,o),
(245,500,cs),
(160,500,o),
(105,465,o),
(105,465,c),
(105,415,o),
(105,370,o),
(128,370,c),
(151,370,o),
(160,462,o),
(230,462,cs),
(290,462,o),
(323,419,o),
(323,290,c),
(186,290,o),
(52,272,o),
(52,155,cs),
(52,59,o),
(67,-10,o),
(165,-10,cs)
);
},
{
closed = 1;
nodes = (
(132,33,o),
(117,80,o),
(117,155,cs),
(117,243,o),
(225,265,o),
(323,265,c),
(323,200,ls),
(323,107,o),
(283,33,o),
(195,33,cs)
);
},
{
pos = (300,0);
ref = _serif.a;
}
);
width = 484;
},
{
anchors = (
{
name = bottom;
pos = (245,0);
},
{
name = ogonek;
pos = (460,0);
},
{
name = top;
pos = (245,500);
}
);
hints = (
{
horizontal = 1;
place = (65,155);
type = Stem;
},
{
horizontal = 1;
place = (325,135);
type = Stem;
},
{
horizontal = 1;
place = (510,150);
type = Stem;
},
{
place = (105,165);
type = Stem;
},
{
place = (375,170);
type = Stem;
},
{
horizontal = 1;
place = (75,21);
target = up;
type = BottomGhost;
}
);
layerId = m008;
shapes = (
{
closed = 1;
nodes = (
(259,-10,o),
(307,55,o),
(320,80,c),
(331,43,o),
(355,30,o),
(355,0,c),
(410,0,l),
(410,305,ls),
(410,395,o),
(395,500,o),
(245,500,cs),
(160,500,o),
(93,465,o),
(93,465,c),
(93,415,o),
(93,370,o),
(128,370,c),
(163,370,o),
(160,456,o),
(230,456,cs),
(290,456,o),
(310,386,o),
(310,300,c),
(174,300,o),
(40,280,o),
(40,155,cs),
(40,59,o),
(55,-10,o),
(165,-10,cs)
);
},
{
closed = 1;
nodes = (
(145,39,o),
(130,86,o),
(130,155,cs),
(130,248,o),
(238,265,o),
(310,265,c),
(310,200,ls),
(310,92,o),
(270,39,o),
(195,39,cs)
);
},
{
pos = (300,0);
ref = _serif.a;
}
);
width = 484;
},
{
anchors = (
{
name = bottom;
pos = (285,0);
},
{
name = ogonek;
pos = (520,0);
},
{
name = top;
pos = (285,500);
}
);
layerId = m009;
shapes = (
{
closed = 1;
nodes = (
(240,-10,o),
(265,41,o),
(275,80,c),
(285,80,o),
(365,26,o),
(365,0,c),
(470,0,l),
(470,275,ls),
(470,380,o),
(453,500,o),
(260,500,cs),
(135,500,o),
(54,450,o),
(54,450,c),
(54,450,o),
(30,340,o),
(88,340,c),
(146,340,o),
(160,450,o),
(210,450,cs),
(255,450,o),
(270,405,o),
(270,311,c),
(166,307,o),
(10,288,o),
(10,155,cs),
(10,43,o),
(50,-10,o),
(135,-10,cs)
);
},
{
closed = 1;
nodes = (
(188,70,o),
(180,99,o),
(180,155,cs),
(180,222,o),
(219,261,o),
(270,263,c),
(270,218,ls),
(270,129,o),
(244,70,o),
(210,70,cs)
);
},
{
pos = (340,0);
ref = _serif.a;
}
);
width = 539;
}
);
metricLeft = "=o";
metricRight = "=n";
note = a;
unicode = 97;
}
{
glyphname = b;
kernRight = o;
layers = (
{
layerId = m004;
shapes = (
{
closed = 1;
nodes = (
(409,-10,o),
(441,103,o),
(441,245,cs),
(441,449,o),
(408,500,o),
(301,500,cs),
(212,500,o),
(170,439,o),
(161,439,cs),
(152,439,o),
(151,459,o),
(151,490,cs),
(151,700,l),
(76,700,l),
(76,0,l),
(136,10,o),
(162,-10,o),
(249,-10,cs)
);
},
{
closed = 1;
nodes = (
(198,43,o),
(151,56,o),
(151,56,c),
(151,245,ls),
(151,370,o),
(218,450,o),
(279,450,cs),
(354,450,o),
(366,400,o),
(366,245,cs),
(366,71,o),
(319,43,o),
(248,43,cs)
);
},
{
pos = (76,0);
ref = _serif.l;
}
);
width = 493;
},
{
hints = (
{
horizontal = 1;
place = (15,95);
type = Stem;
},
{
horizontal = 1;
place = (455,105);
type = Stem;
},
{
place = (85,120);
type = Stem;
},
{
place = (370,125);
type = Stem;
},
{
horizontal = 1;
place = (25,21);
target = up;
type = BottomGhost;
}
);
layerId = m005;
shapes = (
{
closed = 1;
nodes = (
(409,-10,o),
(454,95,o),
(454,245,cs),
(454,440,o),
(411,500,o),
(304,500,cs),
(215,500,o),
(183,450,o),
(174,450,cs),
(165,450,o),
(164,459,o),
(164,490,cs),
(164,700,l),
(64,700,l),
(64,0,l),
(124,10,o),
(162,-10,o),
(249,-10,cs)
);
},
{
closed = 1;
nodes = (
(199,50,o),
(164,60,o),
(164,60,c),
(164,245,ls),
(164,370,o),
(204,440,o),
(279,440,cs),
(354,440,o),
(354,380,o),
(354,245,cs),
(354,107,o),
(341,50,o),
(249,50,cs)
);
},
{
pos = (64,0);
ref = _serif.l;
}
);
width = 494;
},
{
layerId = m006;
shapes = (
{
closed = 1;
nodes = (
(452,-10,o),
(534,63,o),
(534,245,cs),
(534,435,o),
(490,500,o),
(379,500,cs),
(300,500,o),
(263,468,o),
(254,468,cs),
(248,468,o),
(244,476,o),
(244,490,cs),
(244,700,l),
(44,700,l),
(44,0,l),
(144,0,o),
(244,-10,o),
(279,-10,cs)
);
},
{
closed = 1;
nodes = (
(262,65,o),
(244,68,o),
(244,68,c),
(244,245,ls),
(244,376,o),
(263,425,o),
(304,425,cs),
(327,425,o),
(334,387,o),
(334,245,cs),
(334,114,o),
(316,65,o),
(279,65,cs)
);
},
{
pos = (44,0);
ref = _serif.l;
}
);
width = 554;
},
{
layerId = m007;
shapes = (
{
closed = 1;
nodes = (
(409,-10,o),
(441,103,o),
(441,245,cs),
(441,449,o),
(408,500,o),
(301,500,cs),
(212,500,o),
(170,429,o),
(161,429,cs),
(152,429,o),
(151,459,o),
(151,490,cs),
(151,700,l),
(76,700,l),
(76,0,l),
(136,10,o),
(162,-10,o),
(249,-10,cs)
);
},
{
closed = 1;
nodes = (
(198,33,o),
(151,46,o),
(151,46,c),
(151,245,ls),
(151,382,o),
(218,462,o),
(279,462,cs),
(354,462,o),
(366,412,o),
(366,245,cs),
(366,61,o),
(319,33,o),
(248,33,cs)
);
},
{
pos = (76,0);
ref = _serif.l;
}
);
width = 493;
},
{
hints = (
{
horizontal = 1;
place = (15,95);
type = Stem;
},
{
horizontal = 1;
place = (455,105);
type = Stem;
},
{
place = (85,120);
type = Stem;
},
{
place = (370,125);
type = Stem;
},
{
horizontal = 1;
place = (25,21);
target = up;
type = BottomGhost;
}
);
layerId = m008;
shapes = (
{
closed = 1;
nodes = (
(409,-10,o),
(454,95,o),
(454,245,cs),
(454,440,o),
(411,500,o),
(304,500,cs),
(215,500,o),
(183,450,o),
(174,450,cs),
(165,450,o),
(164,459,o),
(164,490,cs),
(164,700,l),
(64,700,l),
(64,0,l),
(124,10,o),
(162,-10,o),
(249,-10,cs)
);
},
{
closed = 1;
nodes = (
(199,34,o),
(164,44,o),
(164,44,c),
(164,245,ls),
(164,376,o),
(204,456,o),
(279,456,cs),
(354,456,o),
(354,397,o),
(354,245,cs),
(354,107,o),
(341,34,o),
(249,34,cs)
);
},
{
pos = (64,0);
ref = _serif.l;
}
);
width = 494;
},
{
layerId = m009;
shapes = (
{
closed = 1;
nodes = (
(442,-10,o),
(524,63,o),
(524,245,cs),
(524,435,o),
(480,500,o),
(369,500,cs),
(290,500,o),
(253,468,o),
(244,468,cs),
(238,468,o),
(234,476,o),
(234,490,cs),
(234,700,l),
(34,700,l),
(34,0,l),
(134,0,o),
(234,-10,o),
(269,-10,cs)
);
},
{
closed = 1;
nodes = (
(252,45,o),
(234,48,o),
(234,48,c),
(234,245,ls),
(234,396,o),
(253,445,o),
(294,445,cs),
(317,445,o),
(324,407,o),
(324,245,cs),
(324,94,o),
(306,45,o),
(269,45,cs)
);
},
{
pos = (34,0);
ref = _serif.l;
}
);
width = 534;
}
);
metricLeft = "=n-35";
metricRight = "=o";
note = b;
unicode = 98;
}
{
glyphname = c;
layers = (
{
anchors = (
{
name = bottom;
pos = (245,0);
},
{
name = top;
pos = (245,500);
}
);
layerId = m004;
shapes = (
{
closed = 1;
nodes = (
(245,40,l),
(142,40,o),
(127,116,o),
(127,245,cs),
(127,366,o),
(136,450,o),
(245,450,c),
(245,500,l),
(99,500,o),
(52,411,o),
(52,245,cs),
(52,84,o),
(95,-10,o),
(245,-10,c)
);
},
{
closed = 1;
nodes = (
(297,-10,o),
(331,6,o),
(372,22,c),
(372,22,o),
(373,75,o),
(351,75,cs),
(332,75,o),
(302,40,o),
(245,40,c),
(245,-10,l)
);
},
{
closed = 1;
nodes = (
(344,411,o),
(373,431,o),
(373,459,cs),
(373,477,o),
(325,500,o),
(245,500,c),
(245,450,l),
(312,450,o),
(308,411,o),
(329,411,cs)
);
}
);
width = 399;
},
{
anchors = (
{
name = bottom;
pos = (245,0);
},
{
name = top;
pos = (245,500);
}
);
hints = (
{
horizontal = 1;
place = (15,105);
type = Stem;
},
{
horizontal = 1;
place = (460,100);
type = Stem;
},
{
place = (65,125);
type = Stem;
}
);
layerId = m005;
shapes = (
{
closed = 1;
nodes = (
(245,50,l),
(155,50,o),
(140,117,o),
(140,245,cs),
(140,373,o),
(155,440,o),
(245,440,c),
(245,500,l),
(85,500,o),
(40,395,o),
(40,245,cs),
(40,95,o),
(85,-10,o),
(245,-10,c)
);
},
{
closed = 1;
nodes = (
(332,-10,o),
(391,40,o),
(391,40,c),
(391,40,o),
(390,95,o),
(370,95,cs),
(343,95,o),
(320,50,o),
(245,50,c),
(245,-10,l)
);
},
{
closed = 1;
nodes = (
(384,370,o),
(394,415,o),
(394,455,cs),
(394,485,o),
(315,500,o),
(245,500,c),
(245,440,l),
(315,440,o),
(314,370,o),
(349,370,c)
);
}
);
width = 414;
},
{
anchors = (
{
name = bottom;
pos = (275,0);
},
{
name = top;
pos = (275,500);
}
);
layerId = m006;
shapes = (
{
closed = 1;
nodes = (
(275,65,l),
(241,65,o),
(230,103,o),
(230,245,cs),
(230,387,o),
(241,425,o),
(275,425,c),
(275,500,l),
(102,500,o),
(20,427,o),
(20,245,cs),
(20,63,o),
(102,-10,o),
(275,-10,c)
);
},
{
closed = 1;
nodes = (
(355,-10,o),
(436,40,o),
(436,40,c),
(436,40,o),
(460,150,o),
(402,150,c),
(344,150,o),
(345,65,o),
(275,65,c),
(275,-10,l)
);
},
{
closed = 1;
nodes = (
(405,340,o),
(433,393,o),
(433,443,cs),
(433,493,o),
(355,500,o),
(275,500,c),
(275,425,l),
(345,425,o),
(305,340,o),
(355,340,cs)
);
}
);
width = 451;
},
{
anchors = (
{
name = bottom;
pos = (245,0);
},
{
name = top;
pos = (245,500);
}
);
layerId = m007;
shapes = (
{
closed = 1;
nodes = (
(245,28,l),
(142,28,o),
(127,104,o),
(127,245,cs),
(127,378,o),
(136,463,o),
(245,463,c),
(245,500,l),
(99,500,o),
(52,411,o),
(52,245,cs),
(52,84,o),
(95,-10,o),
(245,-10,c)
);
},
{
closed = 1;
nodes = (
(297,-10,o),
(331,6,o),
(372,22,c),
(372,22,o),
(373,75,o),
(351,75,cs),
(332,75,o),
(302,28,o),
(245,28,c),
(245,-10,l)
);
},
{
closed = 1;
nodes = (
(344,411,o),
(373,431,o),
(373,459,cs),
(373,477,o),
(325,500,o),
(245,500,c),
(245,463,l),
(312,463,o),
(308,411,o),
(329,411,cs)
);
}
);
width = 399;
},
{
anchors = (
{
name = bottom;
pos = (245,0);
},
{
name = top;
pos = (245,500);
}
);
hints = (
{
horizontal = 1;
place = (15,105);
type = Stem;
},
{
horizontal = 1;
place = (460,100);
type = Stem;
},
{
place = (65,125);
type = Stem;
}
);
layerId = m008;
shapes = (
{
closed = 1;
nodes = (
(245,34,l),
(155,34,o),
(140,101,o),
(140,245,cs),
(140,389,o),
(155,456,o),
(245,456,c),
(245,500,l),
(85,500,o),
(40,395,o),
(40,245,cs),
(40,95,o),
(85,-10,o),
(245,-10,c)
);
},
{
closed = 1;
nodes = (
(332,-10,o),
(391,40,o),
(391,40,c),
(391,40,o),
(390,95,o),
(370,95,cs),
(343,95,o),
(320,34,o),
(245,34,c),
(245,-10,l)
);
},
{
closed = 1;
nodes = (
(384,370,o),
(394,415,o),
(394,455,cs),
(394,485,o),
(315,500,o),
(245,500,c),
(245,456,l),
(315,456,o),
(314,370,o),
(349,370,c)
);
}
);
width = 414;
},
{
anchors = (
{
name = bottom;
pos = (265,0);
},
{
name = top;
pos = (265,500);
}
);
layerId = m009;
shapes = (
{
closed = 1;
nodes = (
(265,40,l),
(231,40,o),
(220,78,o),
(220,245,cs),
(220,412,o),
(231,450,o),
(265,450,c),
(265,500,l),
(92,500,o),
(10,427,o),
(10,245,cs),
(10,63,o),
(92,-10,o),
(265,-10,c)
);
},
{
closed = 1;
nodes = (
(345,-10,o),
(426,40,o),
(426,40,c),
(426,40,o),
(450,150,o),
(392,150,c),
(334,150,o),
(335,40,o),
(265,40,c),
(265,-10,l)
);
},
{
closed = 1;
nodes = (
(395,340,o),
(423,393,o),
(423,443,cs),
(423,493,o),
(345,500,o),
(265,500,c),
(265,450,l),
(335,450,o),
(295,340,o),
(345,340,cs)
);
}
);
width = 436;
}
);
metricLeft = "=o";
metricRight = "=o/2";
note = c;
unicode = 99;
}
{
glyphname = d;
kernLeft = o;
layers = (
{
anchors = (
{
name = bottom;
pos = (264,0);
},
{
name = center;
pos = (396,560);
},
{
name = top;
pos = (264,490);
},
{
name = topright;
pos = (508,700);
}
);
layerId = m004;
shapes = (
{
closed = 1;
nodes = (
(289,-10,o),
(344,89,o),
(344,89,c),
(364,50,o),
(392,33,o),
(392,0,c),
(417,0,l),
(417,700,l),
(342,700,l),
(342,485,l),
(321,492,o),
(287,500,o),
(244,500,cs),
(92,500,o),
(52,394,o),
(52,245,cs),
(52,49,o),
(83,-10,o),
(189,-10,cs)
);
},
{
closed = 1;
nodes = (
(126,45,o),
(127,102,o),
(127,245,cs),
(127,363,o),
(139,450,o),
(244,450,cs),
(292,450,o),
(336,436,o),
(341,431,c),
(342,245,ls),
(342,138,o),
(301,45,o),
(214,45,cs)
);
},
{
pos = (342,0);
ref = _serif.l;
},
{
pos = (319,0);
ref = _serif.a;
}
);
width = 503;
},
{
anchors = (
{
name = bottom;
pos = (265,0);
},
{
name = center;
pos = (397,560);
},
{
name = top;
pos = (265,490);
},
{
name = topright;
pos = (509,700);
}
);
hints = (
{
horizontal = 1;
place = (25,21);
target = up;
type = BottomGhost;
},
{
horizontal = 1;
place = (460,100);
type = Stem;
},
{
place = (65,125);
type = Stem;
},
{
place = (355,120);
type = Stem;
},
{
horizontal = 1;
place = (15,105);
type = Stem;
}
);
layerId = m005;
shapes = (
{
closed = 1;
nodes = (
(279,-10,o),
(327,55,o),
(340,80,c),
(356,55,o),
(380,31,o),
(380,0,c),
(430,0,l),
(430,700,l),
(330,700,l),
(330,490,l),
(330,490,o),
(295,500,o),
(245,500,cs),
(85,500,o),
(40,395,o),
(40,245,cs),
(40,50,o),
(83,-10,o),
(190,-10,cs)
);
},
{
closed = 1;
nodes = (
(140,50,o),
(140,109,o),
(140,245,cs),
(140,353,o),
(153,440,o),
(245,440,cs),
(295,440,o),
(330,425,o),
(330,425,c),
(330,245,ls),
(330,142,o),
(290,50,o),
(215,50,cs)
);
},
{
pos = (330,0);
ref = _serif.l;
},
{
pos = (320,0);
ref = _serif.a;
}
);
width = 504;
},
{
anchors = (
{
name = bottom;
pos = (295,0);
},
{
name = center;
pos = (442,560);
},
{
name = top;
pos = (295,490);
},
{
name = topright;
pos = (569,700);
}
);
layerId = m006;
shapes = (
{
closed = 1;
nodes = (
(280,-10,o),
(320,45,o),
(340,45,cs),
(350,45,o),
(385,26,o),
(385,0,c),
(510,0,l),
(510,700,l),
(310,690,l),
(310,498,l),
(310,498,o),
(288,500,o),
(265,500,cs),
(99,500,o),
(20,427,o),
(20,245,cs),
(20,55,o),
(64,-10,o),
(175,-10,cs)
);
},
{
closed = 1;
nodes = (
(228,65,o),
(220,103,o),
(220,245,cs),
(220,376,o),
(239,425,o),
(280,425,cs),
(295,425,o),
(310,420,o),
(310,420,c),
(310,245,ls),
(310,114,o),
(291,65,o),
(250,65,cs)
);
},
{
pos = (310,0);
ref = _serif.l;
},
{
pos = (380,0);
ref = _serif.a;
}
);
width = 589;
},
{
anchors = (
{
name = bottom;
pos = (264,0);
},
{
name = center;
pos = (396,560);
},
{
name = top;
pos = (264,490);
},
{
name = topright;
pos = (508,700);
}
);
layerId = m007;
shapes = (
{
closed = 1;
nodes = (
(293,-10,o),
(342,93,o),
(344,99,c),
(364,60,o),
(392,33,o),
(392,0,c),
(417,0,l),
(417,700,l),
(342,700,l),
(342,485,l),
(321,492,o),
(287,500,o),
(244,500,cs),
(92,500,o),
(52,394,o),
(52,245,cs),
(52,49,o),
(92,-10,o),
(189,-10,cs)
);
},
{
closed = 1;
nodes = (
(126,34,o),
(127,91,o),
(127,245,cs),
(127,375,o),
(139,462,o),
(244,462,cs),
(292,462,o),
(336,448,o),
(341,443,c),
(342,245,ls),
(342,133,o),
(301,34,o),
(214,34,cs)
);
},
{
pos = (342,0);
ref = _serif.l;
},
{
pos = (319,0);
ref = _serif.a;
}
);
width = 503;
},
{
anchors = (
{
name = bottom;
pos = (265,0);
},
{
name = center;
pos = (397,560);
},
{
name = top;
pos = (265,490);
},
{
name = topright;
pos = (509,700);
}
);
hints = (
{
horizontal = 1;
place = (25,21);
target = up;
type = BottomGhost;
},
{
horizontal = 1;
place = (460,100);
type = Stem;
},
{
place = (65,125);
type = Stem;
},
{
place = (355,120);
type = Stem;
},
{
horizontal = 1;
place = (15,105);
type = Stem;
}
);
layerId = m008;
shapes = (
{
closed = 1;
nodes = (
(279,-10,o),
(327,55,o),
(340,80,c),
(356,55,o),
(380,31,o),
(380,0,c),
(430,0,l),
(430,700,l),
(330,700,l),
(330,490,l),
(330,490,o),
(295,500,o),
(245,500,cs),
(85,500,o),
(40,395,o),
(40,245,cs),
(40,50,o),
(83,-10,o),
(190,-10,cs)
);
},
{
closed = 1;
nodes = (
(140,40,o),
(140,99,o),
(140,245,cs),
(140,369,o),
(153,456,o),
(245,456,cs),
(295,456,o),
(330,441,o),
(330,441,c),
(330,245,ls),
(330,132,o),
(290,40,o),
(215,40,cs)
);
},
{
pos = (330,0);
ref = _serif.l;
},
{
pos = (320,0);
ref = _serif.a;
}
);
width = 504;
},
{
anchors = (
{
name = bottom;
pos = (285,0);
},
{
name = center;
pos = (432,560);
},
{
name = top;
pos = (285,490);
},
{
name = topright;
pos = (559,700);
}
);
layerId = m009;
shapes = (
{
closed = 1;
nodes = (
(270,-10,o),
(310,45,o),
(330,45,cs),
(340,45,o),
(375,26,o),
(375,0,c),
(500,0,l),
(500,700,l),
(300,700,l),
(300,498,l),
(300,498,o),
(278,500,o),
(255,500,cs),
(89,500,o),
(10,427,o),
(10,245,cs),
(10,55,o),
(54,-10,o),
(165,-10,cs)
);
},
{
closed = 1;
nodes = (
(218,45,o),
(210,83,o),
(210,245,cs),
(210,401,o),
(229,450,o),
(270,450,cs),
(285,450,o),
(300,445,o),
(300,445,c),
(300,245,ls),
(300,94,o),
(281,45,o),
(240,45,cs)
);
},
{
pos = (300,0);
ref = _serif.l;
},
{
pos = (370,0);
ref = _serif.a;
}
);
width = 569;
}
);
metricLeft = "=o";
metricRight = "=n";
note = d;
unicode = 100;
}
{
glyphname = f;
layers = (
{
layerId = m004;
shapes = (
{
closed = 1;
nodes = (
(186,0,l),
(187,440,l),
(281,440,ls),
(290,440,o),
(296,446,o),
(296,455,cs),
(296,475,ls),
(296,484,o),
(290,490,o),
(281,490,cs),
(186,490,l),
(186,601,o),
(183,660,o),
(248,660,cs),
(308,660,o),
(293,610,o),
(308,610,cs),
(323,610,o),
(336,628,o),
(335,693,c),
(308,704,o),
(273,710,o),
(228,710,cs),
(110,710,o),
(111,610,o),
(111,490,c),
(57,490,ls),
(48,490,o),
(42,484,o),
(42,475,cs),
(42,455,ls),
(42,446,o),
(48,440,o),
(57,440,cs),
(111,440,l),
(111,0,l)
);
},
{
pos = (111,0);
ref = _serif.H;
},
{
pos = (186,0);
ref = _serif.H;
scale = (-1,1);
}
);
width = 325;
},
{
hints = (
{
horizontal = 1;
place = (25,21);
target = up;
type = BottomGhost;
},
{
horizontal = 1;
place = (460,90);
type = Stem;
},
{
horizontal = 1;
place = (665,86);
type = Stem;
},
{
place = (105,121);
type = Stem;
}
);
layerId = m005;
shapes = (
{
closed = 1;
nodes = (
(199,0,l),
(200,430,l),
(294,430,ls),
(303,430,o),
(309,436,o),
(309,445,cs),
(309,475,ls),
(309,484,o),
(303,490,o),
(294,490,cs),
(199,490,l),
(199,590,o),
(199,650,o),
(249,650,c),
(304,650,o),
(279,610,o),
(309,610,cs),
(324,610,o),
(349,627,o),
(349,690,c),
(349,690,o),
(309,710,o),
(229,710,cs),
(98,710,o),
(99,610,o),
(99,490,c),
(45,490,ls),
(36,490,o),
(30,484,o),
(30,475,cs),
(30,445,ls),
(30,436,o),
(36,430,o),
(45,430,cs),
(99,430,l),
(99,0,l)
);
},
{
pos = (99,0);
ref = _serif.H;
},
{
pos = (199,0);
ref = _serif.H;
scale = (-1,1);
}
);
width = 354;
},
{
layerId = m006;
shapes = (
{
closed = 1;
nodes = (
(279,0,l),
(279,415,l),
(371,415,ls),
(380,415,o),
(386,421,o),
(386,430,cs),
(386,475,ls),
(386,484,o),
(380,490,o),
(371,490,cs),
(279,490,l),
(279,568,o),
(287,640,o),
(314,640,cs),
(364,640,o),
(336,550,o),
(386,550,cs),
(424,550,o),
(461,615,o),
(461,680,c),
(417,703,o),
(350,715,o),
(271,715,cs),
(141,715,o),
(79,646,o),
(79,490,c),
(25,490,ls),
(16,490,o),
(10,484,o),
(10,475,cs),
(10,430,ls),
(10,421,o),
(16,415,o),
(25,415,cs),
(79,415,l),
(79,0,l)
);
},
{
pos = (79,0);
ref = _serif.H;
},
{
pos = (279,0);
ref = _serif.H;
scale = (-1,1);
}
);
width = 386;
},
{
layerId = m007;
shapes = (
{
closed = 1;
nodes = (
(186,0,l),
(187,452,l),
(281,452,ls),
(290,452,o),
(296,458,o),
(296,467,cs),
(296,475,ls),
(296,484,o),
(290,490,o),
(281,490,cs),
(186,490,l),
(186,613,o),
(183,672,o),
(248,672,cs),
(308,672,o),
(293,610,o),
(308,610,cs),
(323,610,o),
(336,628,o),
(335,693,c),
(308,704,o),
(273,710,o),
(228,710,cs),
(110,710,o),
(111,610,o),
(111,490,c),
(57,490,ls),
(48,490,o),
(42,484,o),
(42,475,cs),
(42,467,ls),
(42,458,o),
(48,452,o),
(57,452,cs),
(111,452,l),
(111,0,l)
);
},
{
pos = (111,0);
ref = _serif.H;
},
{
pos = (186,0);
ref = _serif.H;
scale = (-1,1);
}
);
width = 335;
},
{
hints = (
{
horizontal = 1;
place = (25,21);
target = up;
type = BottomGhost;
},
{
horizontal = 1;
place = (460,90);
type = Stem;
},
{
horizontal = 1;
place = (665,86);
type = Stem;
},
{
place = (105,121);
type = Stem;
}
);
layerId = m008;
shapes = (
{
closed = 1;
nodes = (
(199,0,l),
(199,446,l),
(294,446,ls),
(303,446,o),
(309,452,o),
(309,461,cs),
(309,475,ls),
(309,484,o),
(303,490,o),
(294,490,cs),
(199,490,l),
(199,636,o),
(199,666,o),
(249,666,c),
(304,666,o),
(279,610,o),
(309,610,cs),
(324,610,o),
(349,627,o),
(349,690,c),
(349,690,o),
(309,710,o),
(229,710,cs),
(98,710,o),
(99,640,o),
(99,490,c),
(45,490,ls),
(36,490,o),
(30,484,o),
(30,475,cs),
(30,461,ls),
(30,452,o),
(36,446,o),
(45,446,cs),
(99,446,l),
(99,0,l)
);
},
{
pos = (99,0);
ref = _serif.H;
},
{
pos = (199,0);
ref = _serif.H;
scale = (-1,1);
}
);
width = 364;
},
{
layerId = m009;
shapes = (
{
closed = 1;
nodes = (
(269,0,l),
(269,440,l),
(361,440,ls),
(370,440,o),
(376,446,o),
(376,455,cs),
(376,475,ls),
(376,484,o),
(370,490,o),
(361,490,cs),
(269,490,l),
(269,593,o),
(277,665,o),
(304,665,cs),
(354,665,o),
(326,550,o),
(376,550,cs),
(414,550,o),
(451,615,o),
(451,680,c),
(407,703,o),
(340,715,o),
(261,715,cs),
(131,715,o),
(69,646,o),
(69,490,c),
(15,490,ls),
(6,490,o),
(0,484,o),
(0,475,cs),
(0,455,ls),
(0,446,o),
(6,440,o),
(15,440,cs),
(69,440,l),
(69,0,l)
);
},
{
pos = (69,0);
ref = _serif.H;
},
{
pos = (269,0);
ref = _serif.H;
scale = (-1,1);
}
);
width = 366;
}
);
metricLeft = "=n";
note = f;
unicode = 102;
}
{
glyphname = g;
layers = (
{
layerId = m004;
shapes = (
{
closed = 1;
nodes = (
(52,226,o),
(104,160,o),
(229,160,cs),
(354,160,o),
(407,227,o),
(407,330,cs),
(407,369,o),
(392,403,o),
(365,440,c),
(454,440,ls),
(484,440,o),
(483,498,o),
(458,490,cs),
(372,462,o),
(307,500,o),
(229,500,cs),
(107,500,o),
(52,438,o),
(52,330,cs)
);
},
{
closed = 1;
nodes = (
(163,210,o),
(127,248,o),
(127,330,cs),
(127,412,o),
(163,450,o),
(229,450,cs),
(295,450,o),
(332,412,o),
(332,330,cs),
(332,248,o),
(295,210,o),
(229,210,cs)
);
},
{
closed = 1;
nodes = (
(360,-210,o),
(432,-138,o),
(432,-40,cs),
(432,52,o),
(385,75,o),
(230,65,cs),
(162,61,o),
(127,65,o),
(127,120,cs),
(127,138,o),
(132,151,o),
(144,171,cs),
(158,194,o),
(162,236,o),
(133,194,c),
(123,193,o),
(87,153,o),
(87,105,cs),
(87,28,o),
(123,0,o),
(229,0,cs),
(323,0,o),
(362,-13,o),
(362,-40,cs),
(362,-115,o),
(312,-160,o),
(229,-160,c),
(229,-210,l)
);
},
{
closed = 1;
nodes = (
(229,-160,l),
(141,-160,o),
(131,-80,o),
(99,-80,cs),
(79,-80,o),
(77,-135,o),
(90,-179,c),
(124,-194,o),
(169,-210,o),
(229,-210,c)
);
}
);
width = 494;
},
{
hints = (
{
horizontal = 1;
place = (-185,95);
type = Stem;
},
{
horizontal = 1;
place = (25,21);
target = up;
type = BottomGhost;
},
{
horizontal = 1;
place = (185,95);
type = Stem;
},
{
horizontal = 1;
place = (465,75);
type = Stem;
},
{
place = (65,120);
type = Stem;
},
{
place = (370,120);
type = Stem;
},
{
place = (85,100);
type = Stem;
},
{
place = (340,120);
type = Stem;
}
);
layerId = m005;
shapes = (
{
closed = 1;
nodes = (
(40,213,o),
(98,160,o),
(220,160,cs),
(342,160,o),
(400,213,o),
(400,330,cs),
(400,372,o),
(397,398,o),
(366,440,c),
(445,440,l),
(495,440,o),
(485,503,o),
(445,490,cs),
(360,462,o),
(303,500,o),
(220,500,cs),
(98,500,o),
(40,448,o),
(40,330,cs)
);
},
{
closed = 1;
nodes = (
(162,220,o),
(130,255,o),
(130,330,cs),
(130,405,o),
(162,440,o),
(220,440,cs),
(278,440,o),
(310,405,o),
(310,330,cs),
(310,255,o),
(278,220,o),
(220,220,cs)
);
},
{
closed = 1;
nodes = (
(353,-210,o),
(435,-140,o),
(435,-40,cs),
(435,50,o),
(381,85,o),
(220,75,cs),
(153,71,o),
(130,75,o),
(130,120,cs),
(130,140,o),
(137,156,o),
(146,171,cs),
(162,197,o),
(168,274,o),
(114,194,c),
(115,194,o),
(65,150,o),
(65,105,cs),
(65,30,o),
(109,0,o),
(220,0,cs),
(310,0,o),
(340,-10,o),
(340,-40,cs),
(340,-114,o),
(297,-150,o),
(220,-150,c),
(220,-210,l)
);
},
{
closed = 1;
nodes = (
(220,-150,l),
(143,-150,o),
(140,-80,o),
(90,-80,cs),
(40,-80,o),
(68,-175,o),
(68,-175,c),
(68,-175,o),
(135,-210,o),
(220,-210,c)
);
}
);
width = 484;
},
{
layerId = m006;
shapes = (
{
closed = 1;
nodes = (
(20,177,o),
(105,115,o),
(257,115,cs),
(409,115,o),
(494,177,o),
(494,307,cs),
(494,328,o),
(488,346,o),
(475,375,c),
(509,375,ls),
(609,375,o),
(576,530,o),
(509,490,cs),
(393,421,o),
(421,499,o),
(257,499,cs),
(105,499,o),
(20,437,o),
(20,307,cs)
);
},
{
closed = 1;
nodes = (
(229,190,o),
(220,199,o),
(220,307,cs),
(220,415,o),
(229,424,o),
(257,424,cs),
(285,424,o),
(294,415,o),
(294,307,cs),
(294,199,o),
(285,190,o),
(257,190,cs)
);
},
{
closed = 1;
nodes = (
(419,-215,o),
(525,-151,o),
(525,-58,cs),
(525,61,o),
(449,101,o),
(254,89,cs),
(190,86,o),
(169,90,o),
(169,105,cs),
(169,118,o),
(176,123,o),
(177,127,c),
(225,241,o),
(148,226,o),
(104,171,cs),
(104,171,o),
(52,115,o),
(52,80,cs),
(52,45,o),
(46,-26,o),
(257,-26,cs),
(308,-26,o),
(325,-38,o),
(325,-73,cs),
(325,-113,o),
(307,-140,o),
(257,-140,c),
(257,-215,l)
);
},
{
closed = 1;
nodes = (
(257,-140,l),
(190,-140,o),
(185,-55,o),
(85,-55,cs),
(10,-55,o),
(51,-165,o),
(51,-165,c),
(51,-165,o),
(132,-215,o),
(257,-215,c)
);
}
);
width = 582;
},
{
layerId = m007;
shapes = (
{
closed = 1;
nodes = (
(52,226,o),
(104,160,o),
(229,160,cs),
(354,160,o),
(407,227,o),
(407,330,cs),
(407,369,o),
(392,403,o),
(358,450,c),
(454,450,ls),
(484,450,o),
(483,498,o),
(458,490,cs),
(372,462,o),
(307,500,o),
(229,500,cs),
(107,500,o),
(52,438,o),
(52,330,cs)
);
},
{
closed = 1;
nodes = (
(163,198,o),
(127,236,o),
(127,330,cs),
(127,424,o),
(163,462,o),
(229,462,cs),
(295,462,o),
(332,424,o),
(332,330,cs),
(332,236,o),
(295,198,o),
(229,198,cs)
);
},
{
closed = 1;
nodes = (
(360,-210,o),
(432,-138,o),
(432,-40,cs),
(432,52,o),
(385,73,o),
(230,63,cs),
(162,59,o),
(127,63,o),
(127,120,cs),
(127,138,o),
(132,151,o),
(144,171,cs),
(158,194,o),
(162,236,o),
(133,194,c),
(123,193,o),
(87,153,o),
(87,105,cs),
(87,28,o),
(123,0,o),
(229,0,cs),
(323,0,o),
(362,-13,o),
(362,-40,cs),
(362,-115,o),
(312,-172,o),
(229,-172,c),
(229,-210,l)
);
},
{
closed = 1;
nodes = (
(229,-172,l),
(141,-172,o),
(131,-80,o),
(99,-80,cs),
(79,-80,o),
(77,-135,o),
(90,-179,c),
(124,-194,o),
(169,-210,o),
(229,-210,c)
);
}
);
width = 494;
},
{
hints = (
{
horizontal = 1;
place = (-185,95);
type = Stem;
},
{
horizontal = 1;
place = (25,21);
target = up;
type = BottomGhost;
},
{
horizontal = 1;
place = (185,95);
type = Stem;
},
{
horizontal = 1;
place = (465,75);
type = Stem;
},
{
place = (65,120);
type = Stem;
},
{
place = (370,120);
type = Stem;
},
{
place = (85,100);
type = Stem;
},
{
place = (340,120);
type = Stem;
}
);
layerId = m008;
shapes = (
{
closed = 1;
nodes = (
(40,223,o),
(98,160,o),
(220,160,cs),
(342,160,o),
(400,223,o),
(400,330,cs),
(400,377,o),
(388,418,o),
(365,445,c),
(445,445,l),
(495,445,o),
(485,503,o),
(445,490,cs),
(360,462,o),
(303,500,o),
(220,500,cs),
(98,500,o),
(40,438,o),
(40,330,cs)
);
},
{
closed = 1;
nodes = (
(162,204,o),
(130,249,o),
(130,330,cs),
(130,411,o),
(162,456,o),
(220,456,cs),
(278,456,o),
(310,411,o),
(310,330,cs),
(310,249,o),
(278,204,o),
(220,204,cs)
);
},
{
closed = 1;
nodes = (
(353,-210,o),
(435,-140,o),
(435,-40,cs),
(435,50,o),
(381,79,o),
(220,69,cs),
(153,65,o),
(130,69,o),
(130,120,cs),
(130,140,o),
(137,156,o),
(146,171,cs),
(162,197,o),
(168,274,o),
(114,194,c),
(115,194,o),
(65,150,o),
(65,105,cs),
(65,30,o),
(109,0,o),
(220,0,cs),
(310,0,o),
(340,-10,o),
(340,-40,cs),
(340,-114,o),
(297,-166,o),
(220,-166,c),
(220,-210,l)
);
},
{
closed = 1;
nodes = (
(220,-166,l),
(143,-166,o),
(140,-80,o),
(90,-80,cs),
(40,-80,o),
(68,-175,o),
(68,-175,c),
(68,-175,o),
(135,-210,o),
(220,-210,c)
);
}
);
width = 484;
},
{
layerId = m009;
shapes = (
{
closed = 1;
nodes = (
(10,172,o),
(95,115,o),
(247,115,cs),
(399,115,o),
(484,172,o),
(484,302,cs),
(484,347,o),
(465,375,o),
(447,410,c),
(499,410,ls),
(599,410,o),
(566,530,o),
(499,490,cs),
(383,421,o),
(411,499,o),
(247,499,cs),
(95,499,o),
(10,432,o),
(10,302,cs)
);
},
{
closed = 1;
nodes = (
(219,165,o),
(210,169,o),
(210,302,cs),
(210,435,o),
(219,449,o),
(247,449,cs),
(275,449,o),
(284,435,o),
(284,302,cs),
(284,169,o),
(275,165,o),
(247,165,cs)
);
},
{
closed = 1;
nodes = (
(409,-215,o),
(515,-151,o),
(515,-58,cs),
(515,61,o),
(439,76,o),
(244,64,cs),
(180,61,o),
(159,65,o),
(159,105,cs),
(159,118,o),
(166,123,o),
(167,127,c),
(215,241,o),
(138,226,o),
(94,171,cs),
(94,171,o),
(42,115,o),
(42,80,cs),
(42,45,o),
(36,-26,o),
(247,-26,cs),
(298,-26,o),
(315,-38,o),
(315,-73,cs),
(315,-113,o),
(297,-165,o),
(247,-165,c),
(247,-215,l)
);
},
{
closed = 1;
nodes = (
(247,-165,l),
(180,-165,o),
(175,-55,o),
(75,-55,cs),
(0,-55,o),
(41,-165,o),
(41,-165,c),
(41,-165,o),
(122,-215,o),
(247,-215,c)
);
}
);
width = 562;
}
);
metricLeft = "=o";
metricRight = "=n";
note = g;
unicode = 103;
}
{
glyphname = o;
kernLeft = o;
layers = (
{
anchors = (
{
name = bottom;
pos = (245,0);
},
{
name = center;
pos = (245,245);
},
{
name = ogonek;
pos = (441,10);
},
{
name = top;
pos = (245,490);
},
{
name = topright;
pos = (470,490);
}
);
layerId = m004;
shapes = (
{
closed = 1;
nodes = (
(399,-10,o),
(438,95,o),
(438,245,cs),
(438,395,o),
(399,500,o),
(245,500,cs),
(91,500,o),
(52,395,o),
(52,245,cs),
(52,95,o),
(91,-10,o),
(245,-10,cs)
);
},
{
closed = 1;
nodes = (
(161,40,o),
(127,107,o),
(127,245,cs),
(127,383,o),
(161,450,o),
(245,450,cs),
(329,450,o),
(363,383,o),
(363,245,cs),
(363,107,o),
(329,40,o),
(245,40,cs)
);
}
);
width = 490;
},
{
anchors = (
{
name = bottom;
pos = (245,0);
},
{
name = center;
pos = (245,245);
},
{
name = ogonek;
pos = (441,10);
},
{
name = top;
pos = (245,490);
},
{
name = topright;
pos = (470,490);
}
);
hints = (
{
horizontal = 1;
place = (15,105);
type = Stem;
},
{
horizontal = 1;
place = (465,95);
type = Stem;
},
{
place = (65,125);
type = Stem;
},
{
place = (375,125);
type = Stem;
}
);
layerId = m005;
shapes = (
{
closed = 1;
nodes = (
(405,-10,o),
(450,95,o),
(450,245,cs),
(450,395,o),
(405,500,o),
(245,500,cs),
(85,500,o),
(40,395,o),
(40,245,cs),
(40,95,o),
(85,-10,o),
(245,-10,cs)
);
},
{
closed = 1;
nodes = (
(155,50,o),
(140,117,o),
(140,245,cs),
(140,373,o),
(155,440,o),
(245,440,cs),
(335,440,o),
(350,373,o),
(350,245,cs),
(350,117,o),
(335,50,o),
(245,50,cs)
);
}
);
width = 490;
},
{
anchors = (
{
name = bottom;
pos = (275,0);
},
{
name = center;
pos = (275,245);
},
{
name = ogonek;
pos = (495,10);
},
{
name = top;
pos = (275,490);
},
{
name = topright;
pos = (530,490);
}
);
layerId = m006;
shapes = (
{
closed = 1;
nodes = (
(448,-10,o),
(530,63,o),
(530,245,cs),
(530,427,o),
(448,500,o),
(275,500,cs),
(102,500,o),
(20,427,o),
(20,245,cs),
(20,63,o),
(102,-10,o),
(275,-10,cs)
);
},
{
closed = 1;
nodes = (
(241,65,o),
(230,103,o),
(230,245,cs),
(230,387,o),
(241,425,o),
(275,425,cs),
(309,425,o),
(320,387,o),
(320,245,cs),
(320,103,o),
(309,65,o),
(275,65,cs)
);
}
);
width = 550;
},
{
anchors = (
{
name = bottom;
pos = (245,0);
},
{
name = center;
pos = (245,245);
},
{
name = ogonek;
pos = (441,10);
},
{
name = top;
pos = (245,490);
},
{
name = topright;
pos = (470,490);
}
);
layerId = m007;
shapes = (
{
closed = 1;
nodes = (
(399,-10,o),
(438,95,o),
(438,245,cs),
(438,395,o),
(399,500,o),
(245,500,cs),
(91,500,o),
(52,395,o),
(52,245,cs),
(52,95,o),
(91,-10,o),
(245,-10,cs)
);
},
{
closed = 1;
nodes = (
(161,28,o),
(127,95,o),
(127,245,cs),
(127,395,o),
(161,462,o),
(245,462,cs),
(329,462,o),
(363,395,o),
(363,245,cs),
(363,95,o),
(329,28,o),
(245,28,cs)
);
}
);
width = 490;
},
{
anchors = (
{
name = bottom;
pos = (245,0);
},
{
name = center;
pos = (245,245);
},
{
name = ogonek;
pos = (441,10);
},
{
name = top;
pos = (245,490);
},
{
name = topright;
pos = (470,490);
}
);
hints = (
{
horizontal = 1;
place = (15,105);
type = Stem;
},
{
horizontal = 1;
place = (465,95);
type = Stem;
},
{
place = (65,125);
type = Stem;
},
{
place = (375,125);
type = Stem;
}
);
layerId = m008;
shapes = (
{
closed = 1;
nodes = (
(405,-10,o),
(450,95,o),
(450,245,cs),
(450,395,o),
(405,500,o),
(245,500,cs),
(85,500,o),
(40,395,o),
(40,245,cs),
(40,95,o),
(85,-10,o),
(245,-10,cs)
);
},
{
closed = 1;
nodes = (
(155,34,o),
(140,101,o),
(140,245,cs),
(140,389,o),
(155,456,o),
(245,456,cs),
(335,456,o),
(350,389,o),
(350,245,cs),
(350,101,o),
(335,34,o),
(245,34,cs)
);
}
);
width = 490;
},
{
anchors = (
{
name = bottom;
pos = (265,0);
},
{
name = center;
pos = (265,245);
},
{
name = ogonek;
pos = (485,10);
},
{
name = top;
pos = (265,490);
},
{
name = topright;
pos = (520,490);
}
);
layerId = m009;
shapes = (
{
closed = 1;
nodes = (
(438,-10,o),
(520,63,o),
(520,245,cs),
(520,427,o),
(438,500,o),
(265,500,cs),
(92,500,o),
(10,427,o),
(10,245,cs),
(10,63,o),
(92,-10,o),
(265,-10,cs)
);
},
{
closed = 1;
nodes = (
(231,40,o),
(220,78,o),
(220,245,cs),
(220,412,o),
(231,450,o),
(265,450,cs),
(299,450,o),
(310,412,o),
(310,245,cs),
(310,78,o),
(299,40,o),
(265,40,cs)
);
}
);
width = 530;
}
);
note = o;
unicode = 111;
}
{
glyphname = p;
kernRight = o;
layers = (
{
layerId = m004;
shapes = (
{
closed = 1;
nodes = (
(259,500,o),
(193,410,o),
(178,410,cs),
(152,410,o),
(156,451,o),
(156,488,c),
(111,482,l),
(111,-200,l),
(186,-200,l),
(185,5,l),
(206,-2,o),
(240,-10,o),
(283,-10,cs),
(435,-10,o),
(476,96,o),
(476,245,cs),
(476,441,o),
(446,500,o),
(338,500,cs)
);
},
{
closed = 1;
nodes = (
(401,450,o),
(401,393,o),
(401,245,cs),
(401,127,o),
(388,40,o),
(283,40,cs),
(235,40,o),
(191,54,o),
(186,59,c),
(186,245,ls),
(186,357,o),
(239,450,o),
(313,450,cs)
);
},
{
pos = (111,-200);
ref = _serif.H;
},
{
pos = (186,-200);
ref = _serif.H;
scale = (-1,1);
},
{
pos = (111,0);
ref = _serif.n;
}
);
width = 528;
},
{
hints = (
{
horizontal = 1;
place = (15,88);
type = Stem;
},
{
horizontal = 1;
place = (460,100);
type = Stem;
},
{
place = (85,120);
type = Stem;
},
{
place = (370,125);
type = Stem;
}
);
layerId = m005;
shapes = (
{
closed = 1;
nodes = (
(239,500,o),
(204,435,o),
(189,435,cs),
(174,435,o),
(169,459,o),
(169,490,c),
(99,480,l),
(99,-200,l),
(199,-200,l),
(199,0,l),
(199,0,o),
(234,-10,o),
(284,-10,cs),
(444,-10,o),
(489,95,o),
(489,245,cs),
(489,440,o),
(446,500,o),
(339,500,cs)
);
},
{
closed = 1;
nodes = (
(389,440,o),
(389,381,o),
(389,245,cs),
(389,137,o),
(376,50,o),
(284,50,cs),
(234,50,o),
(199,65,o),
(199,65,c),
(199,245,ls),
(199,370,o),
(239,440,o),
(314,440,cs)
);
},
{
pos = (99,-200);
ref = _serif.H;
},
{
pos = (199,-200);
ref = _serif.H;
scale = (-1,1);
},
{
pos = (99,0);
ref = _serif.n;
}
);
width = 529;
},
{
layerId = m006;
shapes = (
{
closed = 1;
nodes = (
(309,500,o),
(269,445,o),
(249,445,cs),
(239,445,o),
(234,444,o),
(234,470,c),
(79,470,l),
(79,-200,l),
(279,-200,l),
(279,-8,l),
(279,-8,o),
(301,-10,o),
(324,-10,cs),
(490,-10,o),
(569,63,o),
(569,245,cs),
(569,435,o),
(525,500,o),
(414,500,cs)
);
},
{
closed = 1;
nodes = (
(361,425,o),
(369,387,o),
(369,245,cs),
(369,114,o),
(350,65,o),
(309,65,cs),
(294,65,o),
(279,70,o),
(279,70,c),
(279,245,ls),
(279,376,o),
(298,425,o),
(339,425,cs)
);
},
{
pos = (79,-200);
ref = _serif.H;
},
{
pos = (279,-200);
ref = _serif.H;
scale = (-1,1);
},
{
pos = (79,0);
ref = _serif.n;
}
);
width = 589;
},
{
layerId = m007;
shapes = (
{
closed = 1;
nodes = (
(239,500,o),
(193,410,o),
(178,410,cs),
(152,410,o),
(156,451,o),
(156,488,c),
(111,482,l),
(111,-200,l),
(186,-200,l),
(185,5,l),
(206,-2,o),
(240,-10,o),
(283,-10,cs),
(435,-10,o),
(476,96,o),
(476,245,cs),
(476,441,o),
(446,500,o),
(338,500,cs)
);
},
{
closed = 1;
nodes = (
(389,462,o),
(401,405,o),
(401,245,cs),
(401,115,o),
(388,28,o),
(283,28,cs),
(235,28,o),
(191,42,o),
(186,47,c),
(186,245,ls),
(186,369,o),
(239,462,o),
(313,462,cs)
);
},
{
pos = (111,-200);
ref = _serif.H;
},
{
pos = (186,-200);
ref = _serif.H;
scale = (-1,1);
},
{
pos = (111,0);
ref = _serif.n;
}
);
width = 528;
},
{
hints = (
{
horizontal = 1;
place = (15,88);
type = Stem;
},
{
horizontal = 1;
place = (460,100);
type = Stem;
},
{
place = (85,120);
type = Stem;
},
{
place = (370,125);
type = Stem;
}
);
layerId = m008;
shapes = (
{
closed = 1;
nodes = (
(250,500,o),
(204,435,o),
(189,435,cs),
(174,435,o),
(169,459,o),
(169,490,c),
(99,480,l),
(99,-200,l),
(199,-200,l),
(199,0,l),
(199,0,o),
(234,-10,o),
(284,-10,cs),
(444,-10,o),
(489,95,o),
(489,245,cs),
(489,440,o),
(446,500,o),
(339,500,cs)
);
},
{
closed = 1;
nodes = (
(389,456,o),
(389,397,o),
(389,245,cs),
(389,121,o),
(376,34,o),
(284,34,cs),
(234,34,o),
(199,49,o),
(199,49,c),
(199,245,ls),
(199,364,o),
(239,456,o),
(314,456,cs)
);
},
{
pos = (99,-200);
ref = _serif.H;
},
{
pos = (199,-200);
ref = _serif.H;
scale = (-1,1);
},
{
pos = (99,0);
ref = _serif.n;
}
);
width = 529;
},
{
layerId = m009;
shapes = (
{
closed = 1;
nodes = (
(299,500,o),
(259,445,o),
(239,445,cs),
(229,445,o),
(224,444,o),
(224,470,c),
(69,470,l),
(69,-200,l),
(269,-200,l),
(269,-8,l),
(269,-8,o),
(291,-10,o),
(314,-10,cs),
(480,-10,o),
(559,63,o),
(559,245,cs),
(559,435,o),
(515,500,o),
(404,500,cs)
);
},
{
closed = 1;
nodes = (
(351,450,o),
(359,412,o),
(359,245,cs),
(359,89,o),
(340,40,o),
(299,40,cs),
(284,40,o),
(269,45,o),
(269,45,c),
(269,245,ls),
(269,401,o),
(288,450,o),
(329,450,cs)
);
},
{
pos = (69,-200);
ref = _serif.H;
},
{
pos = (269,-200);
ref = _serif.H;
scale = (-1,1);
},
{
pos = (69,0);
ref = _serif.n;
}
);
width = 569;
}
);
metricLeft = "=n";
metricRight = "=o";
note = p;
unicode = 112;
}
{
glyphname = s;
layers = (
{
anchors = (
{
name = bottom;
pos = (191,0);
},
{
name = top;
pos = (211,500);
}
);
layerId = m004;
shapes = (
{
closed = 1;
nodes = (
(301,-10,o),
(364,56,o),
(364,142,cs),
(364,237,o),
(306,294,o),
(235,302,cs),
(160,311,o),
(134,338,o),
(134,378,cs),
(134,420,o),
(159,449,o),
(211,449,c),
(211,500,l),
(120,500,o),
(69,447,o),
(69,378,cs),
(69,289,o),
(122,236,o),
(187,228,cs),
(262,219,o),
(289,190,o),
(289,142,cs),
(289,82,o),
(257,40,o),
(191,40,c),
(191,-10,l)
);
},
{
closed = 1;
nodes = (
(191,40,l),
(86,41,o),
(99,140,o),
(84,140,cs),
(69,140,o),
(50,75,o),
(52,22,c),
(86,6,o),
(130,-10,o),
(191,-10,c)
);
},
{
closed = 1;
nodes = (
(328,370,o),
(336,418,o),
(335,468,c),
(302,484,o),
(262,500,o),
(211,500,c),
(211,449,l),
(290,449,o),
(298,370,o),
(313,370,cs)
);
}
);
width = 416;
},
{
anchors = (
{
name = bottom;
pos = (192,0);
},
{
name = top;
pos = (212,490);
}
);
hints = (
{
horizontal = 1;
place = (15,105);
type = Stem;
},
{
horizontal = 1;
place = (465,95);
type = Stem;
},
{
place = (65,115);
type = Stem;
},
{
place = (285,125);
type = Stem;
}
);
layerId = m005;
shapes = (
{
closed = 1;
nodes = (
(304,-10,o),
(377,55,o),
(377,142,cs),
(377,234,o),
(318,293,o),
(237,302,cs),
(170,310,o),
(147,336,o),
(147,378,cs),
(147,410,o),
(170,440,o),
(212,440,c),
(212,500,l),
(118,500,o),
(57,447,o),
(57,378,cs),
(57,292,o),
(112,237,o),
(187,228,cs),
(254,220,o),
(277,191,o),
(277,142,cs),
(277,91,o),
(247,50,o),
(192,50,c),
(192,-10,l)
);
},
{
closed = 1;
nodes = (
(192,50,l),
(97,50,o),
(110,140,o),
(85,140,c),
(60,140,o),
(40,72,o),
(40,25,c),
(40,25,o),
(107,-10,o),
(192,-10,c)
);
},
{
closed = 1;
nodes = (
(339,370,o),
(349,415,o),
(349,465,c),
(349,465,o),
(282,500,o),
(212,500,c),
(212,440,l),
(282,440,o),
(289,370,o),
(314,370,c)
);
}
);
width = 417;
},
{
anchors = (
{
name = bottom;
pos = (225,0);
},
{
name = top;
pos = (225,500);
}
);
layerId = m006;
shapes = (
{
closed = 1;
nodes = (
(364,-10,o),
(440,43,o),
(440,155,cs),
(440,256,o),
(387,286,o),
(275,310,cs),
(210,324,o),
(170,335,o),
(170,375,cs),
(170,406,o),
(194,425,o),
(225,425,c),
(225,500,l),
(86,500,o),
(20,449,o),
(20,340,cs),
(20,244,o),
(70,210,o),
(175,190,cs),
(236,178,o),
(265,164,o),
(265,130,cs),
(265,88,o),
(235,65,o),
(205,65,c),
(205,-10,l)
);
},
{
closed = 1;
nodes = (
(205,65,l),
(135,65,o),
(121,150,o),
(63,150,c),
(5,150,o),
(29,40,o),
(29,40,c),
(29,40,o),
(110,-10,o),
(205,-10,c)
);
},
{
closed = 1;
nodes = (
(410,340,o),
(386,450,o),
(386,450,c),
(386,450,o),
(305,500,o),
(225,500,c),
(225,425,l),
(295,425,o),
(294,340,o),
(352,340,c)
);
}
);
width = 460;
},
{
anchors = (
{
name = bottom;
pos = (191,0);
},
{
name = top;
pos = (211,500);
}
);
layerId = m007;
shapes = (
{
closed = 1;
nodes = (
(301,-10,o),
(364,56,o),
(364,142,cs),
(364,237,o),
(306,294,o),
(235,302,cs),
(160,311,o),
(134,338,o),
(134,378,cs),
(134,432,o),
(159,461,o),
(211,461,c),
(211,500,l),
(120,500,o),
(69,447,o),
(69,378,cs),
(69,289,o),
(122,236,o),
(187,228,cs),
(262,219,o),
(289,190,o),
(289,142,cs),
(289,70,o),
(257,28,o),
(191,28,c),
(191,-10,l)
);
},
{
closed = 1;
nodes = (
(191,28,l),
(86,29,o),
(99,140,o),
(84,140,cs),
(69,140,o),
(50,75,o),
(52,22,c),
(86,6,o),
(130,-10,o),
(191,-10,c)
);
},
{
closed = 1;
nodes = (
(328,370,o),
(336,418,o),
(335,468,c),
(302,484,o),
(262,500,o),
(211,500,c),
(211,461,l),
(290,461,o),
(298,370,o),
(313,370,cs)
);
}
);
width = 416;
},
{
anchors = (
{
name = bottom;
pos = (192,0);
},
{
name = top;
pos = (212,490);
}
);
hints = (
{
horizontal = 1;
place = (15,105);
type = Stem;
},
{
horizontal = 1;
place = (465,95);
type = Stem;
},
{
place = (65,115);
type = Stem;
},
{
place = (285,125);
type = Stem;
}
);
layerId = m008;
shapes = (
{
closed = 1;
nodes = (
(304,-10,o),
(377,55,o),
(377,142,cs),
(377,234,o),
(318,293,o),
(237,302,cs),
(170,310,o),
(147,336,o),
(147,378,cs),
(147,426,o),
(170,456,o),
(212,456,c),
(212,500,l),
(118,500,o),
(57,447,o),
(57,378,cs),
(57,292,o),
(112,237,o),
(187,228,cs),
(254,220,o),
(277,191,o),
(277,142,cs),
(277,75,o),
(247,34,o),
(192,34,c),
(192,-10,l)
);
},
{
closed = 1;
nodes = (
(192,34,l),
(97,34,o),
(110,140,o),
(85,140,c),
(60,140,o),
(40,72,o),
(40,25,c),
(40,25,o),
(107,-10,o),
(192,-10,c)
);
},
{
closed = 1;
nodes = (
(339,370,o),
(349,415,o),
(349,465,c),
(349,465,o),
(282,500,o),
(212,500,c),
(212,456,l),
(282,456,o),
(289,370,o),
(314,370,c)
);
}
);
width = 417;
},
{
anchors = (
{
name = bottom;
pos = (195,0);
},
{
name = top;
pos = (215,500);
}
);
layerId = m009;
shapes = (
{
closed = 1;
nodes = (
(354,-10,o),
(430,43,o),
(430,155,cs),
(430,256,o),
(377,286,o),
(265,310,cs),
(200,324,o),
(160,335,o),
(160,388,cs),
(160,431,o),
(184,450,o),
(215,450,c),
(215,500,l),
(76,500,o),
(10,449,o),
(10,340,cs),
(10,244,o),
(60,210,o),
(165,190,cs),
(226,178,o),
(255,164,o),
(255,117,cs),
(255,63,o),
(225,40,o),
(195,40,c),
(195,-10,l)
);
},
{
closed = 1;
nodes = (
(195,40,l),
(125,40,o),
(111,150,o),
(53,150,c),
(-5,150,o),
(19,40,o),
(19,40,c),
(19,40,o),
(100,-10,o),
(195,-10,c)
);
},
{
closed = 1;
nodes = (
(400,340,o),
(376,450,o),
(376,450,c),
(376,450,o),
(295,500,o),
(215,500,c),
(215,450,l),
(285,450,o),
(284,340,o),
(342,340,c)
);
}
);
width = 440;
}
);
metricLeft = "=o";
metricRight = "=o";
note = s;
unicode = 115;
}
{
glyphname = u;
layers = (
{
anchors = (
{
name = bottom;
pos = (281,0);
},
{
name = ogonek;
pos = (501,0);
},
{
name = top;
pos = (281,490);
},
{
name = topright;
pos = (542,490);
}
);
layerId = m004;
shapes = (
{
closed = 1;
nodes = (
(451,480,l),
(376,480,l),
(376,245,ls),
(376,138,o),
(335,45,o),
(248,45,cs),
(160,45,o),
(161,102,o),
(161,200,cs),
(161,480,l),
(86,480,l),
(86,200,ls),
(86,49,o),
(117,-10,o),
(223,-10,cs),
(323,-10,o),
(378,89,o),
(378,89,c),
(418,106,o),
(426,28,o),
(426,0,c),
(451,0,l)
);
},
{
pos = (376,0);
ref = _serif.i;
},
{
pos = (86,0);
ref = _serif.i;
},
{
pos = (353,0);
ref = _serif.a;
}
);
width = 562;
},
{
anchors = (
{
name = bottom;
pos = (282,0);
},
{
name = ogonek;
pos = (514,0);
},
{
name = top;
pos = (282,490);
},
{
name = topright;
pos = (543,490);
}
);
hints = (
{
horizontal = 1;
place = (65,155);
type = Stem;
},
{
place = (135,175);
type = Stem;
},
{
place = (425,170);
type = Stem;
},
{
horizontal = 1;
place = (75,21);
target = up;
type = BottomGhost;
}
);
layerId = m005;
shapes = (
{
closed = 1;
nodes = (
(464,480,l),
(364,480,l),
(364,245,ls),
(364,132,o),
(324,40,o),
(249,40,cs),
(174,40,o),
(174,99,o),
(174,200,cs),
(174,480,l),
(74,480,l),
(74,200,ls),
(74,50,o),
(117,-10,o),
(224,-10,cs),
(313,-10,o),
(361,55,o),
(374,80,c),
(389,80,o),
(414,31,o),
(414,0,c),
(464,0,l)
);
},
{
pos = (364,0);
ref = _serif.i;
},
{
pos = (74,0);
ref = _serif.i;
},
{
pos = (354,0);
ref = _serif.a;
}
);
width = 563;
},
{
anchors = (
{
name = bottom;
pos = (324,0);
},
{
name = ogonek;
pos = (619,0);
},
{
name = top;
pos = (324,490);
},
{
name = topright;
pos = (628,490);
}
);
layerId = m006;
shapes = (
{
closed = 1;
nodes = (
(569,480,l),
(369,480,l),
(369,245,ls),
(369,114,o),
(350,65,o),
(309,65,cs),
(286,65,o),
(279,103,o),
(279,218,cs),
(279,480,l),
(79,480,l),
(79,218,ls),
(79,55,o),
(123,-10,o),
(234,-10,cs),
(339,-10,o),
(379,45,o),
(399,45,cs),
(409,45,o),
(444,26,o),
(444,0,c),
(569,0,l)
);
},
{
pos = (369,0);
ref = _serif.i;
},
{
pos = (79,0);
ref = _serif.i;
},
{
pos = (439,0);
ref = _serif.a;
}
);
width = 648;
},
{
anchors = (
{
name = bottom;
pos = (281,0);
},
{
name = ogonek;
pos = (501,0);
},
{
name = top;
pos = (281,490);
},
{
name = topright;
pos = (542,490);
}
);
layerId = m007;
shapes = (
{
closed = 1;
nodes = (
(451,480,l),
(376,480,l),
(376,245,ls),
(376,127,o),
(335,34,o),
(248,34,cs),
(160,34,o),
(161,91,o),
(161,200,cs),
(161,480,l),
(86,480,l),
(86,200,ls),
(86,49,o),
(126,-10,o),
(223,-10,cs),
(327,-10,o),
(378,89,o),
(378,89,c),
(418,106,o),
(426,28,o),
(426,0,c),
(451,0,l)
);
},
{
pos = (376,0);
ref = _serif.i;
},
{
pos = (86,0);
ref = _serif.i;
},
{
pos = (353,0);
ref = _serif.a;
}
);
width = 562;
},
{
anchors = (
{
name = bottom;
pos = (269,0);
},
{
name = ogonek;
pos = (514,0);
},
{
name = top;
pos = (269,500);
},
{
name = topright;
pos = (504,500);
}
);
hints = (
{
horizontal = 1;
place = (65,155);
type = Stem;
},
{
place = (135,175);
type = Stem;
},
{
place = (425,170);
type = Stem;
},
{
horizontal = 1;
place = (75,21);
target = up;
type = BottomGhost;
}
);
layerId = m008;
shapes = (
{
closed = 1;
nodes = (
(464,470,l),
(364,470,l),
(364,245,ls),
(364,132,o),
(324,40,o),
(249,40,cs),
(174,40,o),
(174,99,o),
(174,200,cs),
(174,470,l),
(74,470,l),
(74,200,ls),
(74,50,o),
(117,-10,o),
(224,-10,cs),
(313,-10,o),
(361,55,o),
(374,80,c),
(389,80,o),
(414,31,o),
(414,0,c),
(464,0,l)
);
},
{
pos = (364,0);
ref = _serif.i;
},
{
pos = (74,0);
ref = _serif.i;
},
{
pos = (354,0);
ref = _serif.a;
}
);
width = 563;
},
{
anchors = (
{
name = bottom;
pos = (314,0);
},
{
name = ogonek;
pos = (609,0);
},
{
name = top;
pos = (314,490);
},
{
name = topright;
pos = (618,490);
}
);
layerId = m009;
shapes = (
{
closed = 1;
nodes = (
(559,480,l),
(359,480,l),
(359,245,ls),
(359,114,o),
(340,65,o),
(299,65,cs),
(276,65,o),
(269,103,o),
(269,218,cs),
(269,480,l),
(69,480,l),
(69,218,ls),
(69,55,o),
(113,-10,o),
(224,-10,cs),
(329,-10,o),
(369,45,o),
(389,45,cs),
(399,45,o),
(434,26,o),
(434,0,c),
(559,0,l)
);
},
{
pos = (359,0);
ref = _serif.i;
},
{
pos = (69,0);
ref = _serif.i;
},
{
pos = (429,0);
ref = _serif.a;
}
);
width = 628;
}
);
metricLeft = "=|n";
metricRight = "=|n";
note = u;
unicode = 117;
}
{
glyphname = v;
kernLeft = v;
kernRight = v;
layers = (
{
layerId = m004;
shapes = (
{
closed = 1;
nodes = (
(299,0,ls),
(309,0,o),
(316,4,o),
(320,13,cs),
(395,171,o),
(431,325,o),
(463,490,c),
(404,490,l),
(381,334,o),
(346,187,o),
(276,24,c),
(196,189,o),
(167,336,o),
(145,490,c),
(56,490,l),
(88,325,o),
(124,171,o),
(199,13,cs),
(203,4,o),
(210,0,o),
(220,0,cs)
);
},
{
closed = 1;
nodes = (
(342,490,o),
(335,481,o),
(335,472,cs),
(335,464,o),
(342,455,o),
(354,455,cs),
(399,455,o),
(395,430,o),
(391,405,c),
(414,490,l),
(354,490,ls)
);
},
{
closed = 1;
nodes = (
(7,490,o),
(0,481,o),
(0,472,cs),
(0,464,o),
(7,455,o),
(19,455,cs),
(63,455,o),
(68,430,o),
(73,405,c),
(79,490,l),
(19,490,ls)
);
},
{
closed = 1;
nodes = (
(135,490,l),
(158,405,l),
(154,430,o),
(150,455,o),
(195,455,cs),
(207,455,o),
(214,464,o),
(214,472,cs),
(214,481,o),
(207,490,o),
(195,490,cs)
);
},
{
closed = 1;
nodes = (
(440,490,l),
(446,405,l),
(451,430,o),
(456,455,o),
(500,455,cs),
(512,455,o),
(519,464,o),
(519,472,cs),
(519,481,o),
(512,490,o),
(500,490,cs)
);
}
);
width = 519;
},
{
hints = (
{
horizontal = 1;
place = (25,21);
target = up;
type = BottomGhost;
},
{
place = (35,475);
type = Stem;
},
{
horizontal = 1;
place = (25,125);
type = Stem;
}
);
layerId = m005;
shapes = (
{
closed = 1;
nodes = (
(302,0,ls),
(312,0,o),
(319,4,o),
(323,13,cs),
(401,175,o),
(436,327,o),
(467,490,c),
(404,490,l),
(382,340,o),
(349,200,o),
(287,50,c),
(219,200,o),
(191,340,o),
(169,490,c),
(56,490,l),
(87,327,o),
(122,175,o),
(200,13,cs),
(204,4,o),
(211,0,o),
(221,0,cs)
);
},
{
closed = 1;
nodes = (
(342,490,o),
(335,481,o),
(335,472,cs),
(335,464,o),
(342,455,o),
(354,455,c),
(399,455,o),
(395,430,o),
(391,405,c),
(414,490,l),
(354,490,l)
);
},
{
closed = 1;
nodes = (
(7,490,o),
(0,481,o),
(0,472,cs),
(0,464,o),
(7,455,o),
(19,455,c),
(63,455,o),
(68,430,o),
(73,405,c),
(79,490,l),
(19,490,l)
);
},
{
closed = 1;
nodes = (
(159,490,l),
(182,405,l),
(178,430,o),
(174,455,o),
(219,455,c),
(231,455,o),
(238,464,o),
(238,472,cs),
(238,481,o),
(231,490,o),
(219,490,c)
);
},
{
closed = 1;
nodes = (
(444,490,l),
(450,405,l),
(455,430,o),
(460,455,o),
(504,455,c),
(516,455,o),
(523,464,o),
(523,472,cs),
(523,481,o),
(516,490,o),
(504,490,c)
);
}
);
width = 523;
},
{
layerId = m006;
shapes = (
{
closed = 1;
nodes = (
(418,0,ls),
(428,0,o),
(435,4,o),
(439,14,cs),
(505,176,o),
(531,328,o),
(570,490,c),
(425,490,l),
(418,288,o),
(370,147,o),
(348,77,c),
(326,147,o),
(278,288,o),
(271,490,c),
(51,490,l),
(90,327,o),
(121,175,o),
(206,13,cs),
(211,4,o),
(217,0,o),
(227,0,cs)
);
},
{
closed = 1;
nodes = (
(371,490,o),
(364,481,o),
(364,472,cs),
(364,464,o),
(371,455,o),
(383,455,c),
(428,455,o),
(423,430,o),
(420,405,c),
(443,490,l),
(383,490,l)
);
},
{
closed = 1;
nodes = (
(7,490,o),
(0,481,o),
(0,472,cs),
(0,464,o),
(7,455,o),
(19,455,c),
(63,455,o),
(67,430,o),
(73,405,c),
(79,490,l),
(19,490,l)
);
},
{
closed = 1;
nodes = (
(253,490,l),
(276,405,l),
(273,430,o),
(268,455,o),
(313,455,c),
(325,455,o),
(332,464,o),
(332,472,cs),
(332,481,o),
(325,490,o),
(313,490,c)
);
},
{
closed = 1;
nodes = (
(544,490,l),
(550,405,l),
(556,430,o),
(560,455,o),
(604,455,c),
(616,455,o),
(623,464,o),
(623,472,cs),
(623,481,o),
(616,490,o),
(604,490,c)
);
}
);
width = 623;
},
{
layerId = m007;
shapes = (
{
closed = 1;
nodes = (
(295,0,ls),
(302,0,o),
(307,3,o),
(311,10,cs),
(386,168,o),
(423,323,o),
(455,490,c),
(406,490,l),
(383,334,o),
(348,187,o),
(278,24,c),
(198,189,o),
(169,336,o),
(147,490,c),
(58,490,l),
(90,323,o),
(127,168,o),
(202,10,cs),
(206,3,o),
(211,0,o),
(218,0,cs)
);
},
{
closed = 1;
nodes = (
(345,490,o),
(338,486,o),
(338,477,cs),
(338,469,o),
(345,465,o),
(357,465,cs),
(402,465,o),
(398,440,o),
(394,415,c),
(417,490,l),
(357,490,ls)
);
},
{
closed = 1;
nodes = (
(7,490,o),
(0,486,o),
(0,477,cs),
(0,469,o),
(7,465,o),
(19,465,cs),
(63,465,o),
(68,440,o),
(73,415,c),
(79,490,l),
(19,490,ls)
);
},
{
closed = 1;
nodes = (
(135,490,l),
(158,415,l),
(154,440,o),
(150,465,o),
(195,465,cs),
(207,465,o),
(214,469,o),
(214,477,cs),
(214,486,o),
(207,490,o),
(195,490,cs)
);
},
{
closed = 1;
nodes = (
(434,490,l),
(440,415,l),
(445,440,o),
(450,465,o),
(494,465,cs),
(506,465,o),
(513,469,o),
(513,477,cs),
(513,486,o),
(506,490,o),
(494,490,cs)
);
}
);
width = 513;
},
{
hints = (
{
horizontal = 1;
place = (25,21);
target = up;
type = BottomGhost;
},
{
place = (35,475);
type = Stem;
},
{
horizontal = 1;
place = (25,125);
type = Stem;
}
);
layerId = m008;
shapes = (
{
closed = 1;
nodes = (
(308,0,ls),
(315,0,o),
(320,3,o),
(324,10,cs),
(402,173,o),
(438,326,o),
(469,490,c),
(406,490,l),
(384,340,o),
(351,200,o),
(289,50,c),
(221,200,o),
(193,340,o),
(171,490,c),
(58,490,l),
(89,326,o),
(125,173,o),
(203,10,cs),
(207,3,o),
(212,0,o),
(219,0,cs)
);
},
{
closed = 1;
nodes = (
(345,490,o),
(338,486,o),
(338,477,cs),
(338,469,o),
(345,465,o),
(357,465,c),
(402,465,o),
(398,440,o),
(394,415,c),
(417,490,l),
(357,490,l)
);
},
{
closed = 1;
nodes = (
(7,490,o),
(0,486,o),
(0,477,cs),
(0,469,o),
(7,465,o),
(19,465,c),
(63,465,o),
(68,440,o),
(73,415,c),
(79,490,l),
(19,490,l)
);
},
{
closed = 1;
nodes = (
(159,490,l),
(182,415,l),
(178,440,o),
(174,465,o),
(219,465,c),
(231,465,o),
(238,469,o),
(238,477,cs),
(238,486,o),
(231,490,o),
(219,490,c)
);
},
{
closed = 1;
nodes = (
(448,490,l),
(454,415,l),
(459,440,o),
(464,465,o),
(508,465,c),
(520,465,o),
(527,469,o),
(527,477,cs),
(527,486,o),
(520,490,o),
(508,490,c)
);
}
);
width = 527;
},
{
layerId = m009;
shapes = (
{
closed = 1;
nodes = (
(415,0,ls),
(422,0,o),
(427,3,o),
(430,10,cs),
(497,173,o),
(524,326,o),
(563,490,c),
(418,490,l),
(411,288,o),
(363,147,o),
(341,77,c),
(319,147,o),
(271,288,o),
(264,490,c),
(44,490,l),
(83,326,o),
(115,173,o),
(201,9,cs),
(204,3,o),
(209,0,o),
(216,0,cs)
);
},
{
closed = 1;
nodes = (
(365,490,o),
(358,486,o),
(358,477,cs),
(358,469,o),
(365,465,o),
(377,465,c),
(422,465,o),
(417,440,o),
(414,415,c),
(437,490,l),
(377,490,l)
);
},
{
closed = 1;
nodes = (
(-3,490,o),
(-10,486,o),
(-10,477,cs),
(-10,469,o),
(-3,465,o),
(9,465,c),
(53,465,o),
(57,440,o),
(63,415,c),
(69,490,l),
(9,490,l)
);
},
{
closed = 1;
nodes = (
(245,490,l),
(268,415,l),
(265,440,o),
(260,465,o),
(305,465,c),
(317,465,o),
(324,469,o),
(324,477,cs),
(324,486,o),
(317,490,o),
(305,490,c)
);
},
{
closed = 1;
nodes = (
(539,490,l),
(545,415,l),
(551,440,o),
(555,465,o),
(599,465,c),
(611,465,o),
(618,469,o),
(618,477,cs),
(618,486,o),
(611,490,o),
(599,490,c)
);
}
);
width = 608;
}
);
note = v;
unicode = 118;
}
{
glyphname = braceleft;
layers = (
{
layerId = m004;
shapes = (
{
closed = 1;
nodes = (
(131,340,l),
(175,359,o),
(193,424,o),
(193,479,cs),
(193,506,o),
(191,530,o),
(191,559,cs),
(191,662,o),
(203,695,o),
(267,695,cs),
(277,695,o),
(290,693,o),
(306,691,c),
(306,717,l),
(291,720,o),
(271,723,o),
(250,723,cs),
(195,723,o),
(131,707,o),
(131,618,cs),
(131,577,o),
(136,542,o),
(136,499,cs),
(136,427,o),
(122,353,o),
(42,353,c),
(42,340,l)
);
},
{
closed = 1;
nodes = (
(42,327,l),
(122,327,o),
(136,253,o),
(136,181,cs),
(136,138,o),
(131,103,o),
(131,62,cs),
(131,-27,o),
(195,-43,o),
(250,-43,cs),
(271,-43,o),
(291,-40,o),
(306,-37,c),
(306,-11,l),
(290,-13,o),
(277,-15,o),
(267,-15,cs),
(203,-15,o),
(191,18,o),
(191,121,cs),
(191,150,o),
(193,174,o),
(193,201,cs),
(193,256,o),
(175,321,o),
(131,340,c),
(42,340,l)
);
}
);
width = 315;
},
{
hints = (
{
horizontal = 1;
place = (-67,57);
type = Stem;
},
{
horizontal = 1;
place = (313,50);
type = Stem;
},
{
horizontal = 1;
place = (677,57);
type = Stem;
},
{
place = (184,72);
type = Stem;
}
);
layerId = m005;
shapes = (
{
closed = 1;
nodes = (
(150,340,l),
(210,364,o),
(221,421,o),
(221,479,cs),
(221,507,o),
(219,531,o),
(219,559,cs),
(219,662,o),
(234,690,o),
(280,690,cs),
(293,690,o),
(314,686,o),
(344,681,c),
(344,731,l),
(331,736,o),
(296,743,o),
(263,743,cs),
(204,743,o),
(119,722,o),
(119,618,cs),
(119,576,o),
(124,541,o),
(124,499,cs),
(124,404,o),
(110,353,o),
(30,353,c),
(30,340,l)
);
},
{
closed = 1;
nodes = (
(30,327,l),
(110,327,o),
(124,276,o),
(124,181,cs),
(124,139,o),
(119,104,o),
(119,62,cs),
(119,-42,o),
(204,-63,o),
(263,-63,cs),
(296,-63,o),
(331,-56,o),
(344,-51,c),
(344,-1,l),
(314,-6,o),
(293,-10,o),
(280,-10,cs),
(234,-10,o),
(219,18,o),
(219,121,cs),
(219,149,o),
(221,173,o),
(221,201,cs),
(221,259,o),
(210,316,o),
(150,340,c),
(30,340,l)
);
}
);
width = 347;
},
{
layerId = m006;
shapes = (
{
closed = 1;
nodes = (
(195,340,l),
(263,357,o),
(301,406,o),
(301,479,cs),
(301,507,o),
(299,531,o),
(299,559,cs),
(299,657,o),
(318,680,o),
(345,680,cs),
(370,680,o),
(394,674,o),
(424,662,c),
(424,737,l),
(382,753,o),
(334,763,o),
(293,763,cs),
(220,763,o),
(99,736,o),
(99,618,cs),
(99,577,o),
(104,542,o),
(104,499,cs),
(104,393,o),
(96,368,o),
(10,368,c),
(10,340,l)
);
},
{
closed = 1;
nodes = (
(10,312,l),
(96,312,o),
(104,287,o),
(104,181,cs),
(104,138,o),
(99,103,o),
(99,62,cs),
(99,-56,o),
(220,-83,o),
(293,-83,cs),
(334,-83,o),
(382,-73,o),
(424,-57,c),
(424,18,l),
(394,6,o),
(370,0,o),
(345,0,cs),
(318,0,o),
(299,23,o),
(299,121,cs),
(299,149,o),
(301,173,o),
(301,201,cs),
(301,274,o),
(263,323,o),
(195,340,c),
(10,340,l)
);
}
);
width = 429;
},
{
layerId = m007;
shapes = (
{
closed = 1;
nodes = (
(131,340,l),
(175,359,o),
(188,424,o),
(188,479,cs),
(188,506,o),
(186,530,o),
(186,559,cs),
(186,662,o),
(203,695,o),
(267,695,cs),
(277,695,o),
(290,693,o),
(306,691,c),
(306,717,l),
(291,720,o),
(271,723,o),
(250,723,cs),
(195,723,o),
(131,707,o),
(131,618,cs),
(131,577,o),
(136,542,o),
(136,499,cs),
(136,427,o),
(122,353,o),
(42,353,c),
(42,340,l)
);
},
{
closed = 1;
nodes = (
(42,327,l),
(122,327,o),
(136,253,o),
(136,181,cs),
(136,138,o),
(131,103,o),
(131,62,cs),
(131,-27,o),
(195,-43,o),
(250,-43,cs),
(271,-43,o),
(291,-40,o),
(306,-37,c),
(306,-11,l),
(290,-13,o),
(277,-15,o),
(267,-15,cs),
(203,-15,o),
(186,18,o),
(186,121,cs),
(186,150,o),
(188,174,o),
(188,201,cs),
(188,256,o),
(175,321,o),
(131,340,c),
(42,340,l)
);
}
);
width = 315;
},
{
hints = (
{
horizontal = 1;
place = (-67,57);
type = Stem;
},
{
horizontal = 1;
place = (313,50);
type = Stem;
},
{
horizontal = 1;
place = (677,57);
type = Stem;
},
{
place = (184,72);
type = Stem;
}
);
layerId = m008;
shapes = (
{
closed = 1;
nodes = (
(150,340,l),
(210,364,o),
(221,421,o),
(221,479,cs),
(221,507,o),
(219,531,o),
(219,559,cs),
(219,662,o),
(234,690,o),
(280,690,cs),
(293,690,o),
(314,686,o),
(344,681,c),
(344,731,l),
(331,736,o),
(296,743,o),
(263,743,cs),
(204,743,o),
(119,722,o),
(119,618,cs),
(119,576,o),
(124,541,o),
(124,499,cs),
(124,404,o),
(110,353,o),
(30,353,c),
(30,340,l)
);
},
{
closed = 1;
nodes = (
(30,327,l),
(110,327,o),
(124,276,o),
(124,181,cs),
(124,139,o),
(119,104,o),
(119,62,cs),
(119,-42,o),
(204,-63,o),
(263,-63,cs),
(296,-63,o),
(331,-56,o),
(344,-51,c),
(344,-1,l),
(314,-6,o),
(293,-10,o),
(280,-10,cs),
(234,-10,o),
(219,18,o),
(219,121,cs),
(219,149,o),
(221,173,o),
(221,201,cs),
(221,259,o),
(210,316,o),
(150,340,c),
(30,340,l)
);
}
);
width = 347;
},
{
layerId = m009;
shapes = (
{
closed = 1;
nodes = (
(185,340,l),
(253,357,o),
(291,406,o),
(291,479,cs),
(291,507,o),
(289,531,o),
(289,559,cs),
(289,657,o),
(308,680,o),
(335,680,cs),
(360,680,o),
(384,674,o),
(414,662,c),
(414,737,l),
(372,753,o),
(324,763,o),
(283,763,cs),
(210,763,o),
(89,736,o),
(89,618,cs),
(89,577,o),
(94,542,o),
(94,499,cs),
(94,393,o),
(86,368,o),
(0,368,c),
(0,340,l)
);
},
{
closed = 1;
nodes = (
(0,312,l),
(86,312,o),
(94,287,o),
(94,181,cs),
(94,138,o),
(89,103,o),
(89,62,cs),
(89,-56,o),
(210,-83,o),
(283,-83,cs),
(324,-83,o),
(372,-73,o),
(414,-57,c),
(414,18,l),
(384,6,o),
(360,0,o),
(335,0,cs),
(308,0,o),
(289,23,o),
(289,121,cs),
(289,149,o),
(291,173,o),
(291,201,cs),
(291,274,o),
(253,323,o),
(185,340,c),
(0,340,l)
);
}
);
width = 414;
}
);
metricLeft = "=n";
metricRight = "=n/2";
note = braceleft;
unicode = 123;
}
